<?xml version="1.0" encoding="UTF-8" standalone="no"?>
<svg
   version="1.1"
   id="svg441"
   xml:space="preserve"
   width="78.016357"
   height="37.982239"
   xmlns="http://www.w3.org/2000/svg"
   xmlns:svg="http://www.w3.org/2000/svg"><defs
     id="defs1" /><g
     id="layer2"
     transform="translate(-3578.5576,-985.39777)"><g
       id="g488"><g
         id="g480"
         transform="translate(-85.44239,295.39776)"><path
           stroke="none"
           fill="#33291e"
           d="m 3688.1421,725.78224 q -10.4,-3.5 -18.7,-11.9 l -0.05,-0.1 -2.35,-2.6 q -3.4,-4.05 -3,-9.3 0.35,-5.3 4.35,-8.75 3.9,-3.45 9.1,-3.1 l 1.65,0.25 -2.1,7.8 q -0.75,2.85 0.7,5.45 1.5,2.6 4.35,3.35 2.9,0.75 5.35,-0.75 2.6,-1.45 3.35,-4.35 l 0.65,-2.6 q 2.1,1.25 4.45,2.05 v 6.6 q 0,3 2.05,5.1 2.1,2.15 5.05,2.15 2.95,0 4.95,-2.15 2.15,-2.1 2.15,-5.1 v -6.6 q 2.3,-0.8 4.45,-2.05 l 0.7,2.65 q 0.7,2.9 3.3,4.35 2.5,1.55 5.4,0.75 2.8,-0.75 4.2,-3.35 1.5,-2.65 0.8,-5.5 l -2.05,-7.8 1.65,-0.25 q 5.15,-0.35 9.1,3.1 3.9,3.45 4.35,8.75 0.3,5.25 -3.1,9.3 l -2.3,2.6 v 0.1 q -8.4,8.45 -18.75,11.9 l -0.25,-0.25 q -6.05,-6.15 -14.6,-6.15 -8.55,0 -14.65,6.15 l -0.2,0.25"
           id="path111-1" /><path
           stroke="none"
           fill="#ffffff"
           d="m 3710.0921,701.23224 v 6.6 q 0,3 -2.15,5.1 -2,2.15 -4.95,2.15 -2.95,0 -5.05,-2.15 -2.05,-2.1 -2.05,-5.1 v -6.6 q 3.3,1.1 7.1,1.1 3.75,0 7.1,-1.1 m -18.65,-2.05 -0.65,2.6 q -0.75,2.9 -3.35,4.35 -2.45,1.5 -5.35,0.75 -2.85,-0.75 -4.35,-3.35 -1.45,-2.6 -0.7,-5.45 l 2.1,-7.8 q 4.1,0.75 6.9,4.15 l 1.2,1.25 q 1.95,2.1 4.2,3.5 m 35.45,-8.9 2.05,7.8 q 0.7,2.85 -0.8,5.5 -1.4,2.6 -4.2,3.35 -2.9,0.8 -5.4,-0.75 -2.6,-1.45 -3.3,-4.35 l -0.7,-2.65 q 2.2,-1.4 4.15,-3.5 h 0.1 l 1.1,-1.25 q 2.85,-3.4 7,-4.15"
           id="path112-1" /><path
           stroke="none"
           fill="#ff4362"
           d="m 3688.1421,725.78224 0.2,-0.25 q 6.1,-6.15 14.65,-6.15 8.55,0 14.6,6.15 l 0.25,0.25 q -7,2.2 -14.85,2.2 -7.95,0 -14.85,-2.2"
           id="path113-3" /></g></g></g></svg>
