<?xml version="1.0" encoding="UTF-8" standalone="no"?>
<svg
   version="1.1"
   id="svg441"
   xml:space="preserve"
   width="51.965332"
   height="19.981827"
   sodipodi:docname="mouth-1.svg"
   xmlns:inkscape="http://www.inkscape.org/namespaces/inkscape"
   xmlns:sodipodi="http://sodipodi.sourceforge.net/DTD/sodipodi-0.dtd"
   xmlns="http://www.w3.org/2000/svg"
   xmlns:svg="http://www.w3.org/2000/svg"><sodipodi:namedview
     id="namedview1"
     pagecolor="#ffffff"
     bordercolor="#000000"
     borderopacity="0.25"
     inkscape:showpageshadow="2"
     inkscape:pageopacity="0.0"
     inkscape:pagecheckerboard="0"
     inkscape:deskcolor="#d1d1d1" /><defs
     id="defs1" /><g
     id="layer2"
     transform="translate(-4336.8994,-129.73605)"><g
       id="g484"><path
         stroke="none"
         fill="#33291e"
         d="m 4341.8829,138.43606 q 8.7,-8.7 21,-8.7 12.3,0 20.95,8.7 2.6,2.6 4.45,5.6 0.8,1.3 0.5,2.8 -0.4,1.5 -1.75,2.3 -1.35,0.8 -2.8,0.5 -1.5,-0.35 -2.35,-1.7 -1.45,-2.3 -3.4,-4.2 -6.45,-6.5 -15.6,-6.5 -9.25,0 -15.7,6.5 -2,1.9 -3.3,4.15 -0.8,1.3 -2.35,1.7 -1.5,0.35 -2.8,-0.4 -1.35,-0.8 -1.7,-2.3 -0.4,-1.5 0.4,-2.8 1.75,-3.05 4.45,-5.65"
         id="path61-3" /></g></g></svg>
