<?xml version="1.0" encoding="UTF-8" standalone="no"?>
<svg
   width="1280"
   height="720"
   viewBox="0 0 1280 720"
   fill="none"
   version="1.1"
   id="svg6"
   sodipodi:docname="Loading.svg"
   xmlns:inkscape="http://www.inkscape.org/namespaces/inkscape"
   xmlns:sodipodi="http://sodipodi.sourceforge.net/DTD/sodipodi-0.dtd"
   xmlns="http://www.w3.org/2000/svg"
   xmlns:svg="http://www.w3.org/2000/svg">
  <sodipodi:namedview
     id="namedview6"
     pagecolor="#ffffff"
     bordercolor="#000000"
     borderopacity="0.25"
     inkscape:showpageshadow="2"
     inkscape:pageopacity="0.0"
     inkscape:pagecheckerboard="0"
     inkscape:deskcolor="#d1d1d1" />
  <g
     id="Scene/Loading"
     clip-path="url(#clip0_2_410)">
    <g
       id="MainBackground"
       clip-path="url(#clip1_2_410)">
      <rect
         id="Background"
         width="1280"
         height="720"
         fill="#323741" />
    </g>
    <g
       id="Loader">
      <g
         id="Text/Component/Loading">
        <path
           d="m 546.3,255.056 h 5.616 v 29.568 h 17.232 V 290 H 546.3 Z m 27.45596,24.576 q 0,-3.072 1.44,-5.52 1.44,-2.496 4.032,-3.888 2.64,-1.44 5.952,-1.44 3.408,0 5.904,1.44 2.544,1.392 3.936,3.888 1.392,2.448 1.392,5.52 0,3.072 -1.392,5.568 -1.392,2.448 -3.936,3.888 -2.496,1.44 -5.952,1.44 -3.264,0 -5.856,-1.296 -2.592,-1.344 -4.08,-3.792 -1.44,-2.448 -1.44,-5.808 z m 5.424,0.048 q 0,1.776 0.768,3.264 0.768,1.44 2.112,2.304 1.344,0.864 2.976,0.864 1.776,0 3.072,-0.864 1.344,-0.864 2.064,-2.304 0.768,-1.488 0.768,-3.264 0,-1.824 -0.768,-3.264 -0.72,-1.488 -2.064,-2.352 -1.296,-0.864 -3.072,-0.864 -1.68,0 -3.024,0.912 -1.296,0.864 -2.064,2.304 -0.768,1.44 -0.768,3.264 z m 31.44001,10.848 q -2.88,0 -5.232,-1.2 -2.304,-1.2 -3.648,-3.552 -1.344,-2.4 -1.344,-5.904 0,-3.456 1.392,-5.904 1.44,-2.496 3.744,-3.84 2.352,-1.344 5.088,-1.344 2.928,0 4.704,1.152 1.824,1.152 2.832,2.736 l -0.288,0.768 0.528,-3.744 h 4.944 V 290 h -5.376 v -4.944 l 0.528,1.296 q -0.192,0.288 -0.768,0.96 -0.576,0.624 -1.584,1.392 -1.008,0.768 -2.4,1.296 -1.344,0.528 -3.12,0.528 z m 1.488,-4.416 q 1.44,0 2.592,-0.528 1.2,-0.528 2.016,-1.488 0.864,-0.96 1.248,-2.304 v -4.416 q -0.384,-1.248 -1.248,-2.16 -0.864,-0.96 -2.112,-1.488 -1.2,-0.528 -2.688,-0.528 -1.632,0 -3.024,0.816 -1.392,0.816 -2.256,2.256 -0.816,1.44 -0.816,3.312 0,1.824 0.864,3.312 0.864,1.488 2.304,2.352 1.44,0.864 3.12,0.864 z m 26.92801,4.416 q -2.88,0 -5.136,-1.344 -2.256,-1.344 -3.552,-3.84 -1.296,-2.496 -1.296,-5.808 0,-3.408 1.392,-5.808 1.392,-2.4 3.792,-3.648 2.448,-1.296 5.472,-1.296 2.208,0 4.224,0.864 2.016,0.816 3.216,2.4 l -0.096,1.824 V 252.56 h 5.328 V 290 h -5.376 v -4.56 l 0.528,1.296 q -1.536,1.632 -3.696,2.736 -2.112,1.056 -4.8,1.056 z m 1.728,-4.56 q 1.584,0 2.784,-0.528 1.248,-0.528 2.112,-1.488 0.912,-1.008 1.344,-2.352 v -4.32 q -0.384,-1.248 -1.296,-2.208 -0.864,-0.96 -2.16,-1.488 -1.296,-0.528 -2.784,-0.528 -1.728,0 -3.168,0.816 -1.392,0.816 -2.256,2.256 -0.864,1.44 -0.864,3.312 0,1.824 0.864,3.312 0.864,1.488 2.304,2.352 1.44,0.864 3.12,0.864 z m 19.00798,-16.272 h 5.376 V 290 h -5.376 z m -0.24,-7.248 q 0,-1.248 0.96,-2.064 1.008,-0.816 2.16,-0.816 1.152,0 2.064,0.816 0.96,0.816 0.96,2.064 0,1.248 -0.96,2.064 -0.912,0.768 -2.064,0.768 -1.152,0 -2.16,-0.816 -0.96,-0.816 -0.96,-2.016 z m 17.85603,7.248 0.48,4.368 -0.192,-0.576 q 1.056,-2.112 3.12,-3.36 2.112,-1.296 4.992,-1.296 2.88,0 4.752,1.68 1.872,1.68 1.92,4.416 V 290 h -5.376 v -13.152 q -0.048,-1.536 -0.864,-2.448 -0.816,-0.96 -2.592,-1.008 -1.632,0 -2.928,1.008 -1.296,0.96 -2.064,2.688 -0.72,1.68 -0.72,3.888 V 290 h -5.376 v -20.304 z m 32.59202,30.432 q -2.496,0 -4.272,-0.576 -1.776,-0.576 -3.168,-1.536 -1.344,-0.912 -2.544,-1.92 l 3.168,-3.696 q 1.392,1.296 2.928,2.16 1.584,0.864 3.792,0.864 1.968,0 3.408,-0.672 1.488,-0.672 2.304,-1.872 0.816,-1.2 0.864,-2.88 v -5.04 l 0.336,1.008 q -0.816,1.872 -2.976,3.216 -2.16,1.344 -5.376,1.344 -2.784,0 -5.136,-1.392 -2.352,-1.44 -3.744,-3.888 -1.392,-2.448 -1.392,-5.52 0,-3.168 1.44,-5.616 1.488,-2.496 3.888,-3.888 2.448,-1.44 5.184,-1.44 2.688,0 4.752,0.96 2.112,0.96 3.168,2.4 l -0.288,0.768 0.576,-3.216 h 4.944 v 20.4 q 0,2.832 -1.536,5.088 -1.488,2.304 -4.176,3.6 -2.64,1.344 -6.144,1.344 z m -6.384,-20.544 q 0,1.824 0.816,3.312 0.864,1.488 2.304,2.352 1.488,0.864 3.312,0.864 1.584,0 2.832,-0.528 1.296,-0.528 2.208,-1.488 0.96,-0.96 1.392,-2.256 v -4.416 q -0.432,-1.296 -1.392,-2.208 -0.912,-0.96 -2.208,-1.488 -1.248,-0.528 -2.832,-0.528 -1.824,0 -3.312,0.816 -1.44,0.816 -2.304,2.256 -0.816,1.44 -0.816,3.312 z m 23.18397,7.488 q 0,-1.248 0.912,-2.064 0.912,-0.864 2.016,-0.864 1.008,0 1.92,0.864 0.912,0.816 0.912,2.064 0,1.344 -0.912,2.16 -0.912,0.768 -1.92,0.768 -1.104,0 -2.016,-0.768 -0.912,-0.816 -0.912,-2.16 z m 8.16001,0 q 0,-1.248 0.912,-2.064 0.912,-0.864 2.016,-0.864 1.008,0 1.92,0.864 0.912,0.816 0.912,2.064 0,1.344 -0.912,2.16 -0.912,0.768 -1.92,0.768 -1.104,0 -2.016,-0.768 -0.912,-0.816 -0.912,-2.16 z m 8.16,0 q 0,-1.248 0.912,-2.064 0.912,-0.864 2.016,-0.864 1.008,0 1.92,0.864 0.912,0.816 0.912,2.064 0,1.344 -0.912,2.16 -0.912,0.768 -1.92,0.768 -1.104,0 -2.016,-0.768 -0.912,-0.816 -0.912,-2.16 z"
           id="Loading..."
           style="font-weight:600;font-size:48px;font-family:'Josefin Sans';letter-spacing:0em;white-space:pre;fill:#ffffff"
           aria-label="Loading..." />
      </g>
      <g
         id="Bar/B/Example">
        <g
           id="ProgressBar/Background">
          <g
             id="ProgressBar/Background_2">
            <g
               id="Background_2"
               filter="url(#filter0_d_2_410)">
              <rect
                 x="402"
                 y="372"
                 width="476"
                 height="36"
                 rx="2"
                 stroke="#E52554"
                 stroke-width="4"
                 shape-rendering="crispEdges"
                 id="rect1" />
            </g>
          </g>
        </g>
        <g
           id="Bar/B/Line"
           filter="url(#filter1_d_2_410)">
          <rect
             id="Line"
             x="409"
             y="379"
             width="240"
             height="22"
             rx="3"
             fill="#E52554" />
        </g>
      </g>
    </g>
  </g>
  <defs
     id="defs6">
    <filter
       id="filter0_d_2_410"
       x="396"
       y="370"
       width="488"
       height="48"
       filterUnits="userSpaceOnUse"
       color-interpolation-filters="sRGB">
      <feFlood
         flood-opacity="0"
         result="BackgroundImageFix"
         id="feFlood1" />
      <feColorMatrix
         in="SourceAlpha"
         type="matrix"
         values="0 0 0 0 0 0 0 0 0 0 0 0 0 0 0 0 0 0 127 0"
         result="hardAlpha"
         id="feColorMatrix1" />
      <feOffset
         dy="4"
         id="feOffset1" />
      <feGaussianBlur
         stdDeviation="2"
         id="feGaussianBlur1" />
      <feComposite
         in2="hardAlpha"
         operator="out"
         id="feComposite1" />
      <feColorMatrix
         type="matrix"
         values="0 0 0 0 0 0 0 0 0 0 0 0 0 0 0 0 0 0 0.2 0"
         id="feColorMatrix2" />
      <feBlend
         mode="normal"
         in2="BackgroundImageFix"
         result="effect1_dropShadow_2_410"
         id="feBlend2" />
      <feBlend
         mode="normal"
         in="SourceGraphic"
         in2="effect1_dropShadow_2_410"
         result="shape"
         id="feBlend3" />
    </filter>
    <filter
       id="filter1_d_2_410"
       x="405"
       y="379"
       width="248"
       height="30"
       filterUnits="userSpaceOnUse"
       color-interpolation-filters="sRGB">
      <feFlood
         flood-opacity="0"
         result="BackgroundImageFix"
         id="feFlood3" />
      <feColorMatrix
         in="SourceAlpha"
         type="matrix"
         values="0 0 0 0 0 0 0 0 0 0 0 0 0 0 0 0 0 0 127 0"
         result="hardAlpha"
         id="feColorMatrix3" />
      <feOffset
         dy="4"
         id="feOffset3" />
      <feGaussianBlur
         stdDeviation="2"
         id="feGaussianBlur3" />
      <feComposite
         in2="hardAlpha"
         operator="out"
         id="feComposite3" />
      <feColorMatrix
         type="matrix"
         values="0 0 0 0 0 0 0 0 0 0 0 0 0 0 0 0 0 0 0.2 0"
         id="feColorMatrix4" />
      <feBlend
         mode="normal"
         in2="BackgroundImageFix"
         result="effect1_dropShadow_2_410"
         id="feBlend4" />
      <feBlend
         mode="normal"
         in="SourceGraphic"
         in2="effect1_dropShadow_2_410"
         result="shape"
         id="feBlend5" />
    </filter>
    <clipPath
       id="clip0_2_410">
      <rect
         width="1280"
         height="720"
         fill="white"
         id="rect5" />
    </clipPath>
    <clipPath
       id="clip1_2_410">
      <rect
         width="1280"
         height="720"
         fill="white"
         id="rect6" />
    </clipPath>
  </defs>
</svg>
