<?xml version="1.0" encoding="UTF-8" standalone="no"?>
<svg
   width="1280"
   height="720"
   viewBox="0 0 1280 720"
   fill="none"
   version="1.1"
   id="svg32"
   sodipodi:docname="Pause(A).svg"
   xmlns:inkscape="http://www.inkscape.org/namespaces/inkscape"
   xmlns:sodipodi="http://sodipodi.sourceforge.net/DTD/sodipodi-0.dtd"
   xmlns="http://www.w3.org/2000/svg"
   xmlns:svg="http://www.w3.org/2000/svg">
  <sodipodi:namedview
     id="namedview32"
     pagecolor="#ffffff"
     bordercolor="#000000"
     borderopacity="0.25"
     inkscape:showpageshadow="2"
     inkscape:pageopacity="0.0"
     inkscape:pagecheckerboard="0"
     inkscape:deskcolor="#d1d1d1" />
  <g
     id="Scene/Pause(A)"
     clip-path="url(#clip0_2_320)">
    <g
       id="ShadowBackground">
      <g
         id="MainBackground"
         clip-path="url(#clip1_2_320)">
        <rect
           id="Background"
           width="1280"
           height="720"
           fill="#323741" />
      </g>
      <rect
         id="ShadowOverlay"
         width="1280"
         height="720"
         fill="#212121"
         fill-opacity="0.75" />
    </g>
    <g
       id="GameOverWindow">
      <g
         id="Panel/Body/Headed"
         filter="url(#filter0_d_2_320)">
        <path
           id="WindowContent"
           d="M340 320H940V464C940 472.837 932.837 480 924 480H356C347.163 480 340 472.837 340 464V320Z"
           fill="#323741" />
      </g>
      <g
         id="ButtonsGroup">
        <g
           id="Buttons/Square-Medium/Repeat/Default">
          <g
             id="Button/Square-Medium/Fill"
             filter="url(#filter1_d_2_320)">
            <rect
               id="Background_2"
               x="442"
               y="362"
               width="76"
               height="76"
               rx="6"
               fill="#2A2E37"
               stroke="#E52554"
               stroke-width="4" />
          </g>
          <g
             id="Icon/Replay">
            <g
               id="Fill"
               filter="url(#filter2_d_2_320)">
              <path
                 fill-rule="evenodd"
                 clip-rule="evenodd"
                 d="M493.407 400.351C493.407 400.351 490.225 400.001 489.644 402.648C489.103 407.725 484.989 411.674 479.994 411.674C474.631 411.674 470.283 407.121 470.283 401.506C470.283 396.823 474.155 393.768 478.553 392.883C479.3 392.733 479.994 393.334 479.994 394.13V396.527C479.994 397.554 481.099 398.156 481.902 397.567L491.616 390.448C491.94 390.209 492.133 389.823 492.133 389.408C492.133 389.023 491.966 388.658 491.679 388.417L481.964 380.281C481.17 379.615 479.994 380.208 479.994 381.272V383.873C479.994 384.518 479.533 385.063 478.921 385.134C470.438 386.118 463 392.485 463 401.506C463 411.333 470.608 419.3 479.994 419.3C488.941 419.3 496.273 412.061 496.939 402.872C496.939 401.404 495.529 400.351 493.407 400.351Z"
                 fill="#E52554"
                 id="path1" />
            </g>
          </g>
        </g>
        <g
           id="Buttons/Rect-Medium/PlayIcon/Default">
          <g
             id="Button/Rect-Medium/Fill"
             filter="url(#filter3_d_2_320)">
            <rect
               id="Background_3"
               x="562"
               y="362"
               width="156"
               height="76"
               rx="11"
               fill="#2A2E37"
               stroke="#E52554"
               stroke-width="4" />
          </g>
          <g
             id="Icon/Play"
             filter="url(#filter4_d_2_320)">
            <path
               id="Play"
               d="M654.596 395.944C657.801 397.827 657.801 402.489 654.596 404.372L630.289 418.644C627.058 420.541 623 418.195 623 414.43L623 385.886C623 382.121 627.058 379.775 630.289 381.672L654.596 395.944Z"
               fill="#E52554" />
          </g>
        </g>
        <g
           id="Buttons/Square-Medium/Levels/Default">
          <g
             id="Button/Square-Medium/Fill_2"
             filter="url(#filter5_d_2_320)">
            <rect
               id="Background_4"
               x="762"
               y="362"
               width="76"
               height="76"
               rx="6"
               fill="#2A2E37"
               stroke="#E52554"
               stroke-width="4" />
          </g>
          <g
             id="Icon/Levels">
            <g
               id="Rectangle"
               filter="url(#filter6_d_2_320)">
              <path
                 d="M794.487 380H781.228C780.55 380 780 380.56 780 381.25V388.75C780 389.44 780.55 390 781.228 390H794.487C795.165 390 795.714 389.44 795.714 388.75V381.25C795.714 380.56 795.165 380 794.487 380Z"
                 fill="#E52554"
                 id="path2" />
            </g>
            <g
               id="Rectangle_2"
               filter="url(#filter7_d_2_320)">
              <path
                 d="M794.487 395H781.228C780.55 395 780 395.559 780 396.25V403.75C780 404.44 780.55 405 781.228 405H794.487C795.165 405 795.714 404.44 795.714 403.75V396.25C795.714 395.559 795.165 395 794.487 395Z"
                 fill="#E52554"
                 id="path3" />
            </g>
            <g
               id="Rectangle_3"
               filter="url(#filter8_d_2_320)">
              <path
                 d="M794.487 410H781.228C780.55 410 780 410.559 780 411.249V418.749C780 419.44 780.55 419.999 781.228 419.999H794.487C795.165 419.999 795.714 419.44 795.714 418.749V411.249C795.714 410.559 795.165 410 794.487 410Z"
                 fill="#E52554"
                 id="path4" />
            </g>
            <g
               id="Rectangle_4"
               filter="url(#filter9_d_2_320)">
              <path
                 d="M818.773 380H805.514C804.836 380 804.286 380.56 804.286 381.25V388.75C804.286 389.44 804.836 390 805.514 390H818.773C819.451 390 820 389.44 820 388.75V381.25C820 380.56 819.451 380 818.773 380Z"
                 fill="#E52554"
                 id="path5" />
            </g>
            <g
               id="Rectangle_5"
               filter="url(#filter10_d_2_320)">
              <path
                 d="M818.773 395H805.514C804.836 395 804.286 395.559 804.286 396.25V403.75C804.286 404.44 804.836 405 805.514 405H818.773C819.451 405 820 404.44 820 403.75V396.25C820 395.559 819.451 395 818.773 395Z"
                 fill="#E52554"
                 id="path6" />
            </g>
            <g
               id="Rectangle_6"
               filter="url(#filter11_d_2_320)">
              <path
                 d="M818.773 410H805.514C804.836 410 804.286 410.559 804.286 411.249V418.749C804.286 419.44 804.836 419.999 805.514 419.999H818.773C819.451 419.999 820 419.44 820 418.749V411.249C820 410.559 819.451 410 818.773 410Z"
                 fill="#E52554"
                 id="path7" />
            </g>
          </g>
        </g>
      </g>
      <g
         id="Panel/Header/Example">
        <g
           id="Panel/Header">
          <path
             id="Background_5"
             d="M340 256C340 247.163 347.163 240 356 240H924C932.837 240 940 247.163 940 256V320H340V256Z"
             fill="#2A2E37" />
        </g>
        <g
           id="Text/Style/Panel/Title">
          <path
             d="m 597.70899,260.88 q 3.32,0 5.68,1.12 2.36,1.12 3.6,3.2 1.28,2.08 1.28,5.04 0,1.72 -0.56,3.44 -0.52,1.72 -1.68,3.12 -1.12,1.4 -3.04,2.28 -1.88,0.84 -4.64,0.84 h -4.2 V 290 h -4.68 v -29.12 z m 0.64,14.52 q 1.52,0 2.56,-0.52 1.04,-0.52 1.6,-1.32 0.6,-0.8 0.84,-1.64 0.28,-0.88 0.28,-1.56 0,-0.72 -0.24,-1.56 -0.24,-0.88 -0.8,-1.64 -0.56,-0.8 -1.56,-1.28 -1,-0.52 -2.56,-0.52 h -4.32 v 10.04 z m 21.76001,15.04 q -2.4,0 -4.36,-1 -1.92,-1 -3.04,-2.96 -1.12,-2 -1.12,-4.92 0,-2.88 1.16,-4.92 1.2,-2.08 3.12,-3.2 1.96,-1.12 4.24,-1.12 2.44,0 3.92,0.96 1.52,0.96 2.36,2.28 l -0.24,0.64 0.44,-3.12 h 4.12 V 290 h -4.48 v -4.12 l 0.44,1.08 q -0.16,0.24 -0.64,0.8 -0.48,0.52 -1.32,1.16 -0.84,0.64 -2,1.08 -1.12,0.44 -2.6,0.44 z m 1.24,-3.68 q 1.2,0 2.16,-0.44 1,-0.44 1.68,-1.24 0.72,-0.8 1.04,-1.92 v -3.68 q -0.32,-1.04 -1.04,-1.8 -0.72,-0.8 -1.76,-1.24 -1,-0.44 -2.24,-0.44 -1.36,0 -2.52,0.68 -1.16,0.68 -1.88,1.88 -0.68,1.2 -0.68,2.76 0,1.52 0.72,2.76 0.72,1.24 1.92,1.96 1.2,0.72 2.6,0.72 z m 20.96,3.96 q -2.32,0 -3.84,-1.4 -1.52,-1.44 -1.6,-3.68 v -12.56 h 4.48 v 10.96 q 0.08,1.24 0.72,2.04 0.64,0.8 2.04,0.8 1.32,0 2.36,-0.8 1.04,-0.84 1.6,-2.28 0.6,-1.44 0.6,-3.24 v -7.48 h 4.48 V 290 h -4.04 l -0.36,-3.72 0.12,0.6 q -0.52,1.08 -1.48,2 -0.96,0.88 -2.28,1.36 -1.28,0.48 -2.8,0.48 z m 22.08003,-0.36 q -1.92,0 -3.68,-0.68 -1.72,-0.68 -2.92,-2 l 1.92,-2.52 q 1.12,1.08 2.2,1.6 1.12,0.48 2.12,0.48 0.76,0 1.36,-0.16 0.64,-0.2 1,-0.6 0.4,-0.4 0.4,-1.08 0,-0.8 -0.56,-1.24 -0.56,-0.48 -1.44,-0.76 -0.88,-0.32 -1.84,-0.6 -2.2,-0.68 -3.28,-2 -1.08,-1.32 -1.08,-3.04 0,-1.32 0.68,-2.52 0.68,-1.24 2.08,-2.04 1.4,-0.8 3.52,-0.8 1.92,0 3.32,0.44 1.44,0.4 2.68,1.4 l -1.72,2.68 q -0.72,-0.68 -1.72,-1.04 -0.96,-0.4 -1.76,-0.44 -0.72,-0.04 -1.28,0.2 -0.56,0.2 -0.92,0.6 -0.32,0.4 -0.32,0.92 -0.04,0.8 0.52,1.28 0.6,0.48 1.52,0.76 0.92,0.28 1.84,0.6 1.24,0.36 2.2,1 0.96,0.64 1.48,1.56 0.56,0.88 0.56,2.2 0,1.52 -0.76,2.88 -0.76,1.32 -2.28,2.12 -1.52,0.8 -3.84,0.8 z m 19.92002,0.08 q -3,0 -5.12,-1.16 -2.12,-1.16 -3.24,-3.2 -1.12,-2.08 -1.12,-4.68 0,-2.56 1.28,-4.6 1.28,-2.04 3.44,-3.24 2.2,-1.24 4.84,-1.24 3.48,0 5.72,2.04 2.28,2 3.04,5.68 l -13.64,4.6 -1.04,-2.52 10.64,-3.8 -0.92,0.52 q -0.44,-1.2 -1.44,-2.08 -0.96,-0.88 -2.72,-0.88 -1.4,0 -2.48,0.68 -1.08,0.64 -1.72,1.84 -0.6,1.16 -0.6,2.76 0,1.64 0.68,2.88 0.68,1.24 1.84,1.92 1.16,0.64 2.64,0.64 1.04,0 2,-0.36 0.96,-0.36 1.8,-0.96 l 2.04,3.32 q -1.32,0.84 -2.92,1.36 -1.56,0.48 -3,0.48 z"
             id="Panel/Title"
             style="font-weight:600;font-size:40px;font-family:'Josefin Sans';letter-spacing:0em;white-space:pre;fill:#ffffff"
             aria-label="Pause" />
        </g>
      </g>
    </g>
  </g>
  <defs
     id="defs32">
    <filter
       id="filter0_d_2_320"
       x="336"
       y="320"
       width="608"
       height="168"
       filterUnits="userSpaceOnUse"
       color-interpolation-filters="sRGB">
      <feFlood
         flood-opacity="0"
         result="BackgroundImageFix"
         id="feFlood7" />
      <feColorMatrix
         in="SourceAlpha"
         type="matrix"
         values="0 0 0 0 0 0 0 0 0 0 0 0 0 0 0 0 0 0 127 0"
         result="hardAlpha"
         id="feColorMatrix7" />
      <feOffset
         dy="4"
         id="feOffset7" />
      <feGaussianBlur
         stdDeviation="2"
         id="feGaussianBlur7" />
      <feComposite
         in2="hardAlpha"
         operator="out"
         id="feComposite7" />
      <feColorMatrix
         type="matrix"
         values="0 0 0 0 0 0 0 0 0 0 0 0 0 0 0 0 0 0 0.2 0"
         id="feColorMatrix8" />
      <feBlend
         mode="normal"
         in2="BackgroundImageFix"
         result="effect1_dropShadow_2_320"
         id="feBlend8" />
      <feBlend
         mode="normal"
         in="SourceGraphic"
         in2="effect1_dropShadow_2_320"
         result="shape"
         id="feBlend9" />
    </filter>
    <filter
       id="filter1_d_2_320"
       x="436"
       y="360"
       width="88"
       height="88"
       filterUnits="userSpaceOnUse"
       color-interpolation-filters="sRGB">
      <feFlood
         flood-opacity="0"
         result="BackgroundImageFix"
         id="feFlood9" />
      <feColorMatrix
         in="SourceAlpha"
         type="matrix"
         values="0 0 0 0 0 0 0 0 0 0 0 0 0 0 0 0 0 0 127 0"
         result="hardAlpha"
         id="feColorMatrix9" />
      <feOffset
         dy="4"
         id="feOffset9" />
      <feGaussianBlur
         stdDeviation="2"
         id="feGaussianBlur9" />
      <feComposite
         in2="hardAlpha"
         operator="out"
         id="feComposite9" />
      <feColorMatrix
         type="matrix"
         values="0 0 0 0 0 0 0 0 0 0 0 0 0 0 0 0 0 0 0.2 0"
         id="feColorMatrix10" />
      <feBlend
         mode="normal"
         in2="BackgroundImageFix"
         result="effect1_dropShadow_2_320"
         id="feBlend10" />
      <feBlend
         mode="normal"
         in="SourceGraphic"
         in2="effect1_dropShadow_2_320"
         result="shape"
         id="feBlend11" />
    </filter>
    <filter
       id="filter2_d_2_320"
       x="459"
       y="380"
       width="41.9395"
       height="47.2996"
       filterUnits="userSpaceOnUse"
       color-interpolation-filters="sRGB">
      <feFlood
         flood-opacity="0"
         result="BackgroundImageFix"
         id="feFlood11" />
      <feColorMatrix
         in="SourceAlpha"
         type="matrix"
         values="0 0 0 0 0 0 0 0 0 0 0 0 0 0 0 0 0 0 127 0"
         result="hardAlpha"
         id="feColorMatrix11" />
      <feOffset
         dy="4"
         id="feOffset11" />
      <feGaussianBlur
         stdDeviation="2"
         id="feGaussianBlur11" />
      <feComposite
         in2="hardAlpha"
         operator="out"
         id="feComposite11" />
      <feColorMatrix
         type="matrix"
         values="0 0 0 0 0 0 0 0 0 0 0 0 0 0 0 0 0 0 0.2 0"
         id="feColorMatrix12" />
      <feBlend
         mode="normal"
         in2="BackgroundImageFix"
         result="effect1_dropShadow_2_320"
         id="feBlend12" />
      <feBlend
         mode="normal"
         in="SourceGraphic"
         in2="effect1_dropShadow_2_320"
         result="shape"
         id="feBlend13" />
    </filter>
    <filter
       id="filter3_d_2_320"
       x="556"
       y="360"
       width="168"
       height="88"
       filterUnits="userSpaceOnUse"
       color-interpolation-filters="sRGB">
      <feFlood
         flood-opacity="0"
         result="BackgroundImageFix"
         id="feFlood13" />
      <feColorMatrix
         in="SourceAlpha"
         type="matrix"
         values="0 0 0 0 0 0 0 0 0 0 0 0 0 0 0 0 0 0 127 0"
         result="hardAlpha"
         id="feColorMatrix13" />
      <feOffset
         dy="4"
         id="feOffset13" />
      <feGaussianBlur
         stdDeviation="2"
         id="feGaussianBlur13" />
      <feComposite
         in2="hardAlpha"
         operator="out"
         id="feComposite13" />
      <feColorMatrix
         type="matrix"
         values="0 0 0 0 0 0 0 0 0 0 0 0 0 0 0 0 0 0 0.2 0"
         id="feColorMatrix14" />
      <feBlend
         mode="normal"
         in2="BackgroundImageFix"
         result="effect1_dropShadow_2_320"
         id="feBlend14" />
      <feBlend
         mode="normal"
         in="SourceGraphic"
         in2="effect1_dropShadow_2_320"
         result="shape"
         id="feBlend15" />
    </filter>
    <filter
       id="filter4_d_2_320"
       x="619"
       y="381"
       width="42"
       height="47"
       filterUnits="userSpaceOnUse"
       color-interpolation-filters="sRGB">
      <feFlood
         flood-opacity="0"
         result="BackgroundImageFix"
         id="feFlood15" />
      <feColorMatrix
         in="SourceAlpha"
         type="matrix"
         values="0 0 0 0 0 0 0 0 0 0 0 0 0 0 0 0 0 0 127 0"
         result="hardAlpha"
         id="feColorMatrix15" />
      <feOffset
         dy="4"
         id="feOffset15" />
      <feGaussianBlur
         stdDeviation="2"
         id="feGaussianBlur15" />
      <feComposite
         in2="hardAlpha"
         operator="out"
         id="feComposite15" />
      <feColorMatrix
         type="matrix"
         values="0 0 0 0 0 0 0 0 0 0 0 0 0 0 0 0 0 0 0.2 0"
         id="feColorMatrix16" />
      <feBlend
         mode="normal"
         in2="BackgroundImageFix"
         result="effect1_dropShadow_2_320"
         id="feBlend16" />
      <feBlend
         mode="normal"
         in="SourceGraphic"
         in2="effect1_dropShadow_2_320"
         result="shape"
         id="feBlend17" />
    </filter>
    <filter
       id="filter5_d_2_320"
       x="756"
       y="360"
       width="88"
       height="88"
       filterUnits="userSpaceOnUse"
       color-interpolation-filters="sRGB">
      <feFlood
         flood-opacity="0"
         result="BackgroundImageFix"
         id="feFlood17" />
      <feColorMatrix
         in="SourceAlpha"
         type="matrix"
         values="0 0 0 0 0 0 0 0 0 0 0 0 0 0 0 0 0 0 127 0"
         result="hardAlpha"
         id="feColorMatrix17" />
      <feOffset
         dy="4"
         id="feOffset17" />
      <feGaussianBlur
         stdDeviation="2"
         id="feGaussianBlur17" />
      <feComposite
         in2="hardAlpha"
         operator="out"
         id="feComposite17" />
      <feColorMatrix
         type="matrix"
         values="0 0 0 0 0 0 0 0 0 0 0 0 0 0 0 0 0 0 0.2 0"
         id="feColorMatrix18" />
      <feBlend
         mode="normal"
         in2="BackgroundImageFix"
         result="effect1_dropShadow_2_320"
         id="feBlend18" />
      <feBlend
         mode="normal"
         in="SourceGraphic"
         in2="effect1_dropShadow_2_320"
         result="shape"
         id="feBlend19" />
    </filter>
    <filter
       id="filter6_d_2_320"
       x="776"
       y="380"
       width="23.7139"
       height="17.9998"
       filterUnits="userSpaceOnUse"
       color-interpolation-filters="sRGB">
      <feFlood
         flood-opacity="0"
         result="BackgroundImageFix"
         id="feFlood19" />
      <feColorMatrix
         in="SourceAlpha"
         type="matrix"
         values="0 0 0 0 0 0 0 0 0 0 0 0 0 0 0 0 0 0 127 0"
         result="hardAlpha"
         id="feColorMatrix19" />
      <feOffset
         dy="4"
         id="feOffset19" />
      <feGaussianBlur
         stdDeviation="2"
         id="feGaussianBlur19" />
      <feComposite
         in2="hardAlpha"
         operator="out"
         id="feComposite19" />
      <feColorMatrix
         type="matrix"
         values="0 0 0 0 0 0 0 0 0 0 0 0 0 0 0 0 0 0 0.2 0"
         id="feColorMatrix20" />
      <feBlend
         mode="normal"
         in2="BackgroundImageFix"
         result="effect1_dropShadow_2_320"
         id="feBlend20" />
      <feBlend
         mode="normal"
         in="SourceGraphic"
         in2="effect1_dropShadow_2_320"
         result="shape"
         id="feBlend21" />
    </filter>
    <filter
       id="filter7_d_2_320"
       x="776"
       y="395"
       width="23.7139"
       height="17.9998"
       filterUnits="userSpaceOnUse"
       color-interpolation-filters="sRGB">
      <feFlood
         flood-opacity="0"
         result="BackgroundImageFix"
         id="feFlood21" />
      <feColorMatrix
         in="SourceAlpha"
         type="matrix"
         values="0 0 0 0 0 0 0 0 0 0 0 0 0 0 0 0 0 0 127 0"
         result="hardAlpha"
         id="feColorMatrix21" />
      <feOffset
         dy="4"
         id="feOffset21" />
      <feGaussianBlur
         stdDeviation="2"
         id="feGaussianBlur21" />
      <feComposite
         in2="hardAlpha"
         operator="out"
         id="feComposite21" />
      <feColorMatrix
         type="matrix"
         values="0 0 0 0 0 0 0 0 0 0 0 0 0 0 0 0 0 0 0.2 0"
         id="feColorMatrix22" />
      <feBlend
         mode="normal"
         in2="BackgroundImageFix"
         result="effect1_dropShadow_2_320"
         id="feBlend22" />
      <feBlend
         mode="normal"
         in="SourceGraphic"
         in2="effect1_dropShadow_2_320"
         result="shape"
         id="feBlend23" />
    </filter>
    <filter
       id="filter8_d_2_320"
       x="776"
       y="410"
       width="23.7139"
       height="17.9998"
       filterUnits="userSpaceOnUse"
       color-interpolation-filters="sRGB">
      <feFlood
         flood-opacity="0"
         result="BackgroundImageFix"
         id="feFlood23" />
      <feColorMatrix
         in="SourceAlpha"
         type="matrix"
         values="0 0 0 0 0 0 0 0 0 0 0 0 0 0 0 0 0 0 127 0"
         result="hardAlpha"
         id="feColorMatrix23" />
      <feOffset
         dy="4"
         id="feOffset23" />
      <feGaussianBlur
         stdDeviation="2"
         id="feGaussianBlur23" />
      <feComposite
         in2="hardAlpha"
         operator="out"
         id="feComposite23" />
      <feColorMatrix
         type="matrix"
         values="0 0 0 0 0 0 0 0 0 0 0 0 0 0 0 0 0 0 0.2 0"
         id="feColorMatrix24" />
      <feBlend
         mode="normal"
         in2="BackgroundImageFix"
         result="effect1_dropShadow_2_320"
         id="feBlend24" />
      <feBlend
         mode="normal"
         in="SourceGraphic"
         in2="effect1_dropShadow_2_320"
         result="shape"
         id="feBlend25" />
    </filter>
    <filter
       id="filter9_d_2_320"
       x="800.286"
       y="380"
       width="23.7139"
       height="17.9998"
       filterUnits="userSpaceOnUse"
       color-interpolation-filters="sRGB">
      <feFlood
         flood-opacity="0"
         result="BackgroundImageFix"
         id="feFlood25" />
      <feColorMatrix
         in="SourceAlpha"
         type="matrix"
         values="0 0 0 0 0 0 0 0 0 0 0 0 0 0 0 0 0 0 127 0"
         result="hardAlpha"
         id="feColorMatrix25" />
      <feOffset
         dy="4"
         id="feOffset25" />
      <feGaussianBlur
         stdDeviation="2"
         id="feGaussianBlur25" />
      <feComposite
         in2="hardAlpha"
         operator="out"
         id="feComposite25" />
      <feColorMatrix
         type="matrix"
         values="0 0 0 0 0 0 0 0 0 0 0 0 0 0 0 0 0 0 0.2 0"
         id="feColorMatrix26" />
      <feBlend
         mode="normal"
         in2="BackgroundImageFix"
         result="effect1_dropShadow_2_320"
         id="feBlend26" />
      <feBlend
         mode="normal"
         in="SourceGraphic"
         in2="effect1_dropShadow_2_320"
         result="shape"
         id="feBlend27" />
    </filter>
    <filter
       id="filter10_d_2_320"
       x="800.286"
       y="395"
       width="23.7139"
       height="17.9998"
       filterUnits="userSpaceOnUse"
       color-interpolation-filters="sRGB">
      <feFlood
         flood-opacity="0"
         result="BackgroundImageFix"
         id="feFlood27" />
      <feColorMatrix
         in="SourceAlpha"
         type="matrix"
         values="0 0 0 0 0 0 0 0 0 0 0 0 0 0 0 0 0 0 127 0"
         result="hardAlpha"
         id="feColorMatrix27" />
      <feOffset
         dy="4"
         id="feOffset27" />
      <feGaussianBlur
         stdDeviation="2"
         id="feGaussianBlur27" />
      <feComposite
         in2="hardAlpha"
         operator="out"
         id="feComposite27" />
      <feColorMatrix
         type="matrix"
         values="0 0 0 0 0 0 0 0 0 0 0 0 0 0 0 0 0 0 0.2 0"
         id="feColorMatrix28" />
      <feBlend
         mode="normal"
         in2="BackgroundImageFix"
         result="effect1_dropShadow_2_320"
         id="feBlend28" />
      <feBlend
         mode="normal"
         in="SourceGraphic"
         in2="effect1_dropShadow_2_320"
         result="shape"
         id="feBlend29" />
    </filter>
    <filter
       id="filter11_d_2_320"
       x="800.286"
       y="410"
       width="23.7139"
       height="17.9998"
       filterUnits="userSpaceOnUse"
       color-interpolation-filters="sRGB">
      <feFlood
         flood-opacity="0"
         result="BackgroundImageFix"
         id="feFlood29" />
      <feColorMatrix
         in="SourceAlpha"
         type="matrix"
         values="0 0 0 0 0 0 0 0 0 0 0 0 0 0 0 0 0 0 127 0"
         result="hardAlpha"
         id="feColorMatrix29" />
      <feOffset
         dy="4"
         id="feOffset29" />
      <feGaussianBlur
         stdDeviation="2"
         id="feGaussianBlur29" />
      <feComposite
         in2="hardAlpha"
         operator="out"
         id="feComposite29" />
      <feColorMatrix
         type="matrix"
         values="0 0 0 0 0 0 0 0 0 0 0 0 0 0 0 0 0 0 0.2 0"
         id="feColorMatrix30" />
      <feBlend
         mode="normal"
         in2="BackgroundImageFix"
         result="effect1_dropShadow_2_320"
         id="feBlend30" />
      <feBlend
         mode="normal"
         in="SourceGraphic"
         in2="effect1_dropShadow_2_320"
         result="shape"
         id="feBlend31" />
    </filter>
    <clipPath
       id="clip0_2_320">
      <rect
         width="1280"
         height="720"
         fill="white"
         id="rect31" />
    </clipPath>
    <clipPath
       id="clip1_2_320">
      <rect
         width="1280"
         height="720"
         fill="white"
         id="rect32" />
    </clipPath>
  </defs>
</svg>
