<?xml version="1.0" encoding="UTF-8" standalone="no"?>
<svg
   width="57"
   height="57"
   viewBox="0 0 70 57"
   fill="none"
   version="1.1"
   id="svg2"
   sodipodi:docname="Cross.svg"
   inkscape:version="1.4.2 (f4327f4, 2025-05-13)"
   xmlns:inkscape="http://www.inkscape.org/namespaces/inkscape"
   xmlns:sodipodi="http://sodipodi.sourceforge.net/DTD/sodipodi-0.dtd"
   xmlns="http://www.w3.org/2000/svg"
   xmlns:svg="http://www.w3.org/2000/svg">
  <defs
     id="defs2" />
  <sodipodi:namedview
     id="namedview2"
     pagecolor="#ffffff"
     bordercolor="#000000"
     borderopacity="0.25"
     inkscape:showpageshadow="2"
     inkscape:pageopacity="0.0"
     inkscape:pagecheckerboard="0"
     inkscape:deskcolor="#d1d1d1"
     inkscape:zoom="1.2513929"
     inkscape:cx="-23.573731"
     inkscape:cy="-93.895371"
     inkscape:window-width="1920"
     inkscape:window-height="1009"
     inkscape:window-x="-8"
     inkscape:window-y="-8"
     inkscape:window-maximized="1"
     inkscape:current-layer="svg2" />
  <path
     d="m 2.94994,-3.5500572 c -3.93325333,3.93350703 -3.93325333,10.3110172 0,14.2445252 L 20.755207,28.500001 2.94994,46.305534 c -3.93325333,3.933505 -3.93325333,10.310766 0,14.244275 3.9332545,3.933505 10.31076,3.933505 14.244763,0 L 34.999969,42.744276 52.805486,60.550059 c 3.933252,3.933255 10.310757,3.933255 14.244011,0 3.934004,-3.933759 3.934004,-10.31102 0,-14.244525 L 49.244231,28.500001 67.049497,10.694468 c 3.934004,-3.933508 3.934004,-10.31101817 0,-14.2445253 -3.933254,-3.9332569 -10.310759,-3.9332569 -14.244011,0 L 34.999969,14.255477 17.194703,-3.5500572 c -3.934003,-3.933257 -10.3110086,-3.933257 -14.244763,0 z"
     fill="#000000"
     id="path2"
     style="stroke-width:2.50001;fill:#1a1a1a" />
</svg>
