<?xml version="1.0" encoding="UTF-8" standalone="no"?>
<svg
   width="42"
   height="57"
   viewBox="0 0 42 57"
   fill="none"
   version="1.1"
   id="svg1"
   sodipodi:docname="Locker.svg"
   xmlns:inkscape="http://www.inkscape.org/namespaces/inkscape"
   xmlns:sodipodi="http://sodipodi.sourceforge.net/DTD/sodipodi-0.dtd"
   xmlns="http://www.w3.org/2000/svg"
   xmlns:svg="http://www.w3.org/2000/svg">
  <defs
     id="defs1" />
  <sodipodi:namedview
     id="namedview1"
     pagecolor="#ffffff"
     bordercolor="#000000"
     borderopacity="0.25"
     inkscape:showpageshadow="2"
     inkscape:pageopacity="0.0"
     inkscape:pagecheckerboard="0"
     inkscape:deskcolor="#d1d1d1" />
  <path
     fill-rule="evenodd"
     clip-rule="evenodd"
     d="M29.1375 18.6667H12.8607V13.3333C12.8607 8.8 16.5375 5.06667 21 5.06667C25.4608 5.06667 29.1375 8.8 29.1375 13.3333V18.6667ZM21 42.6667C18.1107 42.6667 15.75 40.2667 15.75 37.3333C15.75 34.4 18.1107 32 21 32C23.8875 32 26.25 34.4 26.25 37.3333C26.25 40.2667 23.8875 42.6667 21 42.6667ZM36.75 18.6667H34.125V13.3333C34.125 5.86667 28.35 0 21 0C13.6482 0 7.875 5.86667 7.875 13.3333V18.6667H5.25C2.36075 18.6667 0 21.0667 0 24V50.6667C0 53.6 2.36075 56 5.25 56H36.75C39.6375 56 42 53.6 42 50.6667V24C42 21.0667 39.6375 18.6667 36.75 18.6667Z"
     fill="black"
     id="path1" />
</svg>
