<?xml version="1.0" encoding="UTF-8" standalone="no"?>
<svg
   version="1.1"
   id="svg441"
   xml:space="preserve"
   width="161.43799"
   height="69.471527"
   sodipodi:docname="eyes-1.svg"
   xmlns:inkscape="http://www.inkscape.org/namespaces/inkscape"
   xmlns:sodipodi="http://sodipodi.sourceforge.net/DTD/sodipodi-0.dtd"
   xmlns="http://www.w3.org/2000/svg"
   xmlns:svg="http://www.w3.org/2000/svg"><sodipodi:namedview
     id="namedview1"
     pagecolor="#ffffff"
     bordercolor="#000000"
     borderopacity="0.25"
     inkscape:showpageshadow="2"
     inkscape:pageopacity="0.0"
     inkscape:pagecheckerboard="0"
     inkscape:deskcolor="#d1d1d1" /><defs
     id="defs1" /><g
     id="layer2"
     transform="translate(-2805.9773,-9.181572)"><g
       id="g486"><g
         id="g481"
         transform="translate(160.5948,-14.869888)"><g
           id="g460"
           transform="translate(1166.8206,106.52299)"><path
             stroke="none"
             fill="#ffffff"
             d="m 1639.95,-47.5 q -0.85,11.7 -9.3,20.15 -9.4,9.35 -22.65,9.35 -13.3,0 -22.65,-9.35 -8.45,-8.45 -9.25,-20.15 L 1576,-50 q 0,-13.25 9.35,-22.6 9.35,-9.4 22.65,-9.4 13.25,0 22.65,9.4 9.35,9.35 9.35,22.6 l -0.05,2.5 M 1621,-47 q 0,-7.85 -5.55,-13.4 Q 1609.9,-66 1602,-66 l -3.9,0.4 q -5.4,1.05 -9.5,5.2 -5.6,5.55 -5.6,13.4 0,7.9 5.6,13.45 5.55,5.55 13.4,5.55 7.15,0 12.4,-4.55 l 1.05,-1 Q 1621,-39.1 1621,-47"
             id="path71-5" /><path
             stroke="none"
             fill="#33291e"
             d="m 1609.65,-50 q 0,-1.9 -1.3,-3.25 -1.4,-1.4 -3.35,-1.4 -1.9,0 -3.3,1.4 -1.35,1.35 -1.35,3.25 0,1.95 1.35,3.35 1.4,1.3 3.3,1.3 1.95,0 3.35,-1.3 1.3,-1.4 1.3,-3.35 m 4.1,3 q 0,4.9 -3.35,8.35 -3.5,3.4 -8.4,3.4 -4.9,0 -8.35,-3.4 -3.4,-3.45 -3.4,-8.35 0,-4.85 3.4,-8.3 3.45,-3.45 8.35,-3.45 4.9,0 8.4,3.45 3.35,3.45 3.35,8.3"
             id="path72-1" /><path
             stroke="none"
             fill="#4f3f2f"
             d="m 1609.65,-50 q 0,1.95 -1.3,3.35 -1.4,1.3 -3.35,1.3 -1.9,0 -3.3,-1.3 -1.35,-1.4 -1.35,-3.35 0,-1.9 1.35,-3.25 1.4,-1.4 3.3,-1.4 1.95,0 3.35,1.4 1.3,1.35 1.3,3.25"
             id="path73-7" /><path
             stroke="none"
             fill="#43d7e5"
             d="m 1613.75,-47 q 0,-4.85 -3.35,-8.3 -3.5,-3.45 -8.4,-3.45 -4.9,0 -8.35,3.45 -3.4,3.45 -3.4,8.3 0,4.9 3.4,8.35 3.45,3.4 8.35,3.4 4.9,0 8.4,-3.4 3.35,-3.45 3.35,-8.35 m 7.25,0 q 0,7.9 -5.55,13.45 l -1.05,1 q -5.25,4.55 -12.4,4.55 -7.85,0 -13.4,-5.55 -5.6,-5.55 -5.6,-13.45 0,-7.85 5.6,-13.4 4.1,-4.15 9.5,-5.2 l 3.9,-0.4 q 7.9,0 13.45,5.6 5.55,5.55 5.55,13.4"
             id="path74-1" /><path
             stroke="none"
             fill="#000000"
             fill-opacity="0.101961"
             d="m 1639.95,-47.5 0.05,2.5 q 0,13.3 -9.35,22.65 -9.4,9.35 -22.65,9.35 -13.3,0 -22.65,-9.35 Q 1576,-31.7 1576,-45 l 0.1,-2.5 q 0.8,11.7 9.25,20.15 9.35,9.35 22.65,9.35 13.25,0 22.65,-9.35 8.45,-8.45 9.3,-20.15"
             id="path75-1" /></g><g
           id="g463"
           transform="translate(15.246169)"><g
             id="g462"><path
               stroke="none"
               fill="#33291e"
               d="m 2660.4864,56.05146 q 0,-1.9 1.3,-3.25 1.4,-1.4 3.35,-1.4 1.9,0 3.3,1.4 1.35,1.35 1.35,3.25 0,1.95 -1.35,3.35 -1.4,1.3 -3.3,1.3 -1.95,0 -3.35,-1.3 -1.3,-1.4 -1.3,-3.35 m -4.1,3 q 0,4.9 3.35,8.35 3.5,3.4 8.4,3.4 4.9,0 8.35,-3.4 3.4,-3.45 3.4,-8.35 0,-4.85 -3.4,-8.3 -3.45,-3.45 -8.35,-3.45 -4.9,0 -8.4,3.45 -3.35,3.45 -3.35,8.3"
               id="path72-1-2" /><path
               stroke="none"
               fill="#4f3f2f"
               d="m 2660.4864,56.05146 q 0,1.95 1.3,3.35 1.4,1.3 3.35,1.3 1.9,0 3.3,-1.3 1.35,-1.4 1.35,-3.35 0,-1.9 -1.35,-3.25 -1.4,-1.4 -3.3,-1.4 -1.95,0 -3.35,1.4 -1.3,1.35 -1.3,3.25"
               id="path73-7-3" /><g
               id="g461"><path
                 stroke="none"
                 fill="#ffffff"
                 d="m 2630.1864,58.55146 q 0.85,11.7 9.3,20.15 9.4,9.35 22.65,9.35 13.3,0 22.65,-9.35 8.45,-8.45 9.25,-20.15 l 0.1,-2.5 q 0,-13.25 -9.35,-22.6 -9.35,-9.4 -22.65,-9.4 -13.25,0 -22.65,9.4 -9.35,9.35 -9.35,22.6 l 0.05,2.5 m 18.95,0.5 q 0,-7.85 5.55,-13.4 5.55,-5.6 13.45,-5.6 l 3.9,0.4 q 5.4,1.05 9.5,5.2 5.6,5.55 5.6,13.4 0,7.9 -5.6,13.45 -5.55,5.55 -13.4,5.55 -7.15,0 -12.4,-4.55 l -1.05,-1 q -5.55,-5.55 -5.55,-13.45"
                 id="path71-5-4" /><path
                 stroke="none"
                 fill="#43d7e5"
                 d="m 2656.3864,59.05146 q 0,-4.85 3.35,-8.3 3.5,-3.45 8.4,-3.45 4.9,0 8.35,3.45 3.4,3.45 3.4,8.3 0,4.9 -3.4,8.35 -3.45,3.4 -8.35,3.4 -4.9,0 -8.4,-3.4 -3.35,-3.45 -3.35,-8.35 m -7.25,0 q 0,7.9 5.55,13.45 l 1.05,1 q 5.25,4.55 12.4,4.55 7.85,0 13.4,-5.55 5.6,-5.55 5.6,-13.45 0,-7.85 -5.6,-13.4 -4.1,-4.15 -9.5,-5.2 l -3.9,-0.4 q -7.9,0 -13.45,5.6 -5.55,5.55 -5.55,13.4"
                 id="path74-1-2" /></g></g><path
             stroke="none"
             fill="#000000"
             fill-opacity="0.101961"
             d="m 2630.1864,58.55146 -0.05,2.5 q 0,13.3 9.35,22.65 9.4,9.35 22.65,9.35 13.3,0 22.65,-9.35 9.35,-9.35 9.35,-22.65 l -0.1,-2.5 q -0.8,11.7 -9.25,20.15 -9.35,9.35 -22.65,9.35 -13.25,0 -22.65,-9.35 -8.45,-8.45 -9.3,-20.15"
             id="path75-1-2" /></g></g></g></g></svg>
