<?xml version="1.0" encoding="UTF-8" standalone="no"?>
<svg
   version="1.1"
   id="svg441"
   xml:space="preserve"
   width="80"
   height="24.018738"
   sodipodi:docname="mouth-2.svg"
   xmlns:inkscape="http://www.inkscape.org/namespaces/inkscape"
   xmlns:sodipodi="http://sodipodi.sourceforge.net/DTD/sodipodi-0.dtd"
   xmlns="http://www.w3.org/2000/svg"
   xmlns:svg="http://www.w3.org/2000/svg"><sodipodi:namedview
     id="namedview1"
     pagecolor="#ffffff"
     bordercolor="#000000"
     borderopacity="0.25"
     inkscape:showpageshadow="2"
     inkscape:pageopacity="0.0"
     inkscape:pagecheckerboard="0"
     inkscape:deskcolor="#d1d1d1" /><defs
     id="defs1" /><g
     id="layer2"
     transform="translate(-3566.2007,-143.47585)"><g
       id="g485"><path
         stroke="none"
         fill="#33291e"
         d="m 3631.4508,161.14459 h 0.1 q -10.55,6.35 -25.4,6.35 -14.8,0 -25.35,-6.35 -4.05,-2.5 -6.6,-5.3 -5.45,0.1 -8,-4.4 l 1.1,-0.25 1.4,-0.6 1.75,-1.25 q 1.45,-1.45 2.1,-3.25 0.4,-1.45 1.8,-2.15 1.4,-0.75 2.9,-0.3 1.45,0.35 2.3,1.65 0.7,1.35 0.3,2.8 l -0.75,1.95 1.2,1.4 q 1.85,1.85 4.55,3.55 8.9,5.3 21.3,5.3 12.45,0 21.25,-5.3 2.75,-1.7 4.65,-3.55 l 1.25,-1.45 -0.7,-1.9 q -0.45,-1.45 0.35,-2.8 0.75,-1.3 2.25,-1.65 1.5,-0.45 2.85,0.3 1.4,0.7 1.85,2.15 0.6,1.8 2.1,3.25 l 1.7,1.25 q 1.15,0.6 2.5,0.85 -1.45,4.55 -8,4.35 -2.65,2.85 -6.75,5.35"
         id="path62-2" /></g></g></svg>
