<?xml version="1.0" encoding="UTF-8" standalone="no"?>
<svg
   version="1.1"
   id="svg441"
   xml:space="preserve"
   width="127.57764"
   height="19.542702"
   sodipodi:docname="eyes-1.svg"
   xmlns:inkscape="http://www.inkscape.org/namespaces/inkscape"
   xmlns:sodipodi="http://sodipodi.sourceforge.net/DTD/sodipodi-0.dtd"
   xmlns="http://www.w3.org/2000/svg"
   xmlns:svg="http://www.w3.org/2000/svg"><sodipodi:namedview
     id="namedview1"
     pagecolor="#ffffff"
     bordercolor="#000000"
     borderopacity="0.25"
     inkscape:showpageshadow="2"
     inkscape:pageopacity="0.0"
     inkscape:pagecheckerboard="0"
     inkscape:deskcolor="#d1d1d1" /><defs
     id="defs1" /><g
     id="layer2"
     transform="translate(-4294.4238,-37.335365)"><g
       id="g484"><path
         stroke="none"
         fill="#33291e"
         d="m 4299.3161,45.578067 q 6.7,-6.5 16.1,-6.5 9.5,0 16.2,6.5 2.75,2.7 4.4,5.9 0.7,1.45 0.2,3 -0.55,1.45 -1.95,2.15 l -3,0.25 q -1.6,-0.5 -2.25,-1.95 -1.15,-2.15 -3,-3.9 -4.35,-4.3 -10.6,-4.3 -6.2,0 -10.55,4.3 -1.85,1.75 -2.9,3.9 -0.75,1.45 -2.3,1.95 l -3,-0.25 q -1.45,-0.7 -2.05,-2.15 -0.5,-1.55 0.3,-3 1.6,-3.2 4.4,-5.9"
         id="path64-3" /><path
         stroke="none"
         fill="#33291e"
         d="m 4384.8933,43.835366 q 6.7,-6.5 16.1,-6.5 9.5,0 16.2,6.5 2.75,2.7 4.4,5.9 0.7,1.45 0.2,3 -0.55,1.45 -1.95,2.15 l -3,0.25 q -1.6,-0.5 -2.25,-1.95 -1.15,-2.15 -3,-3.9 -4.35,-4.3 -10.6,-4.3 -6.2,0 -10.55,4.3 -1.85,1.75 -2.9,3.9 -0.75,1.45 -2.3,1.95 l -3,-0.25 q -1.45,-0.7 -2.05,-2.15 -0.5,-1.55 0.3,-3 1.6,-3.2 4.4,-5.9"
         id="path64-8" /></g></g></svg>
