<?xml version="1.0" encoding="UTF-8" standalone="no"?>
<svg
   version="1.1"
   id="svg441"
   xml:space="preserve"
   width="72"
   height="48"
   xmlns="http://www.w3.org/2000/svg"
   xmlns:svg="http://www.w3.org/2000/svg"><defs
     id="defs1" /><g
     id="layer2"
     transform="translate(-2860.3049,-979.66541)"><g
       id="g487"><g
         id="g479"
         transform="translate(384.30483,353.66543)"><path
           stroke="none"
           fill="#ffffff"
           d="m 2492.3,631.5 q 8.1,-5.2 18.45,-5.5 h 2.5 q 10.25,0.3 18.55,5.55 -0.7,1.4 -2.35,2.3 l -1.7,0.9 -2.5,4.95 -0.65,0.55 h -1.1 l -0.7,-0.55 -1.8,-3.65 q -9,1.15 -17.85,0.1 l -1.8,3.55 -0.7,0.55 h -1 l -0.7,-0.55 -2.5,-4.9 -1.5,-0.8 q -1.95,-0.9 -2.65,-2.5"
           id="path120-5" /><path
           stroke="none"
           fill="#33291e"
           d="m 2492.3,631.5 q 0.7,1.6 2.65,2.5 l 1.5,0.8 2.5,4.9 0.7,0.55 h 1 l 0.7,-0.55 1.8,-3.55 q 8.85,1.05 17.85,-0.1 l 1.8,3.65 0.7,0.55 h 1.1 l 0.65,-0.55 2.5,-4.95 1.7,-0.9 q 1.65,-0.9 2.35,-2.3 2.9,1.95 5.6,4.55 10.35,9.9 10.6,23.75 v 0.3 q 0,5.2 -8.75,9.05 -1.2,-1.75 -2.95,-3.35 -5.65,-5.5 -13.8,-5.5 -5.9,0 -10.5,2.9 -4.65,-2.9 -10.6,-2.9 -8.1,0 -13.85,5.5 -1.65,1.6 -2.85,3.35 -3.4,-1.5 -5.5,-3.25 -3.2,-2.65 -3.2,-5.8 v -0.3 q 0.15,-7.5 3.2,-13.8 2.6,-5.4 7.3,-9.95 2.75,-2.65 5.8,-4.6"
           id="path121-3" /><path
           stroke="none"
           fill="#ff4362"
           d="m 2539.25,669.2 -1.85,0.75 q -7.5,2.9 -17.1,3.7 l -8.3,0.35 -8.2,-0.35 q -9.8,-0.8 -17.3,-3.7 l -1.8,-0.75 q 1.2,-1.75 2.85,-3.35 5.75,-5.5 13.85,-5.5 5.95,0 10.6,2.9 4.6,-2.9 10.5,-2.9 8.15,0 13.8,5.5 1.75,1.6 2.95,3.35"
           id="path122-6" /></g></g></g></svg>
