<?xml version="1.0" encoding="UTF-8" standalone="no"?>
<svg
   version="1.1"
   id="svg441"
   xml:space="preserve"
   width="66.009766"
   height="26.054085"
   sodipodi:docname="mouth-1.svg"
   xmlns:inkscape="http://www.inkscape.org/namespaces/inkscape"
   xmlns:sodipodi="http://sodipodi.sourceforge.net/DTD/sodipodi-0.dtd"
   xmlns="http://www.w3.org/2000/svg"
   xmlns:svg="http://www.w3.org/2000/svg"><sodipodi:namedview
     id="namedview1"
     pagecolor="#ffffff"
     bordercolor="#000000"
     borderopacity="0.25"
     inkscape:showpageshadow="2"
     inkscape:pageopacity="0.0"
     inkscape:pagecheckerboard="0"
     inkscape:deskcolor="#d1d1d1" /><defs
     id="defs1" /><g
     id="layer2"
     transform="translate(-5876.8799,-122.35763)"><g
       id="g482"><g
         id="g478"
         transform="translate(442.37379,87.379888)"><path
           stroke="none"
           fill="#33291e"
           d="m 5460.4572,35.477738 7.05,-0.5 q 6.1,0 11.6,1.45 10.45,2.65 18.8,10.4 2.5,2.3 2.6,5.7 0.15,3.4 -2.25,5.85 -2.35,2.5 -5.75,2.65 -3.45,0.1 -5.95,-2.25 l -3.5,-2.75 v -6.3 q 0,-1.75 -1.8,-1.75 h -4.85 -0.2 q -3.65,-4 -8.7,-4 -5.5,0 -9.35,4.75 -2,2.5 -2.9,5.45 -3.65,1.75 -6.75,4.6 -2.55,2.35 -5.9,2.25 -3.5,-0.15 -5.8,-2.65 -2.35,-2.45 -2.3,-5.85 0.1,-3.4 2.6,-5.7 6.75,-6.2 14.85,-9.15 v 3.25 q 0,1.8 1.8,1.8 h 4.85 q 1.85,0 1.85,-1.8 v -5.45"
           id="path114-5" /><path
           stroke="none"
           fill="#ffffff"
           d="m 5460.4572,35.477738 v 5.45 q 0,1.8 -1.85,1.8 h -4.85 q -1.8,0 -1.8,-1.8 v -3.25 q 1.9,-0.75 3.95,-1.25 l 4.55,-0.95 m 15.75,12.5 h 0.2 4.85 q 1.8,0 1.8,1.75 v 6.3 l -3.2,-1.85 q -2.5,-1.3 -5.25,-1.9 v -2.55 q 0,-1.65 1.6,-1.75"
           id="path115-5" /><path
           stroke="none"
           fill="#ff4362"
           d="m 5476.2072,47.977738 q -1.6,0.1 -1.6,1.75 v 2.55 l -7.1,-0.8 q -6.7,0 -12.25,2.7 0.9,-2.95 2.9,-5.45 3.85,-4.75 9.35,-4.75 5.05,0 8.7,4"
           id="path116-4" /></g></g></g></svg>
