<?xml version="1.0" encoding="UTF-8" standalone="no"?>
<svg
   width="29"
   height="28"
   viewBox="0 0 29 28"
   fill="none"
   version="1.1"
   id="svg3"
   sodipodi:docname="Active.svg"
   xmlns:inkscape="http://www.inkscape.org/namespaces/inkscape"
   xmlns:sodipodi="http://sodipodi.sourceforge.net/DTD/sodipodi-0.dtd"
   xmlns="http://www.w3.org/2000/svg"
   xmlns:svg="http://www.w3.org/2000/svg">
  <sodipodi:namedview
     id="namedview3"
     pagecolor="#ffffff"
     bordercolor="#000000"
     borderopacity="0.25"
     inkscape:showpageshadow="2"
     inkscape:pageopacity="0.0"
     inkscape:pagecheckerboard="0"
     inkscape:deskcolor="#d1d1d1" />
  <g
     id="Star/Small/Active">
    <g
       id="StarIcon"
       filter="url(#filter0_d_2_902)">
      <path
         d="M12.9417 1.03626C13.3872 -0.34542 15.327 -0.34542 15.7726 1.03626L17.1973 5.4548C17.3965 6.07271 17.9679 6.49106 18.6127 6.49106H23.2232C24.6649 6.49106 25.2643 8.3501 24.098 9.20403L20.368 11.9348C19.8464 12.3167 19.6281 12.9936 19.8273 13.6115L21.2521 18.0301C21.6976 19.4118 20.1282 20.5607 18.9619 19.7068L15.2319 16.976C14.7103 16.5941 14.004 16.5941 13.4824 16.976L9.7524 19.7068C8.58604 20.5607 7.01671 19.4118 7.46222 18.0301L8.88694 13.6115C9.08618 12.9936 8.86791 12.3167 8.3463 11.9348L4.61633 9.20403C3.44997 8.3501 4.0494 6.49106 5.4911 6.49106H10.1016C10.7463 6.49106 11.3178 6.07271 11.517 5.4548L12.9417 1.03626Z"
         fill="#E52554"
         id="path1" />
    </g>
  </g>
  <defs
     id="defs3">
    <filter
       id="filter0_d_2_902"
       x="0"
       y="0"
       width="28.7144"
       height="28"
       filterUnits="userSpaceOnUse"
       color-interpolation-filters="sRGB">
      <feFlood
         flood-opacity="0"
         result="BackgroundImageFix"
         id="feFlood1" />
      <feColorMatrix
         in="SourceAlpha"
         type="matrix"
         values="0 0 0 0 0 0 0 0 0 0 0 0 0 0 0 0 0 0 127 0"
         result="hardAlpha"
         id="feColorMatrix1" />
      <feOffset
         dy="4"
         id="feOffset1" />
      <feGaussianBlur
         stdDeviation="2"
         id="feGaussianBlur1" />
      <feComposite
         in2="hardAlpha"
         operator="out"
         id="feComposite1" />
      <feColorMatrix
         type="matrix"
         values="0 0 0 0 0 0 0 0 0 0 0 0 0 0 0 0 0 0 0.2 0"
         id="feColorMatrix2" />
      <feBlend
         mode="normal"
         in2="BackgroundImageFix"
         result="effect1_dropShadow_2_902"
         id="feBlend2" />
      <feBlend
         mode="normal"
         in="SourceGraphic"
         in2="effect1_dropShadow_2_902"
         result="shape"
         id="feBlend3" />
    </filter>
  </defs>
</svg>
