<?xml version="1.0" encoding="UTF-8" standalone="no"?>
<svg
   width="445"
   height="383"
   viewBox="0 0 445 383"
   fill="none"
   version="1.1"
   id="svg10"
   sodipodi:docname="Button.svg"
   xmlns:inkscape="http://www.inkscape.org/namespaces/inkscape"
   xmlns:sodipodi="http://sodipodi.sourceforge.net/DTD/sodipodi-0.dtd"
   xmlns="http://www.w3.org/2000/svg"
   xmlns:svg="http://www.w3.org/2000/svg">
  <sodipodi:namedview
     id="namedview10"
     pagecolor="#ffffff"
     bordercolor="#000000"
     borderopacity="0.25"
     inkscape:showpageshadow="2"
     inkscape:pageopacity="0.0"
     inkscape:pagecheckerboard="0"
     inkscape:deskcolor="#d1d1d1" />
  <g
     id="Button_Preview">
    <g
       id="ColumnGroup">
      <g
         id="Title">
        <rect
           x="50"
           y="50"
           width="143"
           height="24"
           rx="4"
           fill="#FED70A"
           id="rect1" />
        <path
           d="M 59.025391,66.8535 V 56.832016 h 3.759765 q 1.148438,0 1.838867,0.307617 0.697266,0.300781 1.086914,0.936524 0.396485,0.628906 0.396485,1.319336 0,0.642578 -0.348633,1.20996 -0.348633,0.567383 -1.052734,0.916016 0.909179,0.266602 1.394531,0.90918 0.492187,0.642578 0.492187,1.517578 0,0.704101 -0.300781,1.3125 -0.293945,0.601562 -0.731445,0.929687 -0.4375,0.328125 -1.100586,0.499024 -0.65625,0.164062 -1.613281,0.164062 z m 1.326171,-5.810547 h 2.166993 q 0.881836,0 1.264648,-0.11621 0.505859,-0.150391 0.758789,-0.499024 0.259766,-0.348633 0.259766,-0.875 0,-0.499023 -0.239258,-0.875 -0.239258,-0.382812 -0.683594,-0.519531 -0.444336,-0.143555 -1.524414,-0.143555 h -2.00293 z m 0,4.62793 h 2.495118 q 0.642578,0 0.902343,-0.04785 0.458008,-0.08203 0.765625,-0.273438 0.307618,-0.191406 0.50586,-0.553711 0.198242,-0.36914 0.198242,-0.847656 0,-0.560547 -0.287109,-0.970703 -0.28711,-0.416992 -0.799805,-0.581055 -0.505859,-0.170898 -1.462891,-0.170898 H 60.351562 Z M 73.018555,66.8535 v -1.066406 q -0.847657,1.230469 -2.303711,1.230469 -0.642578,0 -1.203125,-0.246094 -0.553711,-0.246094 -0.827149,-0.615234 -0.266601,-0.375977 -0.375976,-0.916016 -0.0752,-0.362305 -0.0752,-1.148437 v -4.498047 h 1.230469 v 4.026367 q 0,0.963867 0.0752,1.298828 0.116211,0.485352 0.492188,0.765625 0.375977,0.273438 0.929687,0.273438 0.553711,0 1.039063,-0.280274 0.485352,-0.287109 0.683594,-0.772461 0.205078,-0.492187 0.205078,-1.421875 v -3.889648 h 1.230469 V 66.8535 Z m 5.714843,-1.100586 0.177735,1.086914 q -0.519531,0.109375 -0.929688,0.109375 -0.669922,0 -1.039062,-0.211914 -0.369141,-0.211914 -0.519531,-0.553711 -0.150391,-0.348632 -0.150391,-1.456054 v -4.176758 h -0.902344 v -0.957031 h 0.902344 v -1.797852 l 1.223633,-0.738281 v 2.536133 h 1.237304 v 0.957031 h -1.237304 v 4.245117 q 0,0.526367 0.06152,0.676758 0.06836,0.150391 0.211914,0.239258 0.150391,0.08887 0.423828,0.08887 0.205078,0 0.540039,-0.04785 z m 3.889649,0 0.177734,1.086914 q -0.519531,0.109375 -0.929687,0.109375 -0.669922,0 -1.039063,-0.211914 -0.36914,-0.211914 -0.519531,-0.553711 -0.150391,-0.348632 -0.150391,-1.456054 v -4.176758 h -0.902343 v -0.957031 h 0.902343 v -1.797852 l 1.223633,-0.738281 v 2.536133 h 1.237305 v 0.957031 h -1.237305 v 4.245117 q 0,0.526367 0.06152,0.676758 0.06836,0.150391 0.211914,0.239258 0.15039,0.08887 0.423828,0.08887 0.205078,0 0.540039,-0.04785 z m 0.745117,-2.529296 q 0,-2.016602 1.121094,-2.987305 0.936523,-0.806641 2.283203,-0.806641 1.49707,0 2.447266,0.984375 0.950195,0.977539 0.950195,2.707031 0,1.401368 -0.423828,2.208008 -0.416992,0.799805 -1.223633,1.244141 -0.799805,0.444336 -1.75,0.444336 -1.524414,0 -2.467774,-0.977539 -0.936523,-0.977539 -0.936523,-2.816406 z m 1.264648,0 q 0,1.394531 0.608399,2.091796 0.608398,0.69043 1.53125,0.69043 0.916016,0 1.524414,-0.697266 0.608398,-0.697265 0.608398,-2.125976 0,-1.34668 -0.615234,-2.037109 -0.608398,-0.697266 -1.517578,-0.697266 -0.922852,0 -1.53125,0.69043 -0.608399,0.690429 -0.608399,2.084961 z m 6.979493,3.629882 v -7.259765 h 1.107422 v 1.032226 q 0.799804,-1.196289 2.310546,-1.196289 0.65625,0 1.203125,0.239258 0.553711,0.232422 0.827149,0.615234 0.273437,0.382813 0.382812,0.90918 0.06836,0.341797 0.06836,1.196289 V 66.8535 H 96.28125 v -4.416015 q 0,-0.751953 -0.143555,-1.121094 -0.143554,-0.375977 -0.512695,-0.594727 -0.362305,-0.225586 -0.854492,-0.225586 -0.786133,0 -1.360352,0.499024 -0.567383,0.499023 -0.567383,1.893555 V 66.8535 Z m 6.863281,0.170899 2.905274,-10.363281 h 0.98437 L 99.466797,67.024399 Z M 103.46582,66.8535 V 56.832016 h 4.44336 q 1.33984,0 2.03711,0.273437 0.69726,0.266602 1.11426,0.950196 0.41699,0.683594 0.41699,1.510742 0,1.066406 -0.69043,1.797852 -0.69043,0.731445 -2.13281,0.929687 0.52636,0.25293 0.7998,0.499023 0.58106,0.533204 1.10059,1.333008 l 1.74316,2.727539 h -1.66797 l -1.32617,-2.084961 q -0.58105,-0.902343 -0.95703,-1.380859 -0.37598,-0.478516 -0.67676,-0.669922 -0.29394,-0.191406 -0.60156,-0.266601 -0.22559,-0.04785 -0.73828,-0.04785 h -1.53809 V 66.8535 Z m 1.32617,-5.598632 h 2.85059 q 0.90918,0 1.42187,-0.184571 0.5127,-0.191406 0.7793,-0.601562 0.2666,-0.416992 0.2666,-0.902344 0,-0.710938 -0.51953,-1.168945 -0.51269,-0.458008 -1.62695,-0.458008 h -3.17188 z m 13.57617,3.260742 1.27149,0.157226 q -0.30078,1.114258 -1.11426,1.729492 -0.81348,0.615235 -2.07812,0.615235 -1.59278,0 -2.5293,-0.977539 -0.92969,-0.984375 -0.92969,-2.754883 0,-1.832031 0.94336,-2.84375 0.94336,-1.011719 2.44727,-1.011719 1.45605,0 2.3789,0.991211 0.92285,0.991211 0.92285,2.789063 0,0.109375 -0.007,0.328125 h -5.41406 q 0.0684,1.196289 0.67675,1.832031 0.6084,0.635742 1.51758,0.635742 0.67676,0 1.15528,-0.355469 0.47851,-0.355468 0.75878,-1.134765 z m -4.04003,-1.989258 h 4.05371 q -0.082,-0.916016 -0.46485,-1.374024 -0.58789,-0.710937 -1.52441,-0.710937 -0.84766,0 -1.42871,0.567383 -0.57422,0.567383 -0.63574,1.517578 z m 11.59375,1.667969 1.20996,0.157226 q -0.19825,1.250977 -1.01856,1.961914 -0.81348,0.704102 -2.00293,0.704102 -1.49023,0 -2.39941,-0.970703 -0.90235,-0.977539 -0.90235,-2.795899 0,-1.175781 0.38965,-2.057617 0.38965,-0.881836 1.18262,-1.319336 0.7998,-0.444336 1.73633,-0.444336 1.18261,0 1.93457,0.601563 0.75195,0.594726 0.96387,1.695312 l -1.19629,0.184571 q -0.1709,-0.731446 -0.6084,-1.100586 -0.43067,-0.369141 -1.0459,-0.369141 -0.92969,0 -1.51074,0.669922 -0.58106,0.663086 -0.58106,2.105469 0,1.46289 0.56055,2.125976 0.56055,0.663086 1.46289,0.663086 0.72461,0 1.20996,-0.444336 0.48535,-0.444336 0.61524,-1.367187 z m 4.94921,1.558593 0.17774,1.086914 q -0.51953,0.109375 -0.92969,0.109375 -0.66992,0 -1.03906,-0.211914 -0.36914,-0.211914 -0.51953,-0.553711 -0.15039,-0.348632 -0.15039,-1.456054 v -4.176758 h -0.90235 v -0.957031 h 0.90235 v -1.797852 l 1.22363,-0.738281 v 2.536133 h 1.2373 v 0.957031 h -1.2373 v 4.245117 q 0,0.526367 0.0615,0.676758 0.0684,0.150391 0.21192,0.239258 0.15039,0.08887 0.42382,0.08887 0.20508,0 0.54004,-0.04785 z m 0.28028,1.271485 2.90527,-10.363281 h 0.98438 l -2.89844,10.363281 z M 136.08008,66.8535 V 56.832016 h 1.99609 l 2.37207,7.095703 q 0.32813,0.991211 0.47852,1.483399 0.1709,-0.546875 0.5332,-1.606446 l 2.39941,-6.972656 h 1.78418 V 66.8535 h -1.27832 v -8.387695 l -2.91211,8.387695 h -1.19628 l -2.89844,-8.53125 v 8.53125 z m 16.51562,-2.33789 1.27149,0.157226 q -0.30078,1.114258 -1.11426,1.729492 -0.81348,0.615235 -2.07813,0.615235 -1.59277,0 -2.52929,-0.977539 -0.92969,-0.984375 -0.92969,-2.754883 0,-1.832031 0.94336,-2.84375 0.94336,-1.011719 2.44727,-1.011719 1.45605,0 2.3789,0.991211 0.92285,0.991211 0.92285,2.789063 0,0.109375 -0.007,0.328125 h -5.41407 q 0.0684,1.196289 0.67676,1.832031 0.6084,0.635742 1.51758,0.635742 0.67676,0 1.15527,-0.355469 0.47852,-0.355468 0.75879,-1.134765 z m -4.04004,-1.989258 h 4.05371 q -0.082,-0.916016 -0.46484,-1.374024 -0.58789,-0.710937 -1.52441,-0.710937 -0.84766,0 -1.42871,0.567383 -0.57422,0.567383 -0.63575,1.517578 z m 11.56641,4.327148 v -0.916015 q -0.69043,1.080078 -2.03027,1.080078 -0.86817,0 -1.59961,-0.478516 -0.72461,-0.478515 -1.12793,-1.333008 -0.39649,-0.861328 -0.39649,-1.975586 0,-1.086914 0.36231,-1.96875 0.3623,-0.888671 1.08691,-1.360351 0.72461,-0.47168 1.62012,-0.47168 0.65625,0 1.16894,0.280274 0.5127,0.273437 0.83399,0.717773 v -3.595703 h 1.22363 V 66.8535 Z m -3.88965,-3.623047 q 0,1.394532 0.58789,2.084961 0.58789,0.69043 1.3877,0.69043 0.80664,0 1.36719,-0.65625 0.56738,-0.663086 0.56738,-2.016601 0,-1.490235 -0.57422,-2.1875 -0.57422,-0.697266 -1.41504,-0.697266 -0.82031,0 -1.37402,0.669922 -0.54688,0.669922 -0.54688,2.112304 z m 6.97266,-4.983398 v -1.415039 h 1.23047 v 1.415039 z m 0,8.606445 v -7.259765 h 1.23047 V 66.8535 Z m 7.86133,0 v -1.066406 q -0.84766,1.230469 -2.30371,1.230469 -0.64258,0 -1.20313,-0.246094 -0.55371,-0.246094 -0.82715,-0.615234 -0.2666,-0.375977 -0.37597,-0.916016 -0.0752,-0.362305 -0.0752,-1.148437 v -4.498047 h 1.23047 v 4.026367 q 0,0.963867 0.0752,1.298828 0.11621,0.485352 0.49219,0.765625 0.37598,0.273438 0.92969,0.273438 0.55371,0 1.03906,-0.280274 0.48535,-0.287109 0.6836,-0.772461 0.20507,-0.492187 0.20507,-1.421875 v -3.889648 h 1.23047 V 66.8535 Z m 3.02832,0 v -7.259765 h 1.10058 v 1.018554 q 0.3418,-0.533203 0.90918,-0.854492 0.56738,-0.328125 1.29199,-0.328125 0.80664,0 1.31934,0.334961 0.51953,0.334961 0.73145,0.936524 0.86132,-1.271485 2.24218,-1.271485 1.08008,0 1.66114,0.601563 0.58105,0.594726 0.58105,1.838867 V 66.8535 h -1.22363 v -4.573242 q 0,-0.738281 -0.12305,-1.05957 -0.11621,-0.328125 -0.43066,-0.526367 -0.31446,-0.198243 -0.73828,-0.198243 -0.76563,0 -1.27149,0.512696 -0.50586,0.505859 -0.50586,1.626953 V 66.8535 h -1.23047 v -4.716797 q 0,-0.820312 -0.30078,-1.230468 -0.30078,-0.410157 -0.98437,-0.410157 -0.51953,0 -0.96387,0.273438 -0.4375,0.273437 -0.63574,0.799805 -0.19824,0.526367 -0.19824,1.517578 V 66.8535 Z"
           id="MessageText"
           style="font-size:14px;font-family:Arial;letter-spacing:0em;white-space:pre;fill:#212121"
           aria-label="Button/Rect/Medium" />
      </g>
      <g
         id="Frame">
        <g
           id="Button/Rect-Medium/Fill"
           filter="url(#filter0_d_2_993)">
          <rect
             id="Background"
             x="52"
             y="101"
             width="156"
             height="76"
             rx="11"
             fill="#2A2E37"
             stroke="#E52554"
             stroke-width="4" />
        </g>
        <g
           id="Button/Rect-Medium/Fill_2"
           filter="url(#filter1_d_2_993)">
          <rect
             id="Background_2"
             x="237"
             y="101"
             width="156"
             height="76"
             rx="11"
             fill="#2A2E37"
             stroke="#C01740"
             stroke-width="4" />
        </g>
      </g>
      <g
         id="Title_2">
        <rect
           x="50"
           y="204"
           width="106"
           height="24"
           rx="4"
           fill="#FED70A"
           id="rect2" />
        <path
           d="m 59.025391,220.854 v -10.02148 h 3.759765 q 1.148438,0 1.838867,0.30762 0.697266,0.30078 1.086914,0.93652 0.396485,0.62891 0.396485,1.31934 0,0.64257 -0.348633,1.20996 -0.348633,0.56738 -1.052734,0.91601 0.909179,0.2666 1.394531,0.90918 0.492187,0.64258 0.492187,1.51758 0,0.7041 -0.300781,1.3125 -0.293945,0.60156 -0.731445,0.92969 -0.4375,0.32812 -1.100586,0.49902 -0.65625,0.16406 -1.613281,0.16406 z m 1.326171,-5.81054 h 2.166993 q 0.881836,0 1.264648,-0.11621 0.505859,-0.15039 0.758789,-0.49903 0.259766,-0.34863 0.259766,-0.875 0,-0.49902 -0.239258,-0.875 -0.239258,-0.38281 -0.683594,-0.51953 -0.444336,-0.14355 -1.524414,-0.14355 h -2.00293 z m 0,4.62793 h 2.495118 q 0.642578,0 0.902343,-0.0479 0.458008,-0.082 0.765625,-0.27344 0.307618,-0.19141 0.50586,-0.55371 0.198242,-0.36914 0.198242,-0.84766 0,-0.56055 -0.287109,-0.9707 -0.28711,-0.41699 -0.799805,-0.58106 -0.505859,-0.1709 -1.462891,-0.1709 h -2.317383 z m 12.666993,1.18261 v -1.0664 q -0.847657,1.23047 -2.303711,1.23047 -0.642578,0 -1.203125,-0.2461 -0.553711,-0.24609 -0.827149,-0.61523 -0.266601,-0.37598 -0.375976,-0.91602 -0.0752,-0.3623 -0.0752,-1.14843 v -4.49805 h 1.230469 v 4.02637 q 0,0.96386 0.0752,1.29882 0.116211,0.48536 0.492188,0.76563 0.375977,0.27344 0.929687,0.27344 0.553711,0 1.039063,-0.28028 0.485352,-0.28711 0.683594,-0.77246 0.205078,-0.49219 0.205078,-1.42187 v -3.88965 h 1.230469 v 7.25976 z m 5.714843,-1.10058 0.177735,1.08691 q -0.519531,0.10938 -0.929688,0.10938 -0.669922,0 -1.039062,-0.21192 -0.369141,-0.21191 -0.519531,-0.55371 -0.150391,-0.34863 -0.150391,-1.45605 v -4.17676 h -0.902344 v -0.95703 h 0.902344 v -1.79785 l 1.223633,-0.73828 v 2.53613 h 1.237304 v 0.95703 h -1.237304 v 4.24512 q 0,0.52636 0.06152,0.67675 0.06836,0.1504 0.211914,0.23926 0.150391,0.0889 0.423828,0.0889 0.205078,0 0.540039,-0.0478 z m 3.889649,0 0.177734,1.08691 q -0.519531,0.10938 -0.929687,0.10938 -0.669922,0 -1.039063,-0.21192 -0.36914,-0.21191 -0.519531,-0.55371 -0.150391,-0.34863 -0.150391,-1.45605 v -4.17676 h -0.902343 v -0.95703 h 0.902343 v -1.79785 l 1.223633,-0.73828 v 2.53613 h 1.237305 v 0.95703 h -1.237305 v 4.24512 q 0,0.52636 0.06152,0.67675 0.06836,0.1504 0.211914,0.23926 0.15039,0.0889 0.423828,0.0889 0.205078,0 0.540039,-0.0478 z m 0.745117,-2.5293 q 0,-2.0166 1.121094,-2.9873 0.936523,-0.80664 2.283203,-0.80664 1.49707,0 2.447266,0.98437 0.950195,0.97754 0.950195,2.70703 0,1.40137 -0.423828,2.20801 -0.416992,0.7998 -1.223633,1.24414 -0.799805,0.44434 -1.75,0.44434 -1.524414,0 -2.467774,-0.97754 -0.936523,-0.97754 -0.936523,-2.81641 z m 1.264648,0 q 0,1.39453 0.608399,2.0918 0.608398,0.69043 1.53125,0.69043 0.916016,0 1.524414,-0.69727 0.608398,-0.69726 0.608398,-2.12597 0,-1.34668 -0.615234,-2.03711 -0.608398,-0.69727 -1.517578,-0.69727 -0.922852,0 -1.53125,0.69043 -0.608399,0.69043 -0.608399,2.08496 z m 6.979493,3.62988 v -7.25976 h 1.107422 v 1.03222 q 0.799804,-1.19628 2.310546,-1.19628 0.65625,0 1.203125,0.23925 0.553711,0.23243 0.827149,0.61524 0.273437,0.38281 0.382812,0.90918 0.06836,0.34179 0.06836,1.19629 V 220.854 H 96.28125 v -4.41601 q 0,-0.75195 -0.143555,-1.1211 -0.143554,-0.37597 -0.512695,-0.59472 -0.362305,-0.22559 -0.854492,-0.22559 -0.786133,0 -1.360352,0.49903 -0.567383,0.49902 -0.567383,1.89355 v 3.96484 z m 6.863281,0.1709 2.905274,-10.36328 h 0.98437 l -2.898433,10.36328 z m 4.518554,-3.39062 1.25098,-0.10938 q 0.0889,0.75196 0.41015,1.23731 0.32813,0.47851 1.01172,0.77929 0.6836,0.29395 1.53809,0.29395 0.75879,0 1.33984,-0.22559 0.58106,-0.22558 0.86133,-0.61523 0.28711,-0.39649 0.28711,-0.86133 0,-0.47168 -0.27344,-0.82031 -0.27344,-0.35547 -0.90234,-0.59473 -0.40332,-0.15722 -1.78418,-0.48535 -1.38086,-0.33496 -1.93457,-0.62891 -0.71778,-0.37597 -1.07324,-0.92968 -0.34864,-0.56055 -0.34864,-1.25098 0,-0.75879 0.43067,-1.41504 0.43066,-0.66309 1.25781,-1.00488 0.82715,-0.3418 1.83887,-0.3418 1.11425,0 1.96191,0.36231 0.85449,0.35546 1.3125,1.05273 0.45801,0.69727 0.49219,1.5791 l -1.27149,0.0957 q -0.10253,-0.95019 -0.69726,-1.43554 -0.58789,-0.48535 -1.74317,-0.48535 -1.20312,0 -1.75683,0.44433 -0.54688,0.4375 -0.54688,1.05957 0,0.54004 0.38965,0.88867 0.38281,0.34864 1.9961,0.71778 1.62011,0.3623 2.22168,0.63574 0.875,0.40332 1.29199,1.02539 0.41699,0.61524 0.41699,1.42188 0,0.7998 -0.45801,1.51074 -0.45801,0.7041 -1.31933,1.10058 -0.8545,0.38965 -1.92774,0.38965 -1.36035,0 -2.2832,-0.39648 -0.91602,-0.39649 -1.44238,-1.18946 -0.51954,-0.7998 -0.54688,-1.80468 z m 14.25977,6.00195 v -3.55469 q -0.28711,0.40332 -0.80664,0.66992 -0.5127,0.26661 -1.09375,0.26661 -1.292,0 -2.22852,-1.03223 -0.92969,-1.03223 -0.92969,-2.83008 0,-1.09375 0.37598,-1.96191 0.38281,-0.86817 1.10059,-1.3125 0.7246,-0.45117 1.58593,-0.45117 1.34668,0 2.11914,1.13476 v -0.9707 h 1.10743 v 10.04199 z m -3.79395,-6.43262 q 0,1.40137 0.58789,2.10547 0.58789,0.69727 1.4082,0.69727 0.78614,0 1.35352,-0.66309 0.56738,-0.66992 0.56738,-2.03027 0,-1.44922 -0.60156,-2.18067 -0.59473,-0.73144 -1.40137,-0.73144 -0.7998,0 -1.36035,0.68359 -0.55371,0.67676 -0.55371,2.11914 z m 11.70996,3.65039 v -1.0664 q -0.84765,1.23047 -2.30371,1.23047 -0.64258,0 -1.20312,-0.2461 -0.55371,-0.24609 -0.82715,-0.61523 -0.2666,-0.37598 -0.37598,-0.91602 -0.0752,-0.3623 -0.0752,-1.14843 v -4.49805 h 1.23046 v 4.02637 q 0,0.96386 0.0752,1.29882 0.11621,0.48536 0.49219,0.76563 0.37597,0.27344 0.92968,0.27344 0.55372,0 1.03907,-0.28028 0.48535,-0.28711 0.68359,-0.77246 0.20508,-0.49219 0.20508,-1.42187 v -3.88965 h 1.23047 v 7.25976 z m 7.76563,-0.8955 q -0.6836,0.58105 -1.31934,0.82031 -0.62891,0.23926 -1.35351,0.23926 -1.19629,0 -1.83887,-0.58106 -0.64258,-0.58789 -0.64258,-1.49707 0,-0.5332 0.23926,-0.9707 0.24609,-0.44434 0.63574,-0.71094 0.39648,-0.2666 0.88867,-0.40332 0.36231,-0.0957 1.09375,-0.18457 1.49024,-0.17773 2.19434,-0.42383 0.007,-0.25293 0.007,-0.32129 0,-0.75195 -0.34863,-1.05957 -0.47168,-0.41699 -1.40137,-0.41699 -0.86816,0 -1.28515,0.30762 -0.41016,0.30078 -0.6084,1.07324 l -1.20313,-0.16406 q 0.16407,-0.77246 0.54004,-1.24414 0.37598,-0.47852 1.08692,-0.73145 0.71093,-0.25976 1.64746,-0.25976 0.92969,0 1.51074,0.21875 0.58105,0.21875 0.85449,0.55371 0.27344,0.32812 0.38281,0.83398 0.0615,0.31445 0.0615,1.13477 v 1.64062 q 0,1.71582 0.0752,2.17383 0.082,0.45117 0.31446,0.86816 h -1.28516 q -0.19141,-0.38281 -0.24609,-0.8955 z m -0.10254,-2.74805 q -0.66992,0.27344 -2.00977,0.46484 -0.75879,0.10938 -1.07324,0.2461 -0.31445,0.13672 -0.48535,0.40332 -0.1709,0.25976 -0.1709,0.58105 0,0.49219 0.36914,0.82031 0.37598,0.32813 1.09375,0.32813 0.71094,0 1.26465,-0.30762 0.55371,-0.31445 0.81348,-0.85449 0.19824,-0.41699 0.19824,-1.23047 z m 3.13769,3.64355 v -7.25976 h 1.10742 v 1.10058 q 0.42383,-0.77246 0.7793,-1.01855 0.36231,-0.24609 0.79297,-0.24609 0.62207,0 1.26465,0.39648 l -0.42383,1.1416 q -0.45117,-0.2666 -0.90234,-0.2666 -0.40332,0 -0.72461,0.24609 -0.32129,0.23926 -0.45801,0.66993 -0.20508,0.65625 -0.20508,1.43554 v 3.80078 z m 9.64551,-2.33789 1.27149,0.15723 q -0.30079,1.11426 -1.11426,1.72949 -0.81348,0.61524 -2.07813,0.61524 -1.59277,0 -2.52929,-0.97754 -0.92969,-0.98438 -0.92969,-2.75489 0,-1.83203 0.94336,-2.84375 0.94336,-1.01171 2.44726,-1.01171 1.45606,0 2.37891,0.99121 0.92285,0.99121 0.92285,2.78906 0,0.10937 -0.007,0.32812 h -5.41406 q 0.0684,1.19629 0.67676,1.83204 0.6084,0.63574 1.51758,0.63574 0.67676,0 1.15527,-0.35547 0.47852,-0.35547 0.75879,-1.13477 z m -4.04004,-1.98925 h 4.05371 q -0.082,-0.91602 -0.46484,-1.37403 -0.58789,-0.71094 -1.52442,-0.71094 -0.84765,0 -1.42871,0.56739 -0.57421,0.56738 -0.63574,1.51758 z"
           id="MessageText_2"
           style="font-size:14px;font-family:Arial;letter-spacing:0em;white-space:pre;fill:#212121"
           aria-label="Button/Square" />
      </g>
      <g
         id="Frame_2">
        <g
           id="Button/Square-Medium/Fill"
           filter="url(#filter2_d_2_993)">
          <rect
             id="Background_3"
             x="52"
             y="255"
             width="76"
             height="76"
             rx="6"
             fill="#2A2E37"
             stroke="#E52554"
             stroke-width="4" />
        </g>
        <g
           id="Button/Square-Medium/Fill_2"
           filter="url(#filter3_d_2_993)">
          <rect
             id="Background_4"
             x="157"
             y="255"
             width="76"
             height="76"
             rx="6"
             fill="#2A2E37"
             stroke="#C01740"
             stroke-width="4" />
        </g>
      </g>
    </g>
  </g>
  <defs
     id="defs10">
    <filter
       id="filter0_d_2_993"
       x="46"
       y="99"
       width="168"
       height="88"
       filterUnits="userSpaceOnUse"
       color-interpolation-filters="sRGB">
      <feFlood
         flood-opacity="0"
         result="BackgroundImageFix"
         id="feFlood2" />
      <feColorMatrix
         in="SourceAlpha"
         type="matrix"
         values="0 0 0 0 0 0 0 0 0 0 0 0 0 0 0 0 0 0 127 0"
         result="hardAlpha"
         id="feColorMatrix2" />
      <feOffset
         dy="4"
         id="feOffset2" />
      <feGaussianBlur
         stdDeviation="2"
         id="feGaussianBlur2" />
      <feComposite
         in2="hardAlpha"
         operator="out"
         id="feComposite2" />
      <feColorMatrix
         type="matrix"
         values="0 0 0 0 0 0 0 0 0 0 0 0 0 0 0 0 0 0 0.2 0"
         id="feColorMatrix3" />
      <feBlend
         mode="normal"
         in2="BackgroundImageFix"
         result="effect1_dropShadow_2_993"
         id="feBlend3" />
      <feBlend
         mode="normal"
         in="SourceGraphic"
         in2="effect1_dropShadow_2_993"
         result="shape"
         id="feBlend4" />
    </filter>
    <filter
       id="filter1_d_2_993"
       x="231"
       y="99"
       width="168"
       height="88"
       filterUnits="userSpaceOnUse"
       color-interpolation-filters="sRGB">
      <feFlood
         flood-opacity="0"
         result="BackgroundImageFix"
         id="feFlood4" />
      <feColorMatrix
         in="SourceAlpha"
         type="matrix"
         values="0 0 0 0 0 0 0 0 0 0 0 0 0 0 0 0 0 0 127 0"
         result="hardAlpha"
         id="feColorMatrix4" />
      <feOffset
         dy="4"
         id="feOffset4" />
      <feGaussianBlur
         stdDeviation="2"
         id="feGaussianBlur4" />
      <feComposite
         in2="hardAlpha"
         operator="out"
         id="feComposite4" />
      <feColorMatrix
         type="matrix"
         values="0 0 0 0 0 0 0 0 0 0 0 0 0 0 0 0 0 0 0.2 0"
         id="feColorMatrix5" />
      <feBlend
         mode="normal"
         in2="BackgroundImageFix"
         result="effect1_dropShadow_2_993"
         id="feBlend5" />
      <feBlend
         mode="normal"
         in="SourceGraphic"
         in2="effect1_dropShadow_2_993"
         result="shape"
         id="feBlend6" />
    </filter>
    <filter
       id="filter2_d_2_993"
       x="46"
       y="253"
       width="88"
       height="88"
       filterUnits="userSpaceOnUse"
       color-interpolation-filters="sRGB">
      <feFlood
         flood-opacity="0"
         result="BackgroundImageFix"
         id="feFlood6" />
      <feColorMatrix
         in="SourceAlpha"
         type="matrix"
         values="0 0 0 0 0 0 0 0 0 0 0 0 0 0 0 0 0 0 127 0"
         result="hardAlpha"
         id="feColorMatrix6" />
      <feOffset
         dy="4"
         id="feOffset6" />
      <feGaussianBlur
         stdDeviation="2"
         id="feGaussianBlur6" />
      <feComposite
         in2="hardAlpha"
         operator="out"
         id="feComposite6" />
      <feColorMatrix
         type="matrix"
         values="0 0 0 0 0 0 0 0 0 0 0 0 0 0 0 0 0 0 0.2 0"
         id="feColorMatrix7" />
      <feBlend
         mode="normal"
         in2="BackgroundImageFix"
         result="effect1_dropShadow_2_993"
         id="feBlend7" />
      <feBlend
         mode="normal"
         in="SourceGraphic"
         in2="effect1_dropShadow_2_993"
         result="shape"
         id="feBlend8" />
    </filter>
    <filter
       id="filter3_d_2_993"
       x="151"
       y="253"
       width="88"
       height="88"
       filterUnits="userSpaceOnUse"
       color-interpolation-filters="sRGB">
      <feFlood
         flood-opacity="0"
         result="BackgroundImageFix"
         id="feFlood8" />
      <feColorMatrix
         in="SourceAlpha"
         type="matrix"
         values="0 0 0 0 0 0 0 0 0 0 0 0 0 0 0 0 0 0 127 0"
         result="hardAlpha"
         id="feColorMatrix8" />
      <feOffset
         dy="4"
         id="feOffset8" />
      <feGaussianBlur
         stdDeviation="2"
         id="feGaussianBlur8" />
      <feComposite
         in2="hardAlpha"
         operator="out"
         id="feComposite8" />
      <feColorMatrix
         type="matrix"
         values="0 0 0 0 0 0 0 0 0 0 0 0 0 0 0 0 0 0 0.2 0"
         id="feColorMatrix9" />
      <feBlend
         mode="normal"
         in2="BackgroundImageFix"
         result="effect1_dropShadow_2_993"
         id="feBlend9" />
      <feBlend
         mode="normal"
         in="SourceGraphic"
         in2="effect1_dropShadow_2_993"
         result="shape"
         id="feBlend10" />
    </filter>
  </defs>
</svg>
