<?xml version="1.0" encoding="UTF-8" standalone="no"?>
<svg
   width="547"
   height="383"
   viewBox="0 0 547 383"
   fill="none"
   version="1.1"
   id="svg18"
   sodipodi:docname="Level.svg"
   xmlns:inkscape="http://www.inkscape.org/namespaces/inkscape"
   xmlns:sodipodi="http://sodipodi.sourceforge.net/DTD/sodipodi-0.dtd"
   xmlns="http://www.w3.org/2000/svg"
   xmlns:svg="http://www.w3.org/2000/svg">
  <sodipodi:namedview
     id="namedview18"
     pagecolor="#ffffff"
     bordercolor="#000000"
     borderopacity="0.25"
     inkscape:showpageshadow="2"
     inkscape:pageopacity="0.0"
     inkscape:pagecheckerboard="0"
     inkscape:deskcolor="#d1d1d1" />
  <g
     id="Level_Preview">
    <g
       id="ColumnGroup">
      <g
         id="Title">
        <rect
           x="50"
           y="50"
           width="205"
           height="24"
           rx="4"
           fill="#FED70A"
           id="rect1" />
        <path
           d="M 59.025391,66.8535 V 56.832016 h 1.326171 v 8.838867 h 4.935547 V 66.8535 Z m 12.65332,-2.33789 1.271484,0.157226 q -0.300781,1.114258 -1.114258,1.729492 -0.813476,0.615235 -2.078125,0.615235 -1.592773,0 -2.529296,-0.977539 -0.929688,-0.984375 -0.929688,-2.754883 0,-1.832031 0.943359,-2.84375 0.94336,-1.011719 2.447266,-1.011719 1.456055,0 2.378906,0.991211 0.922852,0.991211 0.922852,2.789063 0,0.109375 -0.0068,0.328125 h -5.414063 q 0.06836,1.196289 0.676758,1.832031 0.608399,0.635742 1.517578,0.635742 0.676758,0 1.155274,-0.355469 0.478515,-0.355468 0.758789,-1.134765 z m -4.040039,-1.989258 h 4.053711 q -0.08203,-0.916016 -0.464844,-1.374024 -0.587891,-0.710937 -1.524414,-0.710937 -0.847656,0 -1.428711,0.567383 -0.574219,0.567383 -0.635742,1.517578 z M 76.511719,66.8535 73.75,59.593735 h 1.298828 l 1.558594,4.347656 q 0.25293,0.704102 0.464844,1.462891 0.164062,-0.574219 0.458007,-1.38086 l 1.613282,-4.429687 h 1.264648 L 77.660156,66.8535 Z m 9.953125,-2.33789 1.271484,0.157226 q -0.300781,1.114258 -1.114258,1.729492 -0.813476,0.615235 -2.078125,0.615235 -1.592773,0 -2.529297,-0.977539 -0.929687,-0.984375 -0.929687,-2.754883 0,-1.832031 0.943359,-2.84375 0.94336,-1.011719 2.447266,-1.011719 1.456055,0 2.378906,0.991211 0.922852,0.991211 0.922852,2.789063 0,0.109375 -0.0068,0.328125 h -5.414063 q 0.06836,1.196289 0.676758,1.832031 0.608399,0.635742 1.517578,0.635742 0.676758,0 1.155274,-0.355469 0.478515,-0.355468 0.758789,-1.134765 z m -4.040039,-1.989258 h 4.053711 q -0.08203,-0.916016 -0.464844,-1.374024 -0.587891,-0.710937 -1.524414,-0.710937 -0.847656,0 -1.428711,0.567383 -0.574219,0.567383 -0.635742,1.517578 z M 89.253906,66.8535 V 56.832016 h 1.230469 V 66.8535 Z m 2.214844,0.170899 2.905273,-10.363281 h 0.984375 L 92.459961,67.024399 Z M 96.383789,66.8535 V 56.832016 h 3.759761 q 1.14844,0 1.83887,0.307617 0.69727,0.300781 1.08692,0.936524 0.39648,0.628906 0.39648,1.319336 0,0.642578 -0.34863,1.20996 -0.34864,0.567383 -1.05274,0.916016 0.90918,0.266602 1.39453,0.90918 0.49219,0.642578 0.49219,1.517578 0,0.704101 -0.30078,1.3125 -0.29394,0.601562 -0.73144,0.929687 -0.4375,0.328125 -1.10059,0.499024 -0.65625,0.164062 -1.61328,0.164062 z m 1.326172,-5.810547 h 2.166992 q 0.881837,0 1.264647,-0.11621 0.50586,-0.150391 0.75879,-0.499024 0.25977,-0.348633 0.25977,-0.875 0,-0.499023 -0.23926,-0.875 -0.23926,-0.382812 -0.6836,-0.519531 -0.44433,-0.143555 -1.524409,-0.143555 h -2.00293 z m 0,4.62793 h 2.495119 q 0.64258,0 0.90234,-0.04785 0.45801,-0.08203 0.76563,-0.273438 0.30761,-0.191406 0.50586,-0.553711 0.19824,-0.36914 0.19824,-0.847656 0,-0.560547 -0.28711,-0.970703 -0.28711,-0.416992 -0.79981,-0.581055 -0.50585,-0.170898 -1.46289,-0.170898 H 97.709961 Z M 110.37695,66.8535 v -1.066406 q -0.84765,1.230469 -2.30371,1.230469 -0.64258,0 -1.20312,-0.246094 -0.55371,-0.246094 -0.82715,-0.615234 -0.2666,-0.375977 -0.37598,-0.916016 -0.0752,-0.362305 -0.0752,-1.148437 v -4.498047 h 1.23047 v 4.026367 q 0,0.963867 0.0752,1.298828 0.11621,0.485352 0.49219,0.765625 0.37598,0.273438 0.92969,0.273438 0.55371,0 1.03906,-0.280274 0.48535,-0.287109 0.68359,-0.772461 0.20508,-0.492187 0.20508,-1.421875 v -3.889648 h 1.23047 V 66.8535 Z m 5.71485,-1.100586 0.17773,1.086914 q -0.51953,0.109375 -0.92969,0.109375 -0.66992,0 -1.03906,-0.211914 -0.36914,-0.211914 -0.51953,-0.553711 -0.15039,-0.348632 -0.15039,-1.456054 v -4.176758 h -0.90234 v -0.957031 h 0.90234 v -1.797852 l 1.22363,-0.738281 v 2.536133 h 1.23731 v 0.957031 h -1.23731 v 4.245117 q 0,0.526367 0.0615,0.676758 0.0684,0.150391 0.21191,0.239258 0.15039,0.08887 0.42383,0.08887 0.20508,0 0.54004,-0.04785 z m 3.88965,0 0.17773,1.086914 q -0.51953,0.109375 -0.92969,0.109375 -0.66992,0 -1.03906,-0.211914 -0.36914,-0.211914 -0.51953,-0.553711 -0.15039,-0.348632 -0.15039,-1.456054 v -4.176758 h -0.90235 v -0.957031 h 0.90235 v -1.797852 l 1.22363,-0.738281 v 2.536133 h 1.23731 v 0.957031 h -1.23731 v 4.245117 q 0,0.526367 0.0615,0.676758 0.0684,0.150391 0.21192,0.239258 0.15039,0.08887 0.42383,0.08887 0.20507,0 0.54004,-0.04785 z m 0.74511,-2.529296 q 0,-2.016602 1.1211,-2.987305 0.93652,-0.806641 2.2832,-0.806641 1.49707,0 2.44727,0.984375 0.95019,0.977539 0.95019,2.707031 0,1.401368 -0.42383,2.208008 -0.41699,0.799805 -1.22363,1.244141 -0.79981,0.444336 -1.75,0.444336 -1.52441,0 -2.46777,-0.977539 -0.93653,-0.977539 -0.93653,-2.816406 z m 1.26465,0 q 0,1.394531 0.6084,2.091796 0.6084,0.69043 1.53125,0.69043 0.91602,0 1.52441,-0.697266 0.6084,-0.697265 0.6084,-2.125976 0,-1.34668 -0.61523,-2.037109 -0.6084,-0.697266 -1.51758,-0.697266 -0.92285,0 -1.53125,0.69043 -0.6084,0.690429 -0.6084,2.084961 z m 6.97949,3.629882 v -7.259765 h 1.10742 v 1.032226 q 0.79981,-1.196289 2.31055,-1.196289 0.65625,0 1.20313,0.239258 0.55371,0.232422 0.82715,0.615234 0.27343,0.382813 0.38281,0.90918 0.0684,0.341797 0.0684,1.196289 V 66.8535 h -1.23047 v -4.416015 q 0,-0.751953 -0.14356,-1.121094 -0.14355,-0.375977 -0.51269,-0.594727 -0.36231,-0.225586 -0.85449,-0.225586 -0.78614,0 -1.36036,0.499024 -0.56738,0.499023 -0.56738,1.893555 V 66.8535 Z m 6.86328,0.170899 2.90528,-10.363281 h 0.98437 l -2.89843,10.363281 z m 11.5459,-10.192383 h 1.32617 v 5.790039 q 0,1.510742 -0.34179,2.399414 -0.3418,0.888672 -1.23731,1.449219 -0.88867,0.553711 -2.33789,0.553711 -1.4082,0 -2.30371,-0.485352 -0.89551,-0.485351 -1.27832,-1.401367 -0.38281,-0.922852 -0.38281,-2.515625 v -5.790039 h 1.32617 v 5.783203 q 0,1.305664 0.23926,1.927734 0.24609,0.615235 0.83398,0.950196 0.59473,0.334961 1.44922,0.334961 1.46289,0 2.08496,-0.663086 0.62207,-0.663086 0.62207,-2.549805 z m 3.37696,10.021484 v -7.259765 h 1.10742 v 1.032226 q 0.7998,-1.196289 2.31054,-1.196289 0.65625,0 1.20313,0.239258 0.55371,0.232422 0.82715,0.615234 0.27344,0.382813 0.38281,0.90918 0.0684,0.341797 0.0684,1.196289 V 66.8535 h -1.23047 v -4.416015 q 0,-0.751953 -0.14355,-1.121094 -0.14356,-0.375977 -0.5127,-0.594727 -0.3623,-0.225586 -0.85449,-0.225586 -0.78613,0 -1.36035,0.499024 -0.56739,0.499023 -0.56739,1.893555 V 66.8535 Z m 7.75878,0 V 56.832016 h 1.23047 V 66.8535 Z m 2.67969,-3.629882 q 0,-2.016602 1.1211,-2.987305 0.93652,-0.806641 2.2832,-0.806641 1.49707,0 2.44726,0.984375 0.9502,0.977539 0.9502,2.707031 0,1.401368 -0.42383,2.208008 -0.41699,0.799805 -1.22363,1.244141 -0.79981,0.444336 -1.75,0.444336 -1.52441,0 -2.46777,-0.977539 -0.93653,-0.977539 -0.93653,-2.816406 z m 1.26465,0 q 0,1.394531 0.6084,2.091796 0.6084,0.69043 1.53125,0.69043 0.91601,0 1.52441,-0.697266 0.6084,-0.697265 0.6084,-2.125976 0,-1.34668 -0.61523,-2.037109 -0.6084,-0.697266 -1.51758,-0.697266 -0.92285,0 -1.53125,0.69043 -0.6084,0.690429 -0.6084,2.084961 z m 11.7168,0.970703 1.20996,0.157226 q -0.19824,1.250977 -1.01856,1.961914 -0.81347,0.704102 -2.00293,0.704102 -1.49023,0 -2.39941,-0.970703 -0.90234,-0.977539 -0.90234,-2.795899 0,-1.175781 0.38964,-2.057617 0.38965,-0.881836 1.18262,-1.319336 0.79981,-0.444336 1.73633,-0.444336 1.18262,0 1.93457,0.601563 0.75195,0.594726 0.96387,1.695312 l -1.19629,0.184571 q -0.1709,-0.731446 -0.6084,-1.100586 -0.43066,-0.369141 -1.0459,-0.369141 -0.92969,0 -1.51074,0.669922 -0.58106,0.663086 -0.58106,2.105469 0,1.46289 0.56055,2.125976 0.56055,0.663086 1.46289,0.663086 0.72461,0 1.20996,-0.444336 0.48535,-0.444336 0.61524,-1.367187 z m 2.26953,2.659179 V 56.832016 h 1.23047 v 5.714844 l 2.91211,-2.953125 h 1.59277 l -2.77539,2.693359 3.05566,4.566406 h -1.51757 l -2.39942,-3.711914 -0.86816,0.833985 V 66.8535 Z m 11.96289,-2.33789 1.27148,0.157226 q -0.30078,1.114258 -1.11425,1.729492 -0.81348,0.615235 -2.07813,0.615235 -1.59277,0 -2.5293,-0.977539 -0.92968,-0.984375 -0.92968,-2.754883 0,-1.832031 0.94336,-2.84375 0.94336,-1.011719 2.44726,-1.011719 1.45606,0 2.37891,0.991211 0.92285,0.991211 0.92285,2.789063 0,0.109375 -0.007,0.328125 h -5.41406 q 0.0684,1.196289 0.67676,1.832031 0.6084,0.635742 1.51758,0.635742 0.67675,0 1.15527,-0.355469 0.47852,-0.355468 0.75879,-1.134765 z m -4.04004,-1.989258 h 4.05371 q -0.082,-0.916016 -0.46484,-1.374024 -0.58789,-0.710937 -1.52442,-0.710937 -0.84765,0 -1.42871,0.567383 -0.57422,0.567383 -0.63574,1.517578 z m 11.56641,4.327148 v -0.916015 q -0.69043,1.080078 -2.03028,1.080078 -0.86816,0 -1.59961,-0.478516 -0.72461,-0.478515 -1.12793,-1.333008 -0.39648,-0.861328 -0.39648,-1.975586 0,-1.086914 0.3623,-1.96875 0.36231,-0.888671 1.08692,-1.360351 0.72461,-0.47168 1.62012,-0.47168 0.65625,0 1.16894,0.280274 0.5127,0.273437 0.83399,0.717773 v -3.595703 h 1.22363 V 66.8535 Z m -3.88965,-3.623047 q 0,1.394532 0.58789,2.084961 0.58789,0.69043 1.38769,0.69043 0.80664,0 1.36719,-0.65625 0.56738,-0.663086 0.56738,-2.016601 0,-1.490235 -0.57421,-2.1875 -0.57422,-0.697266 -1.41504,-0.697266 -0.82032,0 -1.37403,0.669922 -0.54687,0.669922 -0.54687,2.112304 z m 6.04297,3.793946 2.90527,-10.363281 h 0.98438 l -2.89844,10.363281 z M 203.05859,66.8535 V 56.832016 h 3.45215 q 1.16895,0 1.78418,0.143555 0.86133,0.198242 1.46973,0.717773 0.79297,0.669922 1.18262,1.71582 0.39648,1.039063 0.39648,2.378907 0,1.141601 -0.2666,2.023437 -0.2666,0.881836 -0.6836,1.462891 -0.41699,0.574219 -0.91601,0.909179 -0.49219,0.328125 -1.19629,0.499024 -0.69727,0.170898 -1.60645,0.170898 z m 1.32618,-1.182617 h 2.13964 q 0.99121,0 1.55176,-0.18457 0.56738,-0.18457 0.90235,-0.519531 0.47168,-0.47168 0.73144,-1.264649 0.2666,-0.799805 0.2666,-1.93457 0,-1.572266 -0.51953,-2.413086 -0.51269,-0.847656 -1.25098,-1.134766 -0.5332,-0.205078 -1.71582,-0.205078 h -2.10546 z m 13.59668,-1.155273 1.27148,0.157226 q -0.30078,1.114258 -1.11426,1.729492 -0.81347,0.615235 -2.07812,0.615235 -1.59278,0 -2.5293,-0.977539 -0.92969,-0.984375 -0.92969,-2.754883 0,-1.832031 0.94336,-2.84375 0.94336,-1.011719 2.44727,-1.011719 1.45605,0 2.3789,0.991211 0.92286,0.991211 0.92286,2.789063 0,0.109375 -0.007,0.328125 h -5.41406 q 0.0684,1.196289 0.67675,1.832031 0.6084,0.635742 1.51758,0.635742 0.67676,0 1.15528,-0.355469 0.47851,-0.355468 0.75879,-1.134765 z m -4.04004,-1.989258 h 4.05371 q -0.082,-0.916016 -0.46485,-1.374024 -0.58789,-0.710937 -1.52441,-0.710937 -0.84766,0 -1.42871,0.567383 -0.57422,0.567383 -0.63574,1.517578 z m 7.15039,4.327148 v -6.302734 h -1.08692 v -0.957031 h 1.08692 v -0.772461 q 0,-0.731446 0.12988,-1.086914 0.17773,-0.478516 0.62207,-0.772461 0.45117,-0.300781 1.25781,-0.300781 0.51953,0 1.14844,0.123046 l -0.18457,1.073243 q -0.38281,-0.06836 -0.72461,-0.06836 -0.56055,0 -0.79297,0.239258 -0.23242,0.239258 -0.23242,0.895508 v 0.669922 h 1.41504 v 0.957031 h -1.41504 V 66.8535 Z m 8.333,-0.895507 q -0.68359,0.581054 -1.31933,0.820312 -0.62891,0.239258 -1.35352,0.239258 -1.19629,0 -1.83886,-0.581055 -0.64258,-0.58789 -0.64258,-1.49707 0,-0.533203 0.23926,-0.970703 0.24609,-0.444336 0.63574,-0.710938 0.39648,-0.266601 0.88867,-0.40332 0.3623,-0.0957 1.09375,-0.18457 1.49023,-0.177735 2.19434,-0.423829 0.007,-0.252929 0.007,-0.321289 0,-0.751953 -0.34863,-1.05957 -0.47168,-0.416992 -1.40137,-0.416992 -0.86816,0 -1.28515,0.307617 -0.41016,0.300781 -0.6084,1.073242 l -1.20313,-0.164062 q 0.16406,-0.772461 0.54004,-1.244141 0.37598,-0.478515 1.08691,-0.731445 0.71094,-0.259766 1.64747,-0.259766 0.92968,0 1.51074,0.21875 0.58105,0.21875 0.85449,0.553711 0.27344,0.328125 0.38281,0.833985 0.0615,0.314453 0.0615,1.134765 v 1.640625 q 0,1.71582 0.0752,2.173828 0.082,0.451172 0.31445,0.868164 h -1.28515 q -0.19141,-0.382812 -0.2461,-0.895507 z m -0.10253,-2.748047 q -0.66993,0.273437 -2.00977,0.464843 -0.75879,0.109375 -1.07324,0.246094 -0.31446,0.136719 -0.48535,0.40332 -0.1709,0.259766 -0.1709,0.581055 0,0.492188 0.36914,0.820313 0.37597,0.328125 1.09375,0.328125 0.71094,0 1.26465,-0.307618 0.55371,-0.314453 0.81347,-0.854492 0.19825,-0.416992 0.19825,-1.230468 z m 7.90918,3.643554 v -1.066406 q -0.84766,1.230469 -2.30372,1.230469 -0.64257,0 -1.20312,-0.246094 -0.55371,-0.246094 -0.82715,-0.615234 -0.2666,-0.375977 -0.37598,-0.916016 -0.0752,-0.362305 -0.0752,-1.148437 v -4.498047 h 1.23047 v 4.026367 q 0,0.963867 0.0752,1.298828 0.11621,0.485352 0.49219,0.765625 0.37598,0.273438 0.92969,0.273438 0.55371,0 1.03906,-0.280274 0.48535,-0.287109 0.68359,-0.772461 0.20508,-0.492187 0.20508,-1.421875 v -3.889648 h 1.23047 V 66.8535 Z m 3.00097,0 V 56.832016 h 1.23047 V 66.8535 Z m 5.82422,-1.100586 0.17773,1.086914 q -0.51953,0.109375 -0.92968,0.109375 -0.66992,0 -1.03907,-0.211914 -0.36914,-0.211914 -0.51953,-0.553711 -0.15039,-0.348632 -0.15039,-1.456054 v -4.176758 h -0.90234 v -0.957031 h 0.90234 v -1.797852 l 1.22364,-0.738281 v 2.536133 h 1.2373 v 0.957031 h -1.2373 v 4.245117 q 0,0.526367 0.0615,0.676758 0.0684,0.150391 0.21191,0.239258 0.15039,0.08887 0.42383,0.08887 0.20508,0 0.54004,-0.04785 z"
           id="MessageText"
           style="font-size:14px;font-family:Arial;letter-spacing:0em;white-space:pre;fill:#212121"
           aria-label="Level/Button/Unlocked/Default" />
      </g>
      <g
         id="Button/Unlocked/Hover">
        <g
           id="Fill"
           filter="url(#filter0_d_2_840)">
          <rect
             x="50"
             y="99"
             width="80"
             height="80"
             rx="6"
             fill="#2A2E37"
             id="rect2" />
        </g>
      </g>
      <g
         id="Title_2">
        <rect
           x="50"
           y="204"
           width="198"
           height="24"
           rx="4"
           fill="#FED70A"
           id="rect3" />
        <path
           d="m 59.025391,220.854 v -10.02148 h 1.326171 v 8.83887 h 4.935547 v 1.18261 z m 12.65332,-2.33789 1.271484,0.15723 q -0.300781,1.11426 -1.114258,1.72949 -0.813476,0.61524 -2.078125,0.61524 -1.592773,0 -2.529296,-0.97754 -0.929688,-0.98438 -0.929688,-2.75489 0,-1.83203 0.943359,-2.84375 0.94336,-1.01171 2.447266,-1.01171 1.456055,0 2.378906,0.99121 0.922852,0.99121 0.922852,2.78906 0,0.10937 -0.0068,0.32812 h -5.414063 q 0.06836,1.19629 0.676758,1.83204 0.608399,0.63574 1.517578,0.63574 0.676758,0 1.155274,-0.35547 0.478515,-0.35547 0.758789,-1.13477 z m -4.040039,-1.98925 h 4.053711 q -0.08203,-0.91602 -0.464844,-1.37403 -0.587891,-0.71094 -1.524414,-0.71094 -0.847656,0 -1.428711,0.56739 -0.574219,0.56738 -0.635742,1.51758 z M 76.511719,220.854 73.75,213.59424 h 1.298828 l 1.558594,4.34765 q 0.25293,0.70411 0.464844,1.4629 0.164062,-0.57422 0.458007,-1.38086 l 1.613282,-4.42969 h 1.264648 l -2.748047,7.25976 z m 9.953125,-2.33789 1.271484,0.15723 q -0.300781,1.11426 -1.114258,1.72949 -0.813476,0.61524 -2.078125,0.61524 -1.592773,0 -2.529297,-0.97754 -0.929687,-0.98438 -0.929687,-2.75489 0,-1.83203 0.943359,-2.84375 0.94336,-1.01171 2.447266,-1.01171 1.456055,0 2.378906,0.99121 0.922852,0.99121 0.922852,2.78906 0,0.10937 -0.0068,0.32812 h -5.414063 q 0.06836,1.19629 0.676758,1.83204 0.608399,0.63574 1.517578,0.63574 0.676758,0 1.155274,-0.35547 0.478515,-0.35547 0.758789,-1.13477 z m -4.040039,-1.98925 h 4.053711 q -0.08203,-0.91602 -0.464844,-1.37403 -0.587891,-0.71094 -1.524414,-0.71094 -0.847656,0 -1.428711,0.56739 -0.574219,0.56738 -0.635742,1.51758 z m 6.829101,4.32714 v -10.02148 h 1.230469 V 220.854 Z m 2.214844,0.1709 2.905273,-10.36328 h 0.984375 l -2.898437,10.36328 z m 4.915039,-0.1709 v -10.02148 h 3.759761 q 1.14844,0 1.83887,0.30762 0.69727,0.30078 1.08692,0.93652 0.39648,0.62891 0.39648,1.31934 0,0.64257 -0.34863,1.20996 -0.34864,0.56738 -1.05274,0.91601 0.90918,0.2666 1.39453,0.90918 0.49219,0.64258 0.49219,1.51758 0,0.7041 -0.30078,1.3125 -0.29394,0.60156 -0.73144,0.92969 -0.4375,0.32812 -1.10059,0.49902 -0.65625,0.16406 -1.61328,0.16406 z m 1.326172,-5.81054 h 2.166992 q 0.881837,0 1.264647,-0.11621 0.50586,-0.15039 0.75879,-0.49903 0.25977,-0.34863 0.25977,-0.875 0,-0.49902 -0.23926,-0.875 -0.23926,-0.38281 -0.6836,-0.51953 -0.44433,-0.14355 -1.524409,-0.14355 h -2.00293 z m 0,4.62793 h 2.495119 q 0.64258,0 0.90234,-0.0479 0.45801,-0.082 0.76563,-0.27344 0.30761,-0.19141 0.50586,-0.55371 0.19824,-0.36914 0.19824,-0.84766 0,-0.56055 -0.28711,-0.9707 -0.28711,-0.41699 -0.79981,-0.58106 -0.50585,-0.1709 -1.46289,-0.1709 h -2.317379 z m 12.666989,1.18261 v -1.0664 q -0.84765,1.23047 -2.30371,1.23047 -0.64258,0 -1.20312,-0.2461 -0.55371,-0.24609 -0.82715,-0.61523 -0.2666,-0.37598 -0.37598,-0.91602 -0.0752,-0.3623 -0.0752,-1.14843 v -4.49805 h 1.23047 v 4.02637 q 0,0.96386 0.0752,1.29882 0.11621,0.48536 0.49219,0.76563 0.37598,0.27344 0.92969,0.27344 0.55371,0 1.03906,-0.28028 0.48535,-0.28711 0.68359,-0.77246 0.20508,-0.49219 0.20508,-1.42187 v -3.88965 h 1.23047 v 7.25976 z m 5.71485,-1.10058 0.17773,1.08691 q -0.51953,0.10938 -0.92969,0.10938 -0.66992,0 -1.03906,-0.21192 -0.36914,-0.21191 -0.51953,-0.55371 -0.15039,-0.34863 -0.15039,-1.45605 v -4.17676 h -0.90234 v -0.95703 h 0.90234 v -1.79785 l 1.22363,-0.73828 v 2.53613 h 1.23731 v 0.95703 h -1.23731 v 4.24512 q 0,0.52636 0.0615,0.67675 0.0684,0.1504 0.21191,0.23926 0.15039,0.0889 0.42383,0.0889 0.20508,0 0.54004,-0.0478 z m 3.88965,0 0.17773,1.08691 q -0.51953,0.10938 -0.92969,0.10938 -0.66992,0 -1.03906,-0.21192 -0.36914,-0.21191 -0.51953,-0.55371 -0.15039,-0.34863 -0.15039,-1.45605 v -4.17676 h -0.90235 v -0.95703 h 0.90235 v -1.79785 l 1.22363,-0.73828 v 2.53613 h 1.23731 v 0.95703 h -1.23731 v 4.24512 q 0,0.52636 0.0615,0.67675 0.0684,0.1504 0.21192,0.23926 0.15039,0.0889 0.42383,0.0889 0.20507,0 0.54004,-0.0478 z m 0.74511,-2.5293 q 0,-2.0166 1.1211,-2.9873 0.93652,-0.80664 2.2832,-0.80664 1.49707,0 2.44727,0.98437 0.95019,0.97754 0.95019,2.70703 0,1.40137 -0.42383,2.20801 -0.41699,0.7998 -1.22363,1.24414 -0.79981,0.44434 -1.75,0.44434 -1.52441,0 -2.46777,-0.97754 -0.93653,-0.97754 -0.93653,-2.81641 z m 1.26465,0 q 0,1.39453 0.6084,2.0918 0.6084,0.69043 1.53125,0.69043 0.91602,0 1.52441,-0.69727 0.6084,-0.69726 0.6084,-2.12597 0,-1.34668 -0.61523,-2.03711 -0.6084,-0.69727 -1.51758,-0.69727 -0.92285,0 -1.53125,0.69043 -0.6084,0.69043 -0.6084,2.08496 z m 6.97949,3.62988 v -7.25976 h 1.10742 v 1.03222 q 0.79981,-1.19628 2.31055,-1.19628 0.65625,0 1.20313,0.23925 0.55371,0.23243 0.82715,0.61524 0.27343,0.38281 0.38281,0.90918 0.0684,0.34179 0.0684,1.19629 v 4.46386 h -1.23047 v -4.41601 q 0,-0.75195 -0.14356,-1.1211 -0.14355,-0.37597 -0.51269,-0.59472 -0.36231,-0.22559 -0.85449,-0.22559 -0.78614,0 -1.36036,0.49903 -0.56738,0.49902 -0.56738,1.89355 v 3.96484 z m 6.86328,0.1709 2.90528,-10.36328 h 0.98437 l -2.89843,10.36328 z m 11.5459,-10.19238 h 1.32617 v 5.79004 q 0,1.51074 -0.34179,2.39941 -0.3418,0.88867 -1.23731,1.44922 -0.88867,0.55371 -2.33789,0.55371 -1.4082,0 -2.30371,-0.48535 -0.89551,-0.48535 -1.27832,-1.40137 -0.38281,-0.92285 -0.38281,-2.51562 v -5.79004 h 1.32617 v 5.7832 q 0,1.30567 0.23926,1.92774 0.24609,0.61523 0.83398,0.95019 0.59473,0.33496 1.44922,0.33496 1.46289,0 2.08496,-0.66308 0.62207,-0.66309 0.62207,-2.54981 z m 3.37696,10.02148 v -7.25976 h 1.10742 v 1.03222 q 0.7998,-1.19628 2.31054,-1.19628 0.65625,0 1.20313,0.23925 0.55371,0.23243 0.82715,0.61524 0.27344,0.38281 0.38281,0.90918 0.0684,0.34179 0.0684,1.19629 v 4.46386 h -1.23047 v -4.41601 q 0,-0.75195 -0.14355,-1.1211 -0.14356,-0.37597 -0.5127,-0.59472 -0.3623,-0.22559 -0.85449,-0.22559 -0.78613,0 -1.36035,0.49903 -0.56739,0.49902 -0.56739,1.89355 v 3.96484 z m 7.75878,0 v -10.02148 h 1.23047 V 220.854 Z m 2.67969,-3.62988 q 0,-2.0166 1.1211,-2.9873 0.93652,-0.80664 2.2832,-0.80664 1.49707,0 2.44726,0.98437 0.9502,0.97754 0.9502,2.70703 0,1.40137 -0.42383,2.20801 -0.41699,0.7998 -1.22363,1.24414 -0.79981,0.44434 -1.75,0.44434 -1.52441,0 -2.46777,-0.97754 -0.93653,-0.97754 -0.93653,-2.81641 z m 1.26465,0 q 0,1.39453 0.6084,2.0918 0.6084,0.69043 1.53125,0.69043 0.91601,0 1.52441,-0.69727 0.6084,-0.69726 0.6084,-2.12597 0,-1.34668 -0.61523,-2.03711 -0.6084,-0.69727 -1.51758,-0.69727 -0.92285,0 -1.53125,0.69043 -0.6084,0.69043 -0.6084,2.08496 z m 11.7168,0.9707 1.20996,0.15723 q -0.19824,1.25098 -1.01856,1.96191 -0.81347,0.70411 -2.00293,0.70411 -1.49023,0 -2.39941,-0.97071 -0.90234,-0.97754 -0.90234,-2.7959 0,-1.17578 0.38964,-2.05761 0.38965,-0.88184 1.18262,-1.31934 0.79981,-0.44433 1.73633,-0.44433 1.18262,0 1.93457,0.60156 0.75195,0.59472 0.96387,1.69531 l -1.19629,0.18457 q -0.1709,-0.73144 -0.6084,-1.10058 -0.43066,-0.36915 -1.0459,-0.36915 -0.92969,0 -1.51074,0.66993 -0.58106,0.66308 -0.58106,2.10547 0,1.46289 0.56055,2.12597 0.56055,0.66309 1.46289,0.66309 0.72461,0 1.20996,-0.44434 0.48535,-0.44433 0.61524,-1.36719 z m 2.26953,2.65918 v -10.02148 h 1.23047 v 5.71484 l 2.91211,-2.95312 h 1.59277 l -2.77539,2.69336 3.05566,4.5664 h -1.51757 l -2.39942,-3.71191 -0.86816,0.83398 v 2.87793 z m 11.96289,-2.33789 1.27148,0.15723 q -0.30078,1.11426 -1.11425,1.72949 -0.81348,0.61524 -2.07813,0.61524 -1.59277,0 -2.5293,-0.97754 -0.92968,-0.98438 -0.92968,-2.75489 0,-1.83203 0.94336,-2.84375 0.94336,-1.01171 2.44726,-1.01171 1.45606,0 2.37891,0.99121 0.92285,0.99121 0.92285,2.78906 0,0.10937 -0.007,0.32812 h -5.41406 q 0.0684,1.19629 0.67676,1.83204 0.6084,0.63574 1.51758,0.63574 0.67675,0 1.15527,-0.35547 0.47852,-0.35547 0.75879,-1.13477 z m -4.04004,-1.98925 h 4.05371 q -0.082,-0.91602 -0.46484,-1.37403 -0.58789,-0.71094 -1.52442,-0.71094 -0.84765,0 -1.42871,0.56739 -0.57422,0.56738 -0.63574,1.51758 z m 11.56641,4.32714 v -0.91601 q -0.69043,1.08008 -2.03028,1.08008 -0.86816,0 -1.59961,-0.47852 -0.72461,-0.47851 -1.12793,-1.33301 -0.39648,-0.86133 -0.39648,-1.97558 0,-1.08692 0.3623,-1.96875 0.36231,-0.88867 1.08692,-1.36035 0.72461,-0.47168 1.62012,-0.47168 0.65625,0 1.16894,0.28027 0.5127,0.27344 0.83399,0.71777 v -3.5957 h 1.22363 V 220.854 Z m -3.88965,-3.62304 q 0,1.39453 0.58789,2.08496 0.58789,0.69043 1.38769,0.69043 0.80664,0 1.36719,-0.65625 0.56738,-0.66309 0.56738,-2.0166 0,-1.49024 -0.57421,-2.1875 -0.57422,-0.69727 -1.41504,-0.69727 -0.82032,0 -1.37403,0.66992 -0.54687,0.66992 -0.54687,2.11231 z m 6.04297,3.79394 2.90527,-10.36328 h 0.98438 l -2.89844,10.36328 z m 5.01074,-0.1709 v -10.02148 h 1.32617 v 4.11523 h 5.20899 v -4.11523 h 1.32617 V 220.854 h -1.32617 v -4.72363 h -5.20899 v 4.72363 z m 9.4541,-3.62988 q 0,-2.0166 1.12109,-2.9873 0.93653,-0.80664 2.28321,-0.80664 1.49707,0 2.44726,0.98437 0.9502,0.97754 0.9502,2.70703 0,1.40137 -0.42383,2.20801 -0.41699,0.7998 -1.22363,1.24414 -0.79981,0.44434 -1.75,0.44434 -1.52442,0 -2.46778,-0.97754 -0.93652,-0.97754 -0.93652,-2.81641 z m 1.26465,0 q 0,1.39453 0.6084,2.0918 0.6084,0.69043 1.53125,0.69043 0.91601,0 1.52441,-0.69727 0.6084,-0.69726 0.6084,-2.12597 0,-1.34668 -0.61523,-2.03711 -0.6084,-0.69727 -1.51758,-0.69727 -0.92285,0 -1.53125,0.69043 -0.6084,0.69043 -0.6084,2.08496 z m 8.99609,3.62988 -2.76172,-7.25976 h 1.29883 l 1.5586,4.34765 q 0.25293,0.70411 0.46484,1.4629 0.16406,-0.57422 0.45801,-1.38086 l 1.61328,-4.42969 h 1.26465 l -2.74805,7.25976 z m 9.95313,-2.33789 1.27148,0.15723 q -0.30078,1.11426 -1.11426,1.72949 -0.81347,0.61524 -2.07812,0.61524 -1.59277,0 -2.5293,-0.97754 -0.92968,-0.98438 -0.92968,-2.75489 0,-1.83203 0.94335,-2.84375 0.94336,-1.01171 2.44727,-1.01171 1.45605,0 2.37891,0.99121 0.92285,0.99121 0.92285,2.78906 0,0.10937 -0.007,0.32812 h -5.41406 q 0.0684,1.19629 0.67676,1.83204 0.6084,0.63574 1.51758,0.63574 0.67675,0 1.15527,-0.35547 0.47851,-0.35547 0.75879,-1.13477 z m -4.04004,-1.98925 h 4.05371 q -0.082,-0.91602 -0.46484,-1.37403 -0.58789,-0.71094 -1.52442,-0.71094 -0.84765,0 -1.42871,0.56739 -0.57422,0.56738 -0.63574,1.51758 z m 6.84277,4.32714 v -7.25976 h 1.10742 v 1.10058 q 0.42383,-0.77246 0.7793,-1.01855 0.36231,-0.24609 0.79297,-0.24609 0.62207,0 1.26465,0.39648 l -0.42383,1.1416 q -0.45117,-0.2666 -0.90234,-0.2666 -0.40332,0 -0.72461,0.24609 -0.32129,0.23926 -0.45801,0.66993 -0.20508,0.65625 -0.20508,1.43554 v 3.80078 z"
           id="MessageText_2"
           style="font-size:14px;font-family:Arial;letter-spacing:0em;white-space:pre;fill:#212121"
           aria-label="Level/Button/Unlocked/Hover" />
      </g>
      <g
         id="Button/Unlocked/Default">
        <g
           id="Fill_2"
           filter="url(#filter1_d_2_840)">
          <rect
             x="50"
             y="253"
             width="80"
             height="80"
             rx="6"
             fill="#2A2E37"
             id="rect4" />
          <rect
             x="52"
             y="255"
             width="76"
             height="76"
             rx="4"
             stroke="#E52554"
             stroke-width="4"
             id="rect5" />
        </g>
      </g>
    </g>
    <g
       id="ColumnGroup_2">
      <g
         id="Title_3">
        <rect
           x="305"
           y="50"
           width="192"
           height="24"
           rx="4"
           fill="#FED70A"
           id="rect6" />
        <path
           d="M 314.02539,66.8535 V 56.832016 h 1.32617 v 8.838867 h 4.93555 V 66.8535 Z m 12.65332,-2.33789 1.27149,0.157226 q -0.30079,1.114258 -1.11426,1.729492 -0.81348,0.615235 -2.07813,0.615235 -1.59277,0 -2.52929,-0.977539 -0.92969,-0.984375 -0.92969,-2.754883 0,-1.832031 0.94336,-2.84375 0.94336,-1.011719 2.44726,-1.011719 1.45606,0 2.37891,0.991211 0.92285,0.991211 0.92285,2.789063 0,0.109375 -0.007,0.328125 h -5.41406 q 0.0684,1.196289 0.67676,1.832031 0.6084,0.635742 1.51758,0.635742 0.67676,0 1.15527,-0.355469 0.47852,-0.355468 0.75879,-1.134765 z m -4.04004,-1.989258 h 4.05371 q -0.082,-0.916016 -0.46484,-1.374024 -0.58789,-0.710937 -1.52442,-0.710937 -0.84765,0 -1.42871,0.567383 -0.57421,0.567383 -0.63574,1.517578 z M 331.51172,66.8535 328.75,59.593735 h 1.29883 l 1.55859,4.347656 q 0.25293,0.704102 0.46485,1.462891 0.16406,-0.574219 0.458,-1.38086 l 1.61328,-4.429687 h 1.26465 l -2.74804,7.259765 z m 9.95312,-2.33789 1.27149,0.157226 q -0.30078,1.114258 -1.11426,1.729492 -0.81348,0.615235 -2.07812,0.615235 -1.59278,0 -2.5293,-0.977539 -0.92969,-0.984375 -0.92969,-2.754883 0,-1.832031 0.94336,-2.84375 0.94336,-1.011719 2.44727,-1.011719 1.45605,0 2.3789,0.991211 0.92285,0.991211 0.92285,2.789063 0,0.109375 -0.007,0.328125 h -5.41406 q 0.0684,1.196289 0.67675,1.832031 0.6084,0.635742 1.51758,0.635742 0.67676,0 1.15527,-0.355469 0.47852,-0.355468 0.75879,-1.134765 z m -4.04004,-1.989258 h 4.05372 q -0.082,-0.916016 -0.46485,-1.374024 -0.58789,-0.710937 -1.52441,-0.710937 -0.84766,0 -1.42871,0.567383 -0.57422,0.567383 -0.63575,1.517578 z m 6.82911,4.327148 V 56.832016 h 1.23046 V 66.8535 Z m 2.21484,0.170899 2.90527,-10.363281 h 0.98438 l -2.89844,10.363281 z M 351.38379,66.8535 V 56.832016 h 3.75976 q 1.14844,0 1.83887,0.307617 0.69727,0.300781 1.08692,0.936524 0.39648,0.628906 0.39648,1.319336 0,0.642578 -0.34863,1.20996 -0.34864,0.567383 -1.05274,0.916016 0.90918,0.266602 1.39453,0.90918 0.49219,0.642578 0.49219,1.517578 0,0.704101 -0.30078,1.3125 -0.29394,0.601562 -0.73144,0.929687 -0.4375,0.328125 -1.10059,0.499024 -0.65625,0.164062 -1.61328,0.164062 z m 1.32617,-5.810547 h 2.16699 q 0.88184,0 1.26465,-0.11621 0.50586,-0.150391 0.75879,-0.499024 0.25977,-0.348633 0.25977,-0.875 0,-0.499023 -0.23926,-0.875 -0.23926,-0.382812 -0.6836,-0.519531 -0.44433,-0.143555 -1.52441,-0.143555 h -2.00293 z m 0,4.62793 h 2.49512 q 0.64258,0 0.90234,-0.04785 0.45801,-0.08203 0.76563,-0.273438 0.30761,-0.191406 0.50586,-0.553711 0.19824,-0.36914 0.19824,-0.847656 0,-0.560547 -0.28711,-0.970703 -0.28711,-0.416992 -0.79981,-0.581055 -0.50586,-0.170898 -1.46289,-0.170898 h -2.31738 z m 12.66699,1.182617 v -1.066406 q -0.84765,1.230469 -2.30371,1.230469 -0.64258,0 -1.20312,-0.246094 -0.55371,-0.246094 -0.82715,-0.615234 -0.2666,-0.375977 -0.37598,-0.916016 -0.0752,-0.362305 -0.0752,-1.148437 v -4.498047 h 1.23047 v 4.026367 q 0,0.963867 0.0752,1.298828 0.11621,0.485352 0.49219,0.765625 0.37597,0.273438 0.92969,0.273438 0.55371,0 1.03906,-0.280274 0.48535,-0.287109 0.68359,-0.772461 0.20508,-0.492187 0.20508,-1.421875 v -3.889648 h 1.23047 V 66.8535 Z m 5.71485,-1.100586 0.17773,1.086914 q -0.51953,0.109375 -0.92969,0.109375 -0.66992,0 -1.03906,-0.211914 -0.36914,-0.211914 -0.51953,-0.553711 -0.15039,-0.348632 -0.15039,-1.456054 v -4.176758 h -0.90234 v -0.957031 h 0.90234 v -1.797852 l 1.22363,-0.738281 v 2.536133 h 1.23731 v 0.957031 h -1.23731 v 4.245117 q 0,0.526367 0.0615,0.676758 0.0684,0.150391 0.21191,0.239258 0.15039,0.08887 0.42383,0.08887 0.20508,0 0.54004,-0.04785 z m 3.88965,0 0.17773,1.086914 q -0.51953,0.109375 -0.92969,0.109375 -0.66992,0 -1.03906,-0.211914 -0.36914,-0.211914 -0.51953,-0.553711 -0.15039,-0.348632 -0.15039,-1.456054 v -4.176758 h -0.90235 v -0.957031 h 0.90235 v -1.797852 l 1.22363,-0.738281 v 2.536133 h 1.23731 v 0.957031 h -1.23731 v 4.245117 q 0,0.526367 0.0615,0.676758 0.0684,0.150391 0.21192,0.239258 0.15039,0.08887 0.42383,0.08887 0.20507,0 0.54004,-0.04785 z m 0.74511,-2.529296 q 0,-2.016602 1.1211,-2.987305 0.93652,-0.806641 2.2832,-0.806641 1.49707,0 2.44726,0.984375 0.9502,0.977539 0.9502,2.707031 0,1.401368 -0.42383,2.208008 -0.41699,0.799805 -1.22363,1.244141 -0.79981,0.444336 -1.75,0.444336 -1.52441,0 -2.46777,-0.977539 -0.93653,-0.977539 -0.93653,-2.816406 z m 1.26465,0 q 0,1.394531 0.6084,2.091796 0.6084,0.69043 1.53125,0.69043 0.91601,0 1.52441,-0.697266 0.6084,-0.697265 0.6084,-2.125976 0,-1.34668 -0.61523,-2.037109 -0.6084,-0.697266 -1.51758,-0.697266 -0.92285,0 -1.53125,0.69043 -0.6084,0.690429 -0.6084,2.084961 z m 6.97949,3.629882 v -7.259765 h 1.10742 v 1.032226 q 0.79981,-1.196289 2.31055,-1.196289 0.65625,0 1.20313,0.239258 0.55371,0.232422 0.82715,0.615234 0.27343,0.382813 0.38281,0.90918 0.0684,0.341797 0.0684,1.196289 V 66.8535 h -1.23047 v -4.416015 q 0,-0.751953 -0.14356,-1.121094 -0.14355,-0.375977 -0.51269,-0.594727 -0.36231,-0.225586 -0.85449,-0.225586 -0.78614,0 -1.36036,0.499024 -0.56738,0.499023 -0.56738,1.893555 V 66.8535 Z m 6.86328,0.170899 2.90528,-10.363281 h 0.98437 L 391.8252,67.024399 Z M 395.74902,66.8535 V 56.832016 h 1.32618 v 8.838867 h 4.93554 V 66.8535 Z m 7.22559,-3.629882 q 0,-2.016602 1.12109,-2.987305 0.93653,-0.806641 2.28321,-0.806641 1.49707,0 2.44726,0.984375 0.9502,0.977539 0.9502,2.707031 0,1.401368 -0.42383,2.208008 -0.41699,0.799805 -1.22363,1.244141 -0.79981,0.444336 -1.75,0.444336 -1.52442,0 -2.46778,-0.977539 -0.93652,-0.977539 -0.93652,-2.816406 z m 1.26465,0 q 0,1.394531 0.6084,2.091796 0.60839,0.69043 1.53125,0.69043 0.91601,0 1.52441,-0.697266 0.6084,-0.697265 0.6084,-2.125976 0,-1.34668 -0.61524,-2.037109 -0.60839,-0.697266 -1.51757,-0.697266 -0.92286,0 -1.53125,0.69043 -0.6084,0.690429 -0.6084,2.084961 z m 11.71679,0.970703 1.20997,0.157226 q -0.19825,1.250977 -1.01856,1.961914 -0.81348,0.704102 -2.00293,0.704102 -1.49023,0 -2.39941,-0.970703 -0.90235,-0.977539 -0.90235,-2.795899 0,-1.175781 0.38965,-2.057617 0.38965,-0.881836 1.18262,-1.319336 0.7998,-0.444336 1.73633,-0.444336 1.18261,0 1.93457,0.601563 0.75195,0.594726 0.96386,1.695312 l -1.19628,0.184571 q -0.1709,-0.731446 -0.6084,-1.100586 -0.43067,-0.369141 -1.0459,-0.369141 -0.92969,0 -1.51074,0.669922 -0.58106,0.663086 -0.58106,2.105469 0,1.46289 0.56055,2.125976 0.56055,0.663086 1.46289,0.663086 0.72461,0 1.20996,-0.444336 0.48535,-0.444336 0.61523,-1.367187 z m 2.26954,2.659179 V 56.832016 h 1.23046 v 5.714844 l 2.91211,-2.953125 h 1.59278 l -2.77539,2.693359 3.05566,4.566406 h -1.51758 l -2.39941,-3.711914 -0.86817,0.833985 V 66.8535 Z m 11.96289,-2.33789 1.27148,0.157226 q -0.30078,1.114258 -1.11426,1.729492 -0.81347,0.615235 -2.07812,0.615235 -1.59278,0 -2.5293,-0.977539 -0.92969,-0.984375 -0.92969,-2.754883 0,-1.832031 0.94336,-2.84375 0.94336,-1.011719 2.44727,-1.011719 1.45605,0 2.3789,0.991211 0.92286,0.991211 0.92286,2.789063 0,0.109375 -0.007,0.328125 h -5.41406 q 0.0684,1.196289 0.67676,1.832031 0.60839,0.635742 1.51757,0.635742 0.67676,0 1.15528,-0.355469 0.47851,-0.355468 0.75879,-1.134765 z m -4.04004,-1.989258 h 4.05371 q -0.082,-0.916016 -0.46485,-1.374024 -0.58789,-0.710937 -1.52441,-0.710937 -0.84766,0 -1.42871,0.567383 -0.57422,0.567383 -0.63574,1.517578 z m 11.5664,4.327148 v -0.916015 q -0.69043,1.080078 -2.03027,1.080078 -0.86816,0 -1.59961,-0.478516 -0.72461,-0.478515 -1.12793,-1.333008 -0.39648,-0.861328 -0.39648,-1.975586 0,-1.086914 0.3623,-1.96875 0.36231,-0.888671 1.08692,-1.360351 0.7246,-0.47168 1.62011,-0.47168 0.65625,0 1.16895,0.280274 0.51269,0.273437 0.83398,0.717773 v -3.595703 h 1.22364 V 66.8535 Z m -3.88964,-3.623047 q 0,1.394532 0.58789,2.084961 0.58789,0.69043 1.38769,0.69043 0.80664,0 1.36719,-0.65625 0.56738,-0.663086 0.56738,-2.016601 0,-1.490235 -0.57422,-2.1875 -0.57422,-0.697266 -1.41504,-0.697266 -0.82031,0 -1.37402,0.669922 -0.54687,0.669922 -0.54687,2.112304 z m 6.04296,3.793946 2.90528,-10.363281 h 0.98437 l -2.89844,10.363281 z M 444.83789,66.8535 V 56.832016 h 3.45215 q 1.16894,0 1.78418,0.143555 0.86133,0.198242 1.46973,0.717773 0.79296,0.669922 1.18261,1.71582 0.39649,1.039063 0.39649,2.378907 0,1.141601 -0.2666,2.023437 -0.26661,0.881836 -0.6836,1.462891 -0.41699,0.574219 -0.91601,0.909179 -0.49219,0.328125 -1.19629,0.499024 -0.69727,0.170898 -1.60645,0.170898 z m 1.32617,-1.182617 h 2.13965 q 0.99121,0 1.55176,-0.18457 0.56738,-0.18457 0.90234,-0.519531 0.47168,-0.47168 0.73145,-1.264649 0.2666,-0.799805 0.2666,-1.93457 0,-1.572266 -0.51953,-2.413086 -0.5127,-0.847656 -1.25098,-1.134766 -0.5332,-0.205078 -1.71582,-0.205078 h -2.10547 z m 13.59668,-1.155273 1.27149,0.157226 q -0.30078,1.114258 -1.11426,1.729492 -0.81348,0.615235 -2.07813,0.615235 -1.59277,0 -2.52929,-0.977539 -0.92969,-0.984375 -0.92969,-2.754883 0,-1.832031 0.94336,-2.84375 0.94336,-1.011719 2.44726,-1.011719 1.45606,0 2.37891,0.991211 0.92285,0.991211 0.92285,2.789063 0,0.109375 -0.007,0.328125 h -5.41407 q 0.0684,1.196289 0.67676,1.832031 0.6084,0.635742 1.51758,0.635742 0.67676,0 1.15527,-0.355469 0.47852,-0.355468 0.75879,-1.134765 z m -4.04004,-1.989258 h 4.05371 q -0.082,-0.916016 -0.46484,-1.374024 -0.58789,-0.710937 -1.52441,-0.710937 -0.84766,0 -1.42871,0.567383 -0.57422,0.567383 -0.63575,1.517578 z m 7.15039,4.327148 v -6.302734 h -1.08691 v -0.957031 h 1.08691 v -0.772461 q 0,-0.731446 0.12989,-1.086914 0.17773,-0.478516 0.62207,-0.772461 0.45117,-0.300781 1.25781,-0.300781 0.51953,0 1.14844,0.123046 l -0.18457,1.073243 q -0.38282,-0.06836 -0.72461,-0.06836 -0.56055,0 -0.79297,0.239258 -0.23242,0.239258 -0.23242,0.895508 v 0.669922 h 1.41504 v 0.957031 h -1.41504 V 66.8535 Z m 8.33301,-0.895507 q -0.68359,0.581054 -1.31933,0.820312 -0.62891,0.239258 -1.35352,0.239258 -1.19629,0 -1.83887,-0.581055 -0.64258,-0.58789 -0.64258,-1.49707 0,-0.533203 0.23926,-0.970703 0.2461,-0.444336 0.63574,-0.710938 0.39649,-0.266601 0.88868,-0.40332 0.3623,-0.0957 1.09375,-0.18457 1.49023,-0.177735 2.19433,-0.423829 0.007,-0.252929 0.007,-0.321289 0,-0.751953 -0.34863,-1.05957 -0.47168,-0.416992 -1.40137,-0.416992 -0.86817,0 -1.28516,0.307617 -0.41015,0.300781 -0.6084,1.073242 l -1.20312,-0.164062 q 0.16406,-0.772461 0.54004,-1.244141 0.37597,-0.478515 1.08691,-0.731445 0.71094,-0.259766 1.64746,-0.259766 0.92969,0 1.51074,0.21875 0.58106,0.21875 0.8545,0.553711 0.27343,0.328125 0.38281,0.833985 0.0615,0.314453 0.0615,1.134765 v 1.640625 q 0,1.71582 0.0752,2.173828 0.082,0.451172 0.31445,0.868164 h -1.28515 q -0.19141,-0.382812 -0.2461,-0.895507 z m -0.10254,-2.748047 q -0.66992,0.273437 -2.00976,0.464843 -0.75879,0.109375 -1.07325,0.246094 -0.31445,0.136719 -0.48535,0.40332 -0.1709,0.259766 -0.1709,0.581055 0,0.492188 0.36915,0.820313 0.37597,0.328125 1.09375,0.328125 0.71093,0 1.26464,-0.307618 0.55371,-0.314453 0.81348,-0.854492 0.19824,-0.416992 0.19824,-1.230468 z m 7.90918,3.643554 v -1.066406 q -0.84765,1.230469 -2.30371,1.230469 -0.64258,0 -1.20312,-0.246094 -0.55371,-0.246094 -0.82715,-0.615234 -0.2666,-0.375977 -0.37598,-0.916016 -0.0752,-0.362305 -0.0752,-1.148437 v -4.498047 h 1.23046 v 4.026367 q 0,0.963867 0.0752,1.298828 0.11621,0.485352 0.49219,0.765625 0.37597,0.273438 0.92968,0.273438 0.55372,0 1.03907,-0.280274 0.48535,-0.287109 0.68359,-0.772461 0.20508,-0.492187 0.20508,-1.421875 v -3.889648 h 1.23047 V 66.8535 Z m 3.00098,0 V 56.832016 h 1.23047 V 66.8535 Z m 5.82422,-1.100586 0.17773,1.086914 q -0.51953,0.109375 -0.92969,0.109375 -0.66992,0 -1.03906,-0.211914 -0.36914,-0.211914 -0.51953,-0.553711 -0.15039,-0.348632 -0.15039,-1.456054 v -4.176758 h -0.90234 v -0.957031 h 0.90234 v -1.797852 l 1.22363,-0.738281 v 2.536133 h 1.23731 v 0.957031 h -1.23731 v 4.245117 q 0,0.526367 0.0615,0.676758 0.0684,0.150391 0.21191,0.239258 0.15039,0.08887 0.42383,0.08887 0.20508,0 0.54004,-0.04785 z"
           id="MessageText_3"
           style="font-size:14px;font-family:Arial;letter-spacing:0em;white-space:pre;fill:#212121"
           aria-label="Level/Button/Locked/Default" />
      </g>
      <g
         id="Button/Locked/Hover">
        <g
           id="Level/Button/Unlocked">
          <g
             id="Fill_3"
             filter="url(#filter2_d_2_840)">
            <rect
               x="305"
               y="99"
               width="80"
               height="80"
               rx="6"
               fill="#2A2E37"
               id="rect7" />
          </g>
        </g>
        <g
           id="Icon/Locker">
          <path
             id="Locker"
             fill-rule="evenodd"
             clip-rule="evenodd"
             d="M350.506 130.427H338.492V126.591C338.492 123.33 341.206 120.644 344.5 120.644C347.792 120.644 350.506 123.33 350.506 126.591V130.427ZM344.5 147.69C342.367 147.69 340.625 145.964 340.625 143.854C340.625 141.744 342.367 140.018 344.5 140.018C346.631 140.018 348.375 141.744 348.375 143.854C348.375 145.964 346.631 147.69 344.5 147.69ZM356.125 130.427H354.187V126.591C354.187 121.22 349.925 117 344.5 117C339.074 117 334.812 121.22 334.812 126.591V130.427H332.875C330.742 130.427 329 132.153 329 134.263V153.444C329 155.554 330.742 157.281 332.875 157.281H356.125C358.256 157.281 360 155.554 360 153.444V134.263C360 132.153 358.256 130.427 356.125 130.427Z"
             fill="#F5F5F5" />
        </g>
      </g>
      <g
         id="Title_4">
        <rect
           x="305"
           y="204"
           width="185"
           height="24"
           rx="4"
           fill="#FED70A"
           id="rect8" />
        <path
           d="m 314.02539,220.854 v -10.02148 h 1.32617 v 8.83887 h 4.93555 v 1.18261 z m 12.65332,-2.33789 1.27149,0.15723 q -0.30079,1.11426 -1.11426,1.72949 -0.81348,0.61524 -2.07813,0.61524 -1.59277,0 -2.52929,-0.97754 -0.92969,-0.98438 -0.92969,-2.75489 0,-1.83203 0.94336,-2.84375 0.94336,-1.01171 2.44726,-1.01171 1.45606,0 2.37891,0.99121 0.92285,0.99121 0.92285,2.78906 0,0.10937 -0.007,0.32812 h -5.41406 q 0.0684,1.19629 0.67676,1.83204 0.6084,0.63574 1.51758,0.63574 0.67676,0 1.15527,-0.35547 0.47852,-0.35547 0.75879,-1.13477 z m -4.04004,-1.98925 h 4.05371 q -0.082,-0.91602 -0.46484,-1.37403 -0.58789,-0.71094 -1.52442,-0.71094 -0.84765,0 -1.42871,0.56739 -0.57421,0.56738 -0.63574,1.51758 z m 8.87305,4.32714 -2.76172,-7.25976 h 1.29883 l 1.55859,4.34765 q 0.25293,0.70411 0.46485,1.4629 0.16406,-0.57422 0.458,-1.38086 l 1.61328,-4.42969 h 1.26465 l -2.74804,7.25976 z m 9.95312,-2.33789 1.27149,0.15723 q -0.30078,1.11426 -1.11426,1.72949 -0.81348,0.61524 -2.07812,0.61524 -1.59278,0 -2.5293,-0.97754 -0.92969,-0.98438 -0.92969,-2.75489 0,-1.83203 0.94336,-2.84375 0.94336,-1.01171 2.44727,-1.01171 1.45605,0 2.3789,0.99121 0.92285,0.99121 0.92285,2.78906 0,0.10937 -0.007,0.32812 h -5.41406 q 0.0684,1.19629 0.67675,1.83204 0.6084,0.63574 1.51758,0.63574 0.67676,0 1.15527,-0.35547 0.47852,-0.35547 0.75879,-1.13477 z m -4.04004,-1.98925 h 4.05372 q -0.082,-0.91602 -0.46485,-1.37403 -0.58789,-0.71094 -1.52441,-0.71094 -0.84766,0 -1.42871,0.56739 -0.57422,0.56738 -0.63575,1.51758 z m 6.82911,4.32714 v -10.02148 h 1.23046 V 220.854 Z m 2.21484,0.1709 2.90527,-10.36328 h 0.98438 l -2.89844,10.36328 z m 4.91504,-0.1709 v -10.02148 h 3.75976 q 1.14844,0 1.83887,0.30762 0.69727,0.30078 1.08692,0.93652 0.39648,0.62891 0.39648,1.31934 0,0.64257 -0.34863,1.20996 -0.34864,0.56738 -1.05274,0.91601 0.90918,0.2666 1.39453,0.90918 0.49219,0.64258 0.49219,1.51758 0,0.7041 -0.30078,1.3125 -0.29394,0.60156 -0.73144,0.92969 -0.4375,0.32812 -1.10059,0.49902 -0.65625,0.16406 -1.61328,0.16406 z m 1.32617,-5.81054 h 2.16699 q 0.88184,0 1.26465,-0.11621 0.50586,-0.15039 0.75879,-0.49903 0.25977,-0.34863 0.25977,-0.875 0,-0.49902 -0.23926,-0.875 -0.23926,-0.38281 -0.6836,-0.51953 -0.44433,-0.14355 -1.52441,-0.14355 h -2.00293 z m 0,4.62793 h 2.49512 q 0.64258,0 0.90234,-0.0479 0.45801,-0.082 0.76563,-0.27344 0.30761,-0.19141 0.50586,-0.55371 0.19824,-0.36914 0.19824,-0.84766 0,-0.56055 -0.28711,-0.9707 -0.28711,-0.41699 -0.79981,-0.58106 -0.50586,-0.1709 -1.46289,-0.1709 h -2.31738 z m 12.66699,1.18261 v -1.0664 q -0.84765,1.23047 -2.30371,1.23047 -0.64258,0 -1.20312,-0.2461 -0.55371,-0.24609 -0.82715,-0.61523 -0.2666,-0.37598 -0.37598,-0.91602 -0.0752,-0.3623 -0.0752,-1.14843 v -4.49805 h 1.23047 v 4.02637 q 0,0.96386 0.0752,1.29882 0.11621,0.48536 0.49219,0.76563 0.37597,0.27344 0.92969,0.27344 0.55371,0 1.03906,-0.28028 0.48535,-0.28711 0.68359,-0.77246 0.20508,-0.49219 0.20508,-1.42187 v -3.88965 h 1.23047 v 7.25976 z m 5.71485,-1.10058 0.17773,1.08691 q -0.51953,0.10938 -0.92969,0.10938 -0.66992,0 -1.03906,-0.21192 -0.36914,-0.21191 -0.51953,-0.55371 -0.15039,-0.34863 -0.15039,-1.45605 v -4.17676 h -0.90234 v -0.95703 h 0.90234 v -1.79785 l 1.22363,-0.73828 v 2.53613 h 1.23731 v 0.95703 h -1.23731 v 4.24512 q 0,0.52636 0.0615,0.67675 0.0684,0.1504 0.21191,0.23926 0.15039,0.0889 0.42383,0.0889 0.20508,0 0.54004,-0.0478 z m 3.88965,0 0.17773,1.08691 q -0.51953,0.10938 -0.92969,0.10938 -0.66992,0 -1.03906,-0.21192 -0.36914,-0.21191 -0.51953,-0.55371 -0.15039,-0.34863 -0.15039,-1.45605 v -4.17676 h -0.90235 v -0.95703 h 0.90235 v -1.79785 l 1.22363,-0.73828 v 2.53613 h 1.23731 v 0.95703 h -1.23731 v 4.24512 q 0,0.52636 0.0615,0.67675 0.0684,0.1504 0.21192,0.23926 0.15039,0.0889 0.42383,0.0889 0.20507,0 0.54004,-0.0478 z m 0.74511,-2.5293 q 0,-2.0166 1.1211,-2.9873 0.93652,-0.80664 2.2832,-0.80664 1.49707,0 2.44726,0.98437 0.9502,0.97754 0.9502,2.70703 0,1.40137 -0.42383,2.20801 -0.41699,0.7998 -1.22363,1.24414 -0.79981,0.44434 -1.75,0.44434 -1.52441,0 -2.46777,-0.97754 -0.93653,-0.97754 -0.93653,-2.81641 z m 1.26465,0 q 0,1.39453 0.6084,2.0918 0.6084,0.69043 1.53125,0.69043 0.91601,0 1.52441,-0.69727 0.6084,-0.69726 0.6084,-2.12597 0,-1.34668 -0.61523,-2.03711 -0.6084,-0.69727 -1.51758,-0.69727 -0.92285,0 -1.53125,0.69043 -0.6084,0.69043 -0.6084,2.08496 z m 6.97949,3.62988 v -7.25976 h 1.10742 v 1.03222 q 0.79981,-1.19628 2.31055,-1.19628 0.65625,0 1.20313,0.23925 0.55371,0.23243 0.82715,0.61524 0.27343,0.38281 0.38281,0.90918 0.0684,0.34179 0.0684,1.19629 v 4.46386 h -1.23047 v -4.41601 q 0,-0.75195 -0.14356,-1.1211 -0.14355,-0.37597 -0.51269,-0.59472 -0.36231,-0.22559 -0.85449,-0.22559 -0.78614,0 -1.36036,0.49903 -0.56738,0.49902 -0.56738,1.89355 v 3.96484 z m 6.86328,0.1709 2.90528,-10.36328 h 0.98437 l -2.89843,10.36328 z m 4.91504,-0.1709 v -10.02148 h 1.32618 v 8.83887 h 4.93554 v 1.18261 z m 7.22559,-3.62988 q 0,-2.0166 1.12109,-2.9873 0.93653,-0.80664 2.28321,-0.80664 1.49707,0 2.44726,0.98437 0.9502,0.97754 0.9502,2.70703 0,1.40137 -0.42383,2.20801 -0.41699,0.7998 -1.22363,1.24414 -0.79981,0.44434 -1.75,0.44434 -1.52442,0 -2.46778,-0.97754 -0.93652,-0.97754 -0.93652,-2.81641 z m 1.26465,0 q 0,1.39453 0.6084,2.0918 0.60839,0.69043 1.53125,0.69043 0.91601,0 1.52441,-0.69727 0.6084,-0.69726 0.6084,-2.12597 0,-1.34668 -0.61524,-2.03711 -0.60839,-0.69727 -1.51757,-0.69727 -0.92286,0 -1.53125,0.69043 -0.6084,0.69043 -0.6084,2.08496 z m 11.71679,0.9707 1.20997,0.15723 q -0.19825,1.25098 -1.01856,1.96191 -0.81348,0.70411 -2.00293,0.70411 -1.49023,0 -2.39941,-0.97071 -0.90235,-0.97754 -0.90235,-2.7959 0,-1.17578 0.38965,-2.05761 0.38965,-0.88184 1.18262,-1.31934 0.7998,-0.44433 1.73633,-0.44433 1.18261,0 1.93457,0.60156 0.75195,0.59472 0.96386,1.69531 l -1.19628,0.18457 q -0.1709,-0.73144 -0.6084,-1.10058 -0.43067,-0.36915 -1.0459,-0.36915 -0.92969,0 -1.51074,0.66993 -0.58106,0.66308 -0.58106,2.10547 0,1.46289 0.56055,2.12597 0.56055,0.66309 1.46289,0.66309 0.72461,0 1.20996,-0.44434 0.48535,-0.44433 0.61523,-1.36719 z m 2.26954,2.65918 v -10.02148 h 1.23046 v 5.71484 l 2.91211,-2.95312 h 1.59278 l -2.77539,2.69336 3.05566,4.5664 h -1.51758 l -2.39941,-3.71191 -0.86817,0.83398 v 2.87793 z m 11.96289,-2.33789 1.27148,0.15723 q -0.30078,1.11426 -1.11426,1.72949 -0.81347,0.61524 -2.07812,0.61524 -1.59278,0 -2.5293,-0.97754 -0.92969,-0.98438 -0.92969,-2.75489 0,-1.83203 0.94336,-2.84375 0.94336,-1.01171 2.44727,-1.01171 1.45605,0 2.3789,0.99121 0.92286,0.99121 0.92286,2.78906 0,0.10937 -0.007,0.32812 h -5.41406 q 0.0684,1.19629 0.67676,1.83204 0.60839,0.63574 1.51757,0.63574 0.67676,0 1.15528,-0.35547 0.47851,-0.35547 0.75879,-1.13477 z m -4.04004,-1.98925 h 4.05371 q -0.082,-0.91602 -0.46485,-1.37403 -0.58789,-0.71094 -1.52441,-0.71094 -0.84766,0 -1.42871,0.56739 -0.57422,0.56738 -0.63574,1.51758 z m 11.5664,4.32714 v -0.91601 q -0.69043,1.08008 -2.03027,1.08008 -0.86816,0 -1.59961,-0.47852 -0.72461,-0.47851 -1.12793,-1.33301 -0.39648,-0.86133 -0.39648,-1.97558 0,-1.08692 0.3623,-1.96875 0.36231,-0.88867 1.08692,-1.36035 0.7246,-0.47168 1.62011,-0.47168 0.65625,0 1.16895,0.28027 0.51269,0.27344 0.83398,0.71777 v -3.5957 h 1.22364 V 220.854 Z m -3.88964,-3.62304 q 0,1.39453 0.58789,2.08496 0.58789,0.69043 1.38769,0.69043 0.80664,0 1.36719,-0.65625 0.56738,-0.66309 0.56738,-2.0166 0,-1.49024 -0.57422,-2.1875 -0.57422,-0.69727 -1.41504,-0.69727 -0.82031,0 -1.37402,0.66992 -0.54687,0.66992 -0.54687,2.11231 z m 6.04296,3.79394 2.90528,-10.36328 h 0.98437 l -2.89844,10.36328 z m 5.01075,-0.1709 v -10.02148 h 1.32617 v 4.11523 h 5.20898 v -4.11523 h 1.32617 V 220.854 h -1.32617 v -4.72363 h -5.20898 v 4.72363 z m 9.4541,-3.62988 q 0,-2.0166 1.12109,-2.9873 0.93652,-0.80664 2.2832,-0.80664 1.49707,0 2.44727,0.98437 0.9502,0.97754 0.9502,2.70703 0,1.40137 -0.42383,2.20801 -0.41699,0.7998 -1.22364,1.24414 -0.7998,0.44434 -1.75,0.44434 -1.52441,0 -2.46777,-0.97754 -0.93652,-0.97754 -0.93652,-2.81641 z m 1.26465,0 q 0,1.39453 0.60839,2.0918 0.6084,0.69043 1.53125,0.69043 0.91602,0 1.52442,-0.69727 0.6084,-0.69726 0.6084,-2.12597 0,-1.34668 -0.61524,-2.03711 -0.6084,-0.69727 -1.51758,-0.69727 -0.92285,0 -1.53125,0.69043 -0.60839,0.69043 -0.60839,2.08496 z m 8.99609,3.62988 -2.76172,-7.25976 h 1.29883 l 1.55859,4.34765 q 0.25293,0.70411 0.46485,1.4629 0.16406,-0.57422 0.458,-1.38086 l 1.61329,-4.42969 h 1.26464 l -2.74804,7.25976 z m 9.95312,-2.33789 1.27149,0.15723 q -0.30078,1.11426 -1.11426,1.72949 -0.81348,0.61524 -2.07812,0.61524 -1.59278,0 -2.5293,-0.97754 -0.92969,-0.98438 -0.92969,-2.75489 0,-1.83203 0.94336,-2.84375 0.94336,-1.01171 2.44727,-1.01171 1.45605,0 2.3789,0.99121 0.92285,0.99121 0.92285,2.78906 0,0.10937 -0.007,0.32812 h -5.41406 q 0.0684,1.19629 0.67675,1.83204 0.6084,0.63574 1.51758,0.63574 0.67676,0 1.15528,-0.35547 0.47851,-0.35547 0.75878,-1.13477 z m -4.04003,-1.98925 h 4.05371 q -0.082,-0.91602 -0.46485,-1.37403 -0.58789,-0.71094 -1.52441,-0.71094 -0.84766,0 -1.42871,0.56739 -0.57422,0.56738 -0.63574,1.51758 z m 6.84277,4.32714 v -7.25976 h 1.10742 v 1.10058 q 0.42383,-0.77246 0.7793,-1.01855 0.3623,-0.24609 0.79297,-0.24609 0.62207,0 1.26465,0.39648 l -0.42383,1.1416 q -0.45117,-0.2666 -0.90235,-0.2666 -0.40332,0 -0.72461,0.24609 -0.32129,0.23926 -0.458,0.66993 -0.20508,0.65625 -0.20508,1.43554 v 3.80078 z"
           id="MessageText_4"
           style="font-size:14px;font-family:Arial;letter-spacing:0em;white-space:pre;fill:#212121"
           aria-label="Level/Button/Locked/Hover" />
      </g>
      <g
         id="Button/Locked/Default">
        <g
           id="Level/Button/Unlocked_2">
          <g
             id="Fill_4"
             filter="url(#filter3_d_2_840)">
            <rect
               x="305"
               y="253"
               width="80"
               height="80"
               rx="6"
               fill="#2A2E37"
               id="rect9" />
            <rect
               x="307"
               y="255"
               width="76"
               height="76"
               rx="4"
               stroke="#E52554"
               stroke-width="4"
               id="rect10" />
          </g>
        </g>
        <g
           id="Icon/Locker_2">
          <path
             id="Locker_2"
             fill-rule="evenodd"
             clip-rule="evenodd"
             d="M350.506 284.427H338.492V280.591C338.492 277.33 341.206 274.644 344.5 274.644C347.792 274.644 350.506 277.33 350.506 280.591V284.427ZM344.5 301.69C342.367 301.69 340.625 299.964 340.625 297.854C340.625 295.744 342.367 294.018 344.5 294.018C346.631 294.018 348.375 295.744 348.375 297.854C348.375 299.964 346.631 301.69 344.5 301.69ZM356.125 284.427H354.187V280.591C354.187 275.22 349.925 271 344.5 271C339.074 271 334.812 275.22 334.812 280.591V284.427H332.875C330.742 284.427 329 286.153 329 288.263V307.444C329 309.554 330.742 311.281 332.875 311.281H356.125C358.256 311.281 360 309.554 360 307.444V288.263C360 286.153 358.256 284.427 356.125 284.427Z"
             fill="#F5F5F5" />
        </g>
      </g>
    </g>
  </g>
  <defs
     id="defs18">
    <filter
       id="filter0_d_2_840"
       x="46"
       y="99"
       width="88"
       height="88"
       filterUnits="userSpaceOnUse"
       color-interpolation-filters="sRGB">
      <feFlood
         flood-opacity="0"
         result="BackgroundImageFix"
         id="feFlood10" />
      <feColorMatrix
         in="SourceAlpha"
         type="matrix"
         values="0 0 0 0 0 0 0 0 0 0 0 0 0 0 0 0 0 0 127 0"
         result="hardAlpha"
         id="feColorMatrix10" />
      <feOffset
         dy="4"
         id="feOffset10" />
      <feGaussianBlur
         stdDeviation="2"
         id="feGaussianBlur10" />
      <feComposite
         in2="hardAlpha"
         operator="out"
         id="feComposite10" />
      <feColorMatrix
         type="matrix"
         values="0 0 0 0 0 0 0 0 0 0 0 0 0 0 0 0 0 0 0.2 0"
         id="feColorMatrix11" />
      <feBlend
         mode="normal"
         in2="BackgroundImageFix"
         result="effect1_dropShadow_2_840"
         id="feBlend11" />
      <feBlend
         mode="normal"
         in="SourceGraphic"
         in2="effect1_dropShadow_2_840"
         result="shape"
         id="feBlend12" />
    </filter>
    <filter
       id="filter1_d_2_840"
       x="46"
       y="253"
       width="88"
       height="88"
       filterUnits="userSpaceOnUse"
       color-interpolation-filters="sRGB">
      <feFlood
         flood-opacity="0"
         result="BackgroundImageFix"
         id="feFlood12" />
      <feColorMatrix
         in="SourceAlpha"
         type="matrix"
         values="0 0 0 0 0 0 0 0 0 0 0 0 0 0 0 0 0 0 127 0"
         result="hardAlpha"
         id="feColorMatrix12" />
      <feOffset
         dy="4"
         id="feOffset12" />
      <feGaussianBlur
         stdDeviation="2"
         id="feGaussianBlur12" />
      <feComposite
         in2="hardAlpha"
         operator="out"
         id="feComposite12" />
      <feColorMatrix
         type="matrix"
         values="0 0 0 0 0 0 0 0 0 0 0 0 0 0 0 0 0 0 0.2 0"
         id="feColorMatrix13" />
      <feBlend
         mode="normal"
         in2="BackgroundImageFix"
         result="effect1_dropShadow_2_840"
         id="feBlend13" />
      <feBlend
         mode="normal"
         in="SourceGraphic"
         in2="effect1_dropShadow_2_840"
         result="shape"
         id="feBlend14" />
    </filter>
    <filter
       id="filter2_d_2_840"
       x="301"
       y="99"
       width="88"
       height="88"
       filterUnits="userSpaceOnUse"
       color-interpolation-filters="sRGB">
      <feFlood
         flood-opacity="0"
         result="BackgroundImageFix"
         id="feFlood14" />
      <feColorMatrix
         in="SourceAlpha"
         type="matrix"
         values="0 0 0 0 0 0 0 0 0 0 0 0 0 0 0 0 0 0 127 0"
         result="hardAlpha"
         id="feColorMatrix14" />
      <feOffset
         dy="4"
         id="feOffset14" />
      <feGaussianBlur
         stdDeviation="2"
         id="feGaussianBlur14" />
      <feComposite
         in2="hardAlpha"
         operator="out"
         id="feComposite14" />
      <feColorMatrix
         type="matrix"
         values="0 0 0 0 0 0 0 0 0 0 0 0 0 0 0 0 0 0 0.2 0"
         id="feColorMatrix15" />
      <feBlend
         mode="normal"
         in2="BackgroundImageFix"
         result="effect1_dropShadow_2_840"
         id="feBlend15" />
      <feBlend
         mode="normal"
         in="SourceGraphic"
         in2="effect1_dropShadow_2_840"
         result="shape"
         id="feBlend16" />
    </filter>
    <filter
       id="filter3_d_2_840"
       x="301"
       y="253"
       width="88"
       height="88"
       filterUnits="userSpaceOnUse"
       color-interpolation-filters="sRGB">
      <feFlood
         flood-opacity="0"
         result="BackgroundImageFix"
         id="feFlood16" />
      <feColorMatrix
         in="SourceAlpha"
         type="matrix"
         values="0 0 0 0 0 0 0 0 0 0 0 0 0 0 0 0 0 0 127 0"
         result="hardAlpha"
         id="feColorMatrix16" />
      <feOffset
         dy="4"
         id="feOffset16" />
      <feGaussianBlur
         stdDeviation="2"
         id="feGaussianBlur16" />
      <feComposite
         in2="hardAlpha"
         operator="out"
         id="feComposite16" />
      <feColorMatrix
         type="matrix"
         values="0 0 0 0 0 0 0 0 0 0 0 0 0 0 0 0 0 0 0.2 0"
         id="feColorMatrix17" />
      <feBlend
         mode="normal"
         in2="BackgroundImageFix"
         result="effect1_dropShadow_2_840"
         id="feBlend17" />
      <feBlend
         mode="normal"
         in="SourceGraphic"
         in2="effect1_dropShadow_2_840"
         result="shape"
         id="feBlend18" />
    </filter>
  </defs>
</svg>
