<?xml version="1.0" encoding="UTF-8" standalone="no"?>
<svg
   width="1350"
   height="863"
   viewBox="0 0 1350 863"
   fill="none"
   version="1.1"
   id="svg14"
   sodipodi:docname="Panel.svg"
   xmlns:inkscape="http://www.inkscape.org/namespaces/inkscape"
   xmlns:sodipodi="http://sodipodi.sourceforge.net/DTD/sodipodi-0.dtd"
   xmlns="http://www.w3.org/2000/svg"
   xmlns:svg="http://www.w3.org/2000/svg">
  <sodipodi:namedview
     id="namedview14"
     pagecolor="#ffffff"
     bordercolor="#000000"
     borderopacity="0.25"
     inkscape:showpageshadow="2"
     inkscape:pageopacity="0.0"
     inkscape:pagecheckerboard="0"
     inkscape:deskcolor="#d1d1d1" />
  <g
     id="Panel_Preview">
    <g
       id="ColumnGroup">
      <g
         id="Title">
        <rect
           x="50"
           y="50"
           width="102"
           height="24"
           rx="4"
           fill="#FED70A"
           id="rect1" />
        <path
           d="M 59.080078,66.8535 V 56.832016 h 3.780274 q 0.998046,0 1.524414,0.0957 0.738281,0.123047 1.237304,0.47168 0.499024,0.341797 0.799805,0.963867 0.307617,0.62207 0.307617,1.367187 0,1.278321 -0.813476,2.166993 -0.813477,0.881836 -2.939454,0.881836 H 60.40625 V 66.8535 Z m 1.326172,-5.256836 h 2.59082 q 1.285157,0 1.825196,-0.478515 0.540039,-0.478516 0.540039,-1.34668 0,-0.628906 -0.321289,-1.073242 -0.314454,-0.451172 -0.833985,-0.594727 -0.334961,-0.08887 -1.237304,-0.08887 H 60.40625 Z m 12.591797,4.361329 q -0.683594,0.581054 -1.319336,0.820312 -0.628906,0.239258 -1.353516,0.239258 -1.196289,0 -1.838867,-0.581055 -0.642578,-0.58789 -0.642578,-1.49707 0,-0.533203 0.239258,-0.970703 0.246094,-0.444336 0.635742,-0.710938 0.396484,-0.266601 0.888672,-0.40332 0.362305,-0.0957 1.09375,-0.18457 1.490234,-0.177735 2.194336,-0.423829 0.0068,-0.252929 0.0068,-0.321289 0,-0.751953 -0.348633,-1.05957 -0.47168,-0.416992 -1.401367,-0.416992 -0.868164,0 -1.285157,0.307617 -0.410156,0.300781 -0.608398,1.073242 l -1.203125,-0.164062 q 0.164063,-0.772461 0.540039,-1.244141 0.375977,-0.478515 1.086914,-0.731445 0.710938,-0.259766 1.647461,-0.259766 0.929688,0 1.510742,0.21875 0.581055,0.21875 0.854492,0.553711 0.273438,0.328125 0.382813,0.833985 0.06152,0.314453 0.06152,1.134765 v 1.640625 q 0,1.71582 0.0752,2.173828 0.08203,0.451172 0.314453,0.868164 h -1.285156 q -0.191407,-0.382812 -0.246094,-0.895507 z m -0.102539,-2.748047 q -0.669922,0.273437 -2.009766,0.464843 -0.758789,0.109375 -1.073242,0.246094 -0.314453,0.136719 -0.485352,0.40332 -0.170898,0.259766 -0.170898,0.581055 0,0.492188 0.369141,0.820313 0.375976,0.328125 1.09375,0.328125 0.710937,0 1.264648,-0.307618 0.553711,-0.314453 0.813477,-0.854492 0.198242,-0.416992 0.198242,-1.230468 z m 3.151367,3.643554 v -7.259765 h 1.107422 v 1.032226 q 0.799805,-1.196289 2.310547,-1.196289 0.65625,0 1.203125,0.239258 0.553711,0.232422 0.827148,0.615234 0.273438,0.382813 0.382813,0.90918 0.06836,0.341797 0.06836,1.196289 V 66.8535 H 80.71582 v -4.416015 q 0,-0.751953 -0.143554,-1.121094 -0.143555,-0.375977 -0.512696,-0.594727 -0.362304,-0.225586 -0.854492,-0.225586 -0.786133,0 -1.360351,0.499024 -0.567383,0.499023 -0.567383,1.893555 V 66.8535 Z m 12.755859,-2.33789 1.271485,0.157226 q -0.300782,1.114258 -1.114258,1.729492 -0.813477,0.615235 -2.078125,0.615235 -1.592774,0 -2.529297,-0.977539 -0.929687,-0.984375 -0.929687,-2.754883 0,-1.832031 0.943359,-2.84375 0.943359,-1.011719 2.447266,-1.011719 1.456054,0 2.378906,0.991211 0.922851,0.991211 0.922851,2.789063 0,0.109375 -0.0068,0.328125 h -5.414062 q 0.06836,1.196289 0.676758,1.832031 0.608398,0.635742 1.517578,0.635742 0.676758,0 1.155273,-0.355469 0.478516,-0.355468 0.758789,-1.134765 z m -4.040039,-1.989258 h 4.053711 q -0.08203,-0.916016 -0.464844,-1.374024 -0.58789,-0.710937 -1.524414,-0.710937 -0.847656,0 -1.428711,0.567383 -0.574218,0.567383 -0.635742,1.517578 z M 91.591797,66.8535 V 56.832016 h 1.230469 V 66.8535 Z m 2.214844,0.170899 2.905273,-10.363281 h 0.984375 L 94.797852,67.024399 Z M 98.817383,66.8535 V 56.832016 h 1.326167 v 4.115234 h 5.20899 v -4.115234 h 1.32617 V 66.8535 h -1.32617 v -4.723632 h -5.20899 V 66.8535 Z m 14.881837,-2.33789 1.27148,0.157226 q -0.30078,1.114258 -1.11425,1.729492 -0.81348,0.615235 -2.07813,0.615235 -1.59277,0 -2.5293,-0.977539 -0.92968,-0.984375 -0.92968,-2.754883 0,-1.832031 0.94336,-2.84375 0.94335,-1.011719 2.44726,-1.011719 1.45606,0 2.37891,0.991211 0.92285,0.991211 0.92285,2.789063 0,0.109375 -0.007,0.328125 h -5.41406 q 0.0684,1.196289 0.67676,1.832031 0.6084,0.635742 1.51758,0.635742 0.67675,0 1.15527,-0.355469 0.47852,-0.355468 0.75879,-1.134765 z m -4.04004,-1.989258 h 4.05371 q -0.082,-0.916016 -0.46484,-1.374024 -0.58789,-0.710937 -1.52442,-0.710937 -0.84765,0 -1.42871,0.567383 -0.57422,0.567383 -0.63574,1.517578 z m 11.59375,3.431641 q -0.68359,0.581054 -1.31934,0.820312 -0.6289,0.239258 -1.35351,0.239258 -1.19629,0 -1.83887,-0.581055 -0.64258,-0.58789 -0.64258,-1.49707 0,-0.533203 0.23926,-0.970703 0.24609,-0.444336 0.63574,-0.710938 0.39649,-0.266601 0.88867,-0.40332 0.36231,-0.0957 1.09375,-0.18457 1.49024,-0.177735 2.19434,-0.423829 0.007,-0.252929 0.007,-0.321289 0,-0.751953 -0.34864,-1.05957 -0.47168,-0.416992 -1.40136,-0.416992 -0.86817,0 -1.28516,0.307617 -0.41016,0.300781 -0.6084,1.073242 l -1.20312,-0.164062 q 0.16406,-0.772461 0.54004,-1.244141 0.37597,-0.478515 1.08691,-0.731445 0.71094,-0.259766 1.64746,-0.259766 0.92969,0 1.51074,0.21875 0.58106,0.21875 0.8545,0.553711 0.27343,0.328125 0.38281,0.833985 0.0615,0.314453 0.0615,1.134765 v 1.640625 q 0,1.71582 0.0752,2.173828 0.082,0.451172 0.31445,0.868164 h -1.28516 q -0.1914,-0.382812 -0.24609,-0.895507 z m -0.10254,-2.748047 q -0.66992,0.273437 -2.00976,0.464843 -0.75879,0.109375 -1.07325,0.246094 -0.31445,0.136719 -0.48535,0.40332 -0.1709,0.259766 -0.1709,0.581055 0,0.492188 0.36914,0.820313 0.37598,0.328125 1.09375,0.328125 0.71094,0 1.26465,-0.307618 0.55371,-0.314453 0.81348,-0.854492 0.19824,-0.416992 0.19824,-1.230468 z m 7.86133,3.643554 v -0.916015 q -0.69043,1.080078 -2.03027,1.080078 -0.86817,0 -1.59961,-0.478516 -0.72461,-0.478515 -1.12793,-1.333008 -0.39649,-0.861328 -0.39649,-1.975586 0,-1.086914 0.36231,-1.96875 0.3623,-0.888671 1.08691,-1.360351 0.72461,-0.47168 1.62012,-0.47168 0.65625,0 1.16894,0.280274 0.5127,0.273437 0.83399,0.717773 v -3.595703 h 1.22363 V 66.8535 Z m -3.88965,-3.623047 q 0,1.394532 0.58789,2.084961 0.58789,0.69043 1.3877,0.69043 0.80664,0 1.36718,-0.65625 0.56739,-0.663086 0.56739,-2.016601 0,-1.490235 -0.57422,-2.1875 -0.57422,-0.697266 -1.41504,-0.697266 -0.82031,0 -1.37402,0.669922 -0.54688,0.669922 -0.54688,2.112304 z m 11.93555,1.285157 1.27148,0.157226 q -0.30078,1.114258 -1.11426,1.729492 -0.81347,0.615235 -2.07812,0.615235 -1.59277,0 -2.5293,-0.977539 -0.92969,-0.984375 -0.92969,-2.754883 0,-1.832031 0.94336,-2.84375 0.94336,-1.011719 2.44727,-1.011719 1.45605,0 2.37891,0.991211 0.92285,0.991211 0.92285,2.789063 0,0.109375 -0.007,0.328125 h -5.41406 q 0.0684,1.196289 0.67676,1.832031 0.60839,0.635742 1.51757,0.635742 0.67676,0 1.15528,-0.355469 0.47851,-0.355468 0.75879,-1.134765 z m -4.04004,-1.989258 h 4.05371 q -0.082,-0.916016 -0.46484,-1.374024 -0.5879,-0.710937 -1.52442,-0.710937 -0.84766,0 -1.42871,0.567383 -0.57422,0.567383 -0.63574,1.517578 z m 6.84277,4.327148 v -7.259765 h 1.10742 v 1.100586 q 0.42383,-0.772461 0.7793,-1.018555 0.3623,-0.246094 0.79297,-0.246094 0.62207,0 1.26465,0.396485 l -0.42383,1.141601 q -0.45117,-0.266601 -0.90234,-0.266601 -0.40332,0 -0.72461,0.246093 -0.32129,0.239258 -0.45801,0.669922 -0.20508,0.65625 -0.20508,1.435547 V 66.8535 Z"
           id="MessageText"
           style="font-size:14px;font-family:Arial;letter-spacing:0em;white-space:pre;fill:#212121"
           aria-label="Panel/Header" />
      </g>
      <g
         id="Panel/Header">
        <path
           id="Background"
           d="M50 115C50 106.163 57.1634 99 66 99H634C642.837 99 650 106.163 650 115V179H50V115Z"
           fill="#2A2E37" />
      </g>
      <g
         id="Title_2">
        <rect
           x="50"
           y="204"
           width="141"
           height="24"
           rx="4"
           fill="#FED70A"
           id="rect2" />
        <path
           d="m 59.080078,220.854 v -10.02148 h 3.780274 q 0.998046,0 1.524414,0.0957 0.738281,0.12305 1.237304,0.47168 0.499024,0.3418 0.799805,0.96387 0.307617,0.62207 0.307617,1.36719 0,1.27832 -0.813476,2.16699 -0.813477,0.88184 -2.939454,0.88184 H 60.40625 v 4.07421 z m 1.326172,-5.25683 h 2.59082 q 1.285157,0 1.825196,-0.47852 0.540039,-0.47851 0.540039,-1.34668 0,-0.6289 -0.321289,-1.07324 -0.314454,-0.45117 -0.833985,-0.59473 -0.334961,-0.0889 -1.237304,-0.0889 H 60.40625 Z m 12.591797,4.36133 q -0.683594,0.58105 -1.319336,0.82031 -0.628906,0.23926 -1.353516,0.23926 -1.196289,0 -1.838867,-0.58106 -0.642578,-0.58789 -0.642578,-1.49707 0,-0.5332 0.239258,-0.9707 0.246094,-0.44434 0.635742,-0.71094 0.396484,-0.2666 0.888672,-0.40332 0.362305,-0.0957 1.09375,-0.18457 1.490234,-0.17773 2.194336,-0.42383 0.0068,-0.25293 0.0068,-0.32129 0,-0.75195 -0.348633,-1.05957 -0.47168,-0.41699 -1.401367,-0.41699 -0.868164,0 -1.285157,0.30762 -0.410156,0.30078 -0.608398,1.07324 l -1.203125,-0.16406 q 0.164063,-0.77246 0.540039,-1.24414 0.375977,-0.47852 1.086914,-0.73145 0.710938,-0.25976 1.647461,-0.25976 0.929688,0 1.510742,0.21875 0.581055,0.21875 0.854492,0.55371 0.273438,0.32812 0.382813,0.83398 0.06152,0.31445 0.06152,1.13477 v 1.64062 q 0,1.71582 0.0752,2.17383 0.08203,0.45117 0.314453,0.86816 h -1.285156 q -0.191407,-0.38281 -0.246094,-0.8955 z m -0.102539,-2.74805 q -0.669922,0.27344 -2.009766,0.46484 -0.758789,0.10938 -1.073242,0.2461 -0.314453,0.13672 -0.485352,0.40332 -0.170898,0.25976 -0.170898,0.58105 0,0.49219 0.369141,0.82031 0.375976,0.32813 1.09375,0.32813 0.710937,0 1.264648,-0.30762 0.553711,-0.31445 0.813477,-0.85449 0.198242,-0.41699 0.198242,-1.23047 z m 3.151367,3.64355 v -7.25976 h 1.107422 v 1.03222 q 0.799805,-1.19628 2.310547,-1.19628 0.65625,0 1.203125,0.23925 0.553711,0.23243 0.827148,0.61524 0.273438,0.38281 0.382813,0.90918 0.06836,0.34179 0.06836,1.19629 V 220.854 H 80.71582 v -4.41601 q 0,-0.75195 -0.143554,-1.1211 -0.143555,-0.37597 -0.512696,-0.59472 -0.362304,-0.22559 -0.854492,-0.22559 -0.786133,0 -1.360351,0.49903 -0.567383,0.49902 -0.567383,1.89355 v 3.96484 z m 12.755859,-2.33789 1.271485,0.15723 q -0.300782,1.11426 -1.114258,1.72949 -0.813477,0.61524 -2.078125,0.61524 -1.592774,0 -2.529297,-0.97754 -0.929687,-0.98438 -0.929687,-2.75489 0,-1.83203 0.943359,-2.84375 0.943359,-1.01171 2.447266,-1.01171 1.456054,0 2.378906,0.99121 0.922851,0.99121 0.922851,2.78906 0,0.10937 -0.0068,0.32812 h -5.414062 q 0.06836,1.19629 0.676758,1.83204 0.608398,0.63574 1.517578,0.63574 0.676758,0 1.155273,-0.35547 0.478516,-0.35547 0.758789,-1.13477 z m -4.040039,-1.98925 h 4.053711 q -0.08203,-0.91602 -0.464844,-1.37403 -0.58789,-0.71094 -1.524414,-0.71094 -0.847656,0 -1.428711,0.56739 -0.574218,0.56738 -0.635742,1.51758 z m 6.829102,4.32714 v -10.02148 h 1.230469 V 220.854 Z m 2.214844,0.1709 2.905273,-10.36328 h 0.984375 l -2.898437,10.36328 z m 4.915039,-0.1709 v -10.02148 h 3.75977 q 1.14843,0 1.83886,0.30762 0.69727,0.30078 1.08692,0.93652 0.39648,0.62891 0.39648,1.31934 0,0.64257 -0.34863,1.20996 -0.34863,0.56738 -1.05274,0.91601 0.90918,0.2666 1.39454,0.90918 0.49218,0.64258 0.49218,1.51758 0,0.7041 -0.30078,1.3125 -0.29394,0.60156 -0.73144,0.92969 -0.4375,0.32812 -1.10059,0.49902 -0.65625,0.16406 -1.61328,0.16406 z m 1.32617,-5.81054 h 2.16699 q 0.88184,0 1.26465,-0.11621 0.50586,-0.15039 0.75879,-0.49903 0.25977,-0.34863 0.25977,-0.875 0,-0.49902 -0.23926,-0.875 -0.23926,-0.38281 -0.68359,-0.51953 -0.44434,-0.14355 -1.52442,-0.14355 h -2.00293 z m 0,4.62793 h 2.49512 q 0.64258,0 0.90234,-0.0479 0.45801,-0.082 0.76563,-0.27344 0.30761,-0.19141 0.50586,-0.55371 0.19824,-0.36914 0.19824,-0.84766 0,-0.56055 -0.28711,-0.9707 -0.28711,-0.41699 -0.7998,-0.58106 -0.50586,-0.1709 -1.4629,-0.1709 h -2.31738 z m 7.45117,-2.44727 q 0,-2.0166 1.1211,-2.9873 0.93652,-0.80664 2.2832,-0.80664 1.49707,0 2.44727,0.98437 0.95019,0.97754 0.95019,2.70703 0,1.40137 -0.42383,2.20801 -0.41699,0.7998 -1.22363,1.24414 -0.7998,0.44434 -1.75,0.44434 -1.52441,0 -2.46777,-0.97754 -0.93653,-0.97754 -0.93653,-2.81641 z m 1.26465,0 q 0,1.39453 0.6084,2.0918 0.6084,0.69043 1.53125,0.69043 0.91602,0 1.52441,-0.69727 0.6084,-0.69726 0.6084,-2.12597 0,-1.34668 -0.61523,-2.03711 -0.6084,-0.69727 -1.51758,-0.69727 -0.92285,0 -1.53125,0.69043 -0.6084,0.69043 -0.6084,2.08496 z m 11.68946,3.62988 v -0.91601 q -0.69043,1.08008 -2.03028,1.08008 -0.86816,0 -1.59961,-0.47852 -0.72461,-0.47851 -1.12793,-1.33301 -0.39648,-0.86133 -0.39648,-1.97558 0,-1.08692 0.3623,-1.96875 0.36231,-0.88867 1.08692,-1.36035 0.72461,-0.47168 1.62011,-0.47168 0.65625,0 1.16895,0.28027 0.51269,0.27344 0.83398,0.71777 v -3.5957 h 1.22364 V 220.854 Z m -3.88965,-3.62304 q 0,1.39453 0.58789,2.08496 0.58789,0.69043 1.38769,0.69043 0.80664,0 1.36719,-0.65625 0.56738,-0.66309 0.56738,-2.0166 0,-1.49024 -0.57422,-2.1875 -0.57421,-0.69727 -1.41503,-0.69727 -0.82032,0 -1.37403,0.66992 -0.54687,0.66992 -0.54687,2.11231 z m 6.91113,6.41894 -0.13672,-1.15527 q 0.40332,0.10937 0.7041,0.10937 0.41016,0 0.65625,-0.13671 0.2461,-0.13672 0.40332,-0.38282 0.11621,-0.18457 0.37598,-0.91601 0.0342,-0.10254 0.10937,-0.30078 l -2.75488,-7.27344 h 1.32617 l 1.51075,4.2041 q 0.29394,0.7998 0.52636,1.68164 0.21192,-0.84766 0.50586,-1.6543 l 1.55176,-4.23144 h 1.23047 l -2.76172,7.38281 q -0.44434,1.19629 -0.69043,1.64746 -0.32812,0.6084 -0.75195,0.88867 -0.42383,0.28711 -1.01172,0.28711 -0.35547,0 -0.79297,-0.15039 z m 6.13184,-2.625 2.90527,-10.36328 h 0.98437 l -2.89843,10.36328 z m 5.01074,-0.1709 v -10.02148 h 1.32617 v 4.11523 h 5.20898 v -4.11523 h 1.32618 V 220.854 h -1.32618 v -4.72363 h -5.20898 v 4.72363 z m 14.88183,-2.33789 1.27149,0.15723 q -0.30078,1.11426 -1.11426,1.72949 -0.81348,0.61524 -2.07813,0.61524 -1.59277,0 -2.52929,-0.97754 -0.92969,-0.98438 -0.92969,-2.75489 0,-1.83203 0.94336,-2.84375 0.94336,-1.01171 2.44727,-1.01171 1.45605,0 2.3789,0.99121 0.92285,0.99121 0.92285,2.78906 0,0.10937 -0.007,0.32812 h -5.41407 q 0.0684,1.19629 0.67676,1.83204 0.6084,0.63574 1.51758,0.63574 0.67676,0 1.15527,-0.35547 0.47852,-0.35547 0.75879,-1.13477 z m -4.04004,-1.98925 h 4.05372 q -0.082,-0.91602 -0.46485,-1.37403 -0.58789,-0.71094 -1.52441,-0.71094 -0.84766,0 -1.42871,0.56739 -0.57422,0.56738 -0.63575,1.51758 z m 11.59375,3.43164 q -0.68359,0.58105 -1.31933,0.82031 -0.62891,0.23926 -1.35352,0.23926 -1.19629,0 -1.83886,-0.58106 -0.64258,-0.58789 -0.64258,-1.49707 0,-0.5332 0.23926,-0.9707 0.24609,-0.44434 0.63574,-0.71094 0.39648,-0.2666 0.88867,-0.40332 0.3623,-0.0957 1.09375,-0.18457 1.49023,-0.17773 2.19434,-0.42383 0.007,-0.25293 0.007,-0.32129 0,-0.75195 -0.34863,-1.05957 -0.47168,-0.41699 -1.40137,-0.41699 -0.86816,0 -1.28516,0.30762 -0.41015,0.30078 -0.60839,1.07324 l -1.20313,-0.16406 q 0.16406,-0.77246 0.54004,-1.24414 0.37598,-0.47852 1.08691,-0.73145 0.71094,-0.25976 1.64747,-0.25976 0.92968,0 1.51074,0.21875 0.58105,0.21875 0.85449,0.55371 0.27344,0.32812 0.38281,0.83398 0.0615,0.31445 0.0615,1.13477 v 1.64062 q 0,1.71582 0.0752,2.17383 0.082,0.45117 0.31445,0.86816 h -1.28515 q -0.19141,-0.38281 -0.2461,-0.8955 z m -0.10253,-2.74805 q -0.66993,0.27344 -2.00977,0.46484 -0.75879,0.10938 -1.07324,0.2461 -0.31446,0.13672 -0.48535,0.40332 -0.1709,0.25976 -0.1709,0.58105 0,0.49219 0.36914,0.82031 0.37597,0.32813 1.09375,0.32813 0.71094,0 1.26465,-0.30762 0.55371,-0.31445 0.81347,-0.85449 0.19825,-0.41699 0.19825,-1.23047 z m 7.86132,3.64355 v -0.91601 q -0.69043,1.08008 -2.03027,1.08008 -0.86816,0 -1.59961,-0.47852 -0.72461,-0.47851 -1.12793,-1.33301 -0.39648,-0.86133 -0.39648,-1.97558 0,-1.08692 0.3623,-1.96875 0.36231,-0.88867 1.08692,-1.36035 0.7246,-0.47168 1.62011,-0.47168 0.65625,0 1.16895,0.28027 0.51269,0.27344 0.83398,0.71777 v -3.5957 h 1.22363 V 220.854 Z m -3.88965,-3.62304 q 0,1.39453 0.5879,2.08496 0.58789,0.69043 1.38769,0.69043 0.80664,0 1.36719,-0.65625 0.56738,-0.66309 0.56738,-2.0166 0,-1.49024 -0.57422,-2.1875 -0.57422,-0.69727 -1.41504,-0.69727 -0.82031,0 -1.37402,0.66992 -0.54688,0.66992 -0.54688,2.11231 z m 11.93555,1.28515 1.27149,0.15723 q -0.30079,1.11426 -1.11426,1.72949 -0.81348,0.61524 -2.07813,0.61524 -1.59277,0 -2.52929,-0.97754 -0.92969,-0.98438 -0.92969,-2.75489 0,-1.83203 0.94336,-2.84375 0.94336,-1.01171 2.44726,-1.01171 1.45606,0 2.37891,0.99121 0.92285,0.99121 0.92285,2.78906 0,0.10937 -0.007,0.32812 h -5.41407 q 0.0684,1.19629 0.67676,1.83204 0.6084,0.63574 1.51758,0.63574 0.67676,0 1.15527,-0.35547 0.47852,-0.35547 0.75879,-1.13477 z m -4.04004,-1.98925 h 4.05371 q -0.082,-0.91602 -0.46484,-1.37403 -0.58789,-0.71094 -1.52441,-0.71094 -0.84766,0 -1.42872,0.56739 -0.57421,0.56738 -0.63574,1.51758 z m 11.56641,4.32714 v -0.91601 q -0.69043,1.08008 -2.03027,1.08008 -0.86817,0 -1.59961,-0.47852 -0.72461,-0.47851 -1.12793,-1.33301 -0.39649,-0.86133 -0.39649,-1.97558 0,-1.08692 0.36231,-1.96875 0.3623,-0.88867 1.08691,-1.36035 0.72461,-0.47168 1.62012,-0.47168 0.65625,0 1.16894,0.28027 0.5127,0.27344 0.83399,0.71777 v -3.5957 h 1.22363 V 220.854 Z m -3.88965,-3.62304 q 0,1.39453 0.58789,2.08496 0.58789,0.69043 1.3877,0.69043 0.80664,0 1.36718,-0.65625 0.56739,-0.66309 0.56739,-2.0166 0,-1.49024 -0.57422,-2.1875 -0.57422,-0.69727 -1.41504,-0.69727 -0.82031,0 -1.37402,0.66992 -0.54688,0.66992 -0.54688,2.11231 z"
           id="MessageText_2"
           style="font-size:14px;font-family:Arial;letter-spacing:0em;white-space:pre;fill:#212121"
           aria-label="Panel/Body/Headed" />
      </g>
      <g
         id="Panel/Body/Headed"
         filter="url(#filter0_d_2_905)">
        <path
           id="WindowContent"
           d="M50 253H650V397C650 405.837 642.837 413 634 413H66C57.1634 413 50 405.837 50 397V253Z"
           fill="#323741" />
      </g>
      <g
         id="Title_3">
        <rect
           x="50"
           y="438"
           width="150"
           height="24"
           rx="4"
           fill="#FED70A"
           id="rect3" />
        <path
           d="m 59.080078,454.854 v -10.02148 h 3.780274 q 0.998046,0 1.524414,0.0957 0.738281,0.12305 1.237304,0.47168 0.499024,0.3418 0.799805,0.96387 0.307617,0.62207 0.307617,1.36719 0,1.27832 -0.813476,2.16699 -0.813477,0.88184 -2.939454,0.88184 H 60.40625 v 4.07421 z m 1.326172,-5.25683 h 2.59082 q 1.285157,0 1.825196,-0.47852 0.540039,-0.47851 0.540039,-1.34668 0,-0.6289 -0.321289,-1.07324 -0.314454,-0.45117 -0.833985,-0.59473 -0.334961,-0.0889 -1.237304,-0.0889 H 60.40625 Z m 12.591797,4.36133 q -0.683594,0.58105 -1.319336,0.82031 -0.628906,0.23926 -1.353516,0.23926 -1.196289,0 -1.838867,-0.58106 -0.642578,-0.58789 -0.642578,-1.49707 0,-0.5332 0.239258,-0.9707 0.246094,-0.44434 0.635742,-0.71094 0.396484,-0.2666 0.888672,-0.40332 0.362305,-0.0957 1.09375,-0.18457 1.490234,-0.17773 2.194336,-0.42383 0.0068,-0.25293 0.0068,-0.32129 0,-0.75195 -0.348633,-1.05957 -0.47168,-0.41699 -1.401367,-0.41699 -0.868164,0 -1.285157,0.30762 -0.410156,0.30078 -0.608398,1.07324 l -1.203125,-0.16406 q 0.164063,-0.77246 0.540039,-1.24414 0.375977,-0.47852 1.086914,-0.73145 0.710938,-0.25976 1.647461,-0.25976 0.929688,0 1.510742,0.21875 0.581055,0.21875 0.854492,0.55371 0.273438,0.32812 0.382813,0.83398 0.06152,0.31445 0.06152,1.13477 v 1.64062 q 0,1.71582 0.0752,2.17383 0.08203,0.45117 0.314453,0.86816 h -1.285156 q -0.191407,-0.38281 -0.246094,-0.8955 z m -0.102539,-2.74805 q -0.669922,0.27344 -2.009766,0.46484 -0.758789,0.10938 -1.073242,0.2461 -0.314453,0.13672 -0.485352,0.40332 -0.170898,0.25976 -0.170898,0.58105 0,0.49219 0.369141,0.82031 0.375976,0.32813 1.09375,0.32813 0.710937,0 1.264648,-0.30762 0.553711,-0.31445 0.813477,-0.85449 0.198242,-0.41699 0.198242,-1.23047 z m 3.151367,3.64355 v -7.25976 h 1.107422 v 1.03222 q 0.799805,-1.19628 2.310547,-1.19628 0.65625,0 1.203125,0.23925 0.553711,0.23243 0.827148,0.61524 0.273438,0.38281 0.382813,0.90918 0.06836,0.34179 0.06836,1.19629 V 454.854 H 80.71582 v -4.41601 q 0,-0.75195 -0.143554,-1.1211 -0.143555,-0.37597 -0.512696,-0.59472 -0.362304,-0.22559 -0.854492,-0.22559 -0.786133,0 -1.360351,0.49903 -0.567383,0.49902 -0.567383,1.89355 v 3.96484 z m 12.755859,-2.33789 1.271485,0.15723 q -0.300782,1.11426 -1.114258,1.72949 -0.813477,0.61524 -2.078125,0.61524 -1.592774,0 -2.529297,-0.97754 -0.929687,-0.98438 -0.929687,-2.75489 0,-1.83203 0.943359,-2.84375 0.943359,-1.01171 2.447266,-1.01171 1.456054,0 2.378906,0.99121 0.922851,0.99121 0.922851,2.78906 0,0.10937 -0.0068,0.32812 h -5.414062 q 0.06836,1.19629 0.676758,1.83204 0.608398,0.63574 1.517578,0.63574 0.676758,0 1.155273,-0.35547 0.478516,-0.35547 0.758789,-1.13477 z m -4.040039,-1.98925 h 4.053711 q -0.08203,-0.91602 -0.464844,-1.37403 -0.58789,-0.71094 -1.524414,-0.71094 -0.847656,0 -1.428711,0.56739 -0.574218,0.56738 -0.635742,1.51758 z m 6.829102,4.32714 v -10.02148 h 1.230469 V 454.854 Z m 2.214844,0.1709 2.905273,-10.36328 h 0.984375 l -2.898437,10.36328 z m 4.915039,-0.1709 v -10.02148 h 3.75977 q 1.14843,0 1.83886,0.30762 0.69727,0.30078 1.08692,0.93652 0.39648,0.62891 0.39648,1.31934 0,0.64257 -0.34863,1.20996 -0.34863,0.56738 -1.05274,0.91601 0.90918,0.2666 1.39454,0.90918 0.49218,0.64258 0.49218,1.51758 0,0.7041 -0.30078,1.3125 -0.29394,0.60156 -0.73144,0.92969 -0.4375,0.32812 -1.10059,0.49902 -0.65625,0.16406 -1.61328,0.16406 z m 1.32617,-5.81054 h 2.16699 q 0.88184,0 1.26465,-0.11621 0.50586,-0.15039 0.75879,-0.49903 0.25977,-0.34863 0.25977,-0.875 0,-0.49902 -0.23926,-0.875 -0.23926,-0.38281 -0.68359,-0.51953 -0.44434,-0.14355 -1.52442,-0.14355 h -2.00293 z m 0,4.62793 h 2.49512 q 0.64258,0 0.90234,-0.0478 0.45801,-0.082 0.76563,-0.27344 0.30761,-0.19141 0.50586,-0.55371 0.19824,-0.36914 0.19824,-0.84766 0,-0.56055 -0.28711,-0.9707 -0.28711,-0.41699 -0.7998,-0.58106 -0.50586,-0.1709 -1.4629,-0.1709 h -2.31738 z m 7.45117,-2.44727 q 0,-2.0166 1.1211,-2.9873 0.93652,-0.80664 2.2832,-0.80664 1.49707,0 2.44727,0.98437 0.95019,0.97754 0.95019,2.70703 0,1.40137 -0.42383,2.20801 -0.41699,0.7998 -1.22363,1.24414 -0.7998,0.44434 -1.75,0.44434 -1.52441,0 -2.46777,-0.97754 -0.93653,-0.97754 -0.93653,-2.81641 z m 1.26465,0 q 0,1.39453 0.6084,2.0918 0.6084,0.69043 1.53125,0.69043 0.91602,0 1.52441,-0.69727 0.6084,-0.69726 0.6084,-2.12597 0,-1.34668 -0.61523,-2.03711 -0.6084,-0.69727 -1.51758,-0.69727 -0.92285,0 -1.53125,0.69043 -0.6084,0.69043 -0.6084,2.08496 z m 11.68946,3.62988 v -0.91601 q -0.69043,1.08008 -2.03028,1.08008 -0.86816,0 -1.59961,-0.47852 -0.72461,-0.47851 -1.12793,-1.33301 -0.39648,-0.86133 -0.39648,-1.97558 0,-1.08692 0.3623,-1.96875 0.36231,-0.88867 1.08692,-1.36035 0.72461,-0.47168 1.62011,-0.47168 0.65625,0 1.16895,0.28027 0.51269,0.27344 0.83398,0.71777 v -3.5957 h 1.22364 V 454.854 Z m -3.88965,-3.62304 q 0,1.39453 0.58789,2.08496 0.58789,0.69043 1.38769,0.69043 0.80664,0 1.36719,-0.65625 0.56738,-0.66309 0.56738,-2.0166 0,-1.49024 -0.57422,-2.1875 -0.57421,-0.69727 -1.41503,-0.69727 -0.82032,0 -1.37403,0.66992 -0.54687,0.66992 -0.54687,2.11231 z m 6.91113,6.41894 -0.13672,-1.15527 q 0.40332,0.10937 0.7041,0.10937 0.41016,0 0.65625,-0.13671 0.2461,-0.13672 0.40332,-0.38282 0.11621,-0.18457 0.37598,-0.91601 0.0342,-0.10254 0.10937,-0.30078 l -2.75488,-7.27344 h 1.32617 l 1.51075,4.2041 q 0.29394,0.7998 0.52636,1.68164 0.21192,-0.84766 0.50586,-1.6543 l 1.55176,-4.23144 h 1.23047 l -2.76172,7.38281 q -0.44434,1.19629 -0.69043,1.64746 -0.32812,0.6084 -0.75195,0.88867 -0.42383,0.28711 -1.01172,0.28711 -0.35547,0 -0.79297,-0.15039 z m 6.13184,-2.625 2.90527,-10.36328 h 0.98437 l -2.89843,10.36328 z m 5.01074,-0.1709 v -10.02148 h 1.32617 v 4.11523 h 5.20898 v -4.11523 h 1.32618 V 454.854 h -1.32618 v -4.72363 h -5.20898 v 4.72363 z m 14.88183,-2.33789 1.27149,0.15723 q -0.30078,1.11426 -1.11426,1.72949 -0.81348,0.61524 -2.07813,0.61524 -1.59277,0 -2.52929,-0.97754 -0.92969,-0.98438 -0.92969,-2.75489 0,-1.83203 0.94336,-2.84375 0.94336,-1.01171 2.44727,-1.01171 1.45605,0 2.3789,0.99121 0.92285,0.99121 0.92285,2.78906 0,0.10937 -0.007,0.32812 h -5.41407 q 0.0684,1.19629 0.67676,1.83204 0.6084,0.63574 1.51758,0.63574 0.67676,0 1.15527,-0.35547 0.47852,-0.35547 0.75879,-1.13477 z m -4.04004,-1.98925 h 4.05372 q -0.082,-0.91602 -0.46485,-1.37403 -0.58789,-0.71094 -1.52441,-0.71094 -0.84766,0 -1.42871,0.56739 -0.57422,0.56738 -0.63575,1.51758 z m 11.59375,3.43164 q -0.68359,0.58105 -1.31933,0.82031 -0.62891,0.23926 -1.35352,0.23926 -1.19629,0 -1.83886,-0.58106 -0.64258,-0.58789 -0.64258,-1.49707 0,-0.5332 0.23926,-0.9707 0.24609,-0.44434 0.63574,-0.71094 0.39648,-0.2666 0.88867,-0.40332 0.3623,-0.0957 1.09375,-0.18457 1.49023,-0.17773 2.19434,-0.42383 0.007,-0.25293 0.007,-0.32129 0,-0.75195 -0.34863,-1.05957 -0.47168,-0.41699 -1.40137,-0.41699 -0.86816,0 -1.28516,0.30762 -0.41015,0.30078 -0.60839,1.07324 l -1.20313,-0.16406 q 0.16406,-0.77246 0.54004,-1.24414 0.37598,-0.47852 1.08691,-0.73145 0.71094,-0.25976 1.64747,-0.25976 0.92968,0 1.51074,0.21875 0.58105,0.21875 0.85449,0.55371 0.27344,0.32812 0.38281,0.83398 0.0615,0.31445 0.0615,1.13477 v 1.64062 q 0,1.71582 0.0752,2.17383 0.082,0.45117 0.31445,0.86816 h -1.28515 q -0.19141,-0.38281 -0.2461,-0.8955 z m -0.10253,-2.74805 q -0.66993,0.27344 -2.00977,0.46484 -0.75879,0.10938 -1.07324,0.2461 -0.31446,0.13672 -0.48535,0.40332 -0.1709,0.25976 -0.1709,0.58105 0,0.49219 0.36914,0.82031 0.37597,0.32813 1.09375,0.32813 0.71094,0 1.26465,-0.30762 0.55371,-0.31445 0.81347,-0.85449 0.19825,-0.41699 0.19825,-1.23047 z m 7.86132,3.64355 v -0.91601 q -0.69043,1.08008 -2.03027,1.08008 -0.86816,0 -1.59961,-0.47852 -0.72461,-0.47851 -1.12793,-1.33301 -0.39648,-0.86133 -0.39648,-1.97558 0,-1.08692 0.3623,-1.96875 0.36231,-0.88867 1.08692,-1.36035 0.7246,-0.47168 1.62011,-0.47168 0.65625,0 1.16895,0.28027 0.51269,0.27344 0.83398,0.71777 v -3.5957 h 1.22363 V 454.854 Z m -3.88965,-3.62304 q 0,1.39453 0.5879,2.08496 0.58789,0.69043 1.38769,0.69043 0.80664,0 1.36719,-0.65625 0.56738,-0.66309 0.56738,-2.0166 0,-1.49024 -0.57422,-2.1875 -0.57422,-0.69727 -1.41504,-0.69727 -0.82031,0 -1.37402,0.66992 -0.54688,0.66992 -0.54688,2.11231 z m 6.93848,3.62304 v -10.02148 h 1.23047 V 454.854 Z m 8.10742,-2.33789 1.27149,0.15723 q -0.30078,1.11426 -1.11426,1.72949 -0.81348,0.61524 -2.07813,0.61524 -1.59277,0 -2.52929,-0.97754 -0.92969,-0.98438 -0.92969,-2.75489 0,-1.83203 0.94336,-2.84375 0.94336,-1.01171 2.44727,-1.01171 1.45605,0 2.3789,0.99121 0.92285,0.99121 0.92285,2.78906 0,0.10937 -0.007,0.32812 h -5.41407 q 0.0684,1.19629 0.67676,1.83204 0.6084,0.63574 1.51758,0.63574 0.67676,0 1.15527,-0.35547 0.47852,-0.35547 0.75879,-1.13477 z m -4.04004,-1.98925 h 4.05372 q -0.082,-0.91602 -0.46485,-1.37403 -0.58789,-0.71094 -1.52441,-0.71094 -0.84766,0 -1.42871,0.56739 -0.57422,0.56738 -0.63575,1.51758 z m 6.36426,2.16015 1.2168,-0.1914 q 0.10254,0.73144 0.56738,1.12109 0.47168,0.38965 1.3125,0.38965 0.84766,0 1.25781,-0.3418 0.41016,-0.34863 0.41016,-0.81348 0,-0.41699 -0.3623,-0.65625 -0.25293,-0.16406 -1.25782,-0.41699 -1.35351,-0.34179 -1.87988,-0.58789 -0.51953,-0.25293 -0.79297,-0.69043 -0.2666,-0.44433 -0.2666,-0.97754 0,-0.48535 0.21875,-0.89551 0.22559,-0.41699 0.6084,-0.69042 0.28711,-0.21192 0.7793,-0.35547 0.49902,-0.15039 1.0664,-0.15039 0.85449,0 1.49707,0.24609 0.64942,0.24609 0.95703,0.66992 0.30762,0.41699 0.42383,1.1211 l -1.20312,0.16406 q -0.082,-0.56055 -0.47852,-0.875 -0.38965,-0.31446 -1.10742,-0.31446 -0.84766,0 -1.20996,0.28028 -0.36231,0.28027 -0.36231,0.65625 0,0.23926 0.15039,0.43066 0.15039,0.19824 0.47168,0.32813 0.18457,0.0684 1.08692,0.31445 1.30566,0.34863 1.81836,0.57422 0.51953,0.21875 0.81347,0.64258 0.29395,0.42383 0.29395,1.05273 0,0.61524 -0.36231,1.16211 -0.35546,0.54004 -1.03222,0.84082 -0.67676,0.29395 -1.53125,0.29395 -1.41504,0 -2.16016,-0.58789 -0.73828,-0.58789 -0.94336,-1.74317 z m 7,0 1.2168,-0.1914 q 0.10254,0.73144 0.56738,1.12109 0.47168,0.38965 1.3125,0.38965 0.84766,0 1.25781,-0.3418 0.41016,-0.34863 0.41016,-0.81348 0,-0.41699 -0.3623,-0.65625 -0.25293,-0.16406 -1.25782,-0.41699 -1.35351,-0.34179 -1.87988,-0.58789 -0.51953,-0.25293 -0.79297,-0.69043 -0.2666,-0.44433 -0.2666,-0.97754 0,-0.48535 0.21875,-0.89551 0.22559,-0.41699 0.6084,-0.69042 0.28711,-0.21192 0.7793,-0.35547 0.49902,-0.15039 1.0664,-0.15039 0.85449,0 1.49707,0.24609 0.64942,0.24609 0.95703,0.66992 0.30762,0.41699 0.42383,1.1211 l -1.20312,0.16406 q -0.082,-0.56055 -0.47852,-0.875 -0.38965,-0.31446 -1.10742,-0.31446 -0.84766,0 -1.20996,0.28028 -0.36231,0.28027 -0.36231,0.65625 0,0.23926 0.15039,0.43066 0.15039,0.19824 0.47168,0.32813 0.18457,0.0684 1.08692,0.31445 1.30566,0.34863 1.81836,0.57422 0.51953,0.21875 0.81347,0.64258 0.29395,0.42383 0.29395,1.05273 0,0.61524 -0.36231,1.16211 -0.35546,0.54004 -1.03222,0.84082 -0.67676,0.29395 -1.53125,0.29395 -1.41504,0 -2.16016,-0.58789 -0.73828,-0.58789 -0.94336,-1.74317 z"
           id="MessageText_3"
           style="font-size:14px;font-family:Arial;letter-spacing:0em;white-space:pre;fill:#212121"
           aria-label="Panel/Body/Headless" />
      </g>
      <g
         id="Panel/Body/Headless">
        <g
           id="Panel/Background"
           filter="url(#filter1_d_2_905)">
          <rect
             x="50"
             y="487"
             width="600"
             height="200"
             rx="16"
             fill="#2A2E37"
             id="rect4" />
        </g>
      </g>
    </g>
    <g
       id="ColumnGroup_2">
      <g
         id="Title_4">
        <rect
           x="700"
           y="50"
           width="160"
           height="24"
           rx="4"
           fill="#FED70A"
           id="rect5" />
        <path
           d="M 709.08008,66.8535 V 56.832016 h 3.78027 q 0.99805,0 1.52442,0.0957 0.73828,0.123047 1.2373,0.47168 0.49902,0.341797 0.7998,0.963867 0.30762,0.62207 0.30762,1.367187 0,1.278321 -0.81347,2.166993 -0.81348,0.881836 -2.93946,0.881836 h -2.57031 V 66.8535 Z m 1.32617,-5.256836 h 2.59082 q 1.28516,0 1.8252,-0.478515 0.54003,-0.478516 0.54003,-1.34668 0,-0.628906 -0.32128,-1.073242 -0.31446,-0.451172 -0.83399,-0.594727 -0.33496,-0.08887 -1.2373,-0.08887 h -2.56348 z m 12.5918,4.361329 q -0.6836,0.581054 -1.31934,0.820312 -0.62891,0.239258 -1.35351,0.239258 -1.19629,0 -1.83887,-0.581055 -0.64258,-0.58789 -0.64258,-1.49707 0,-0.533203 0.23926,-0.970703 0.24609,-0.444336 0.63574,-0.710938 0.39648,-0.266601 0.88867,-0.40332 0.36231,-0.0957 1.09375,-0.18457 1.49024,-0.177735 2.19434,-0.423829 0.007,-0.252929 0.007,-0.321289 0,-0.751953 -0.34863,-1.05957 -0.47168,-0.416992 -1.40137,-0.416992 -0.86816,0 -1.28515,0.307617 -0.41016,0.300781 -0.6084,1.073242 l -1.20313,-0.164062 q 0.16407,-0.772461 0.54004,-1.244141 0.37598,-0.478515 1.08692,-0.731445 0.71093,-0.259766 1.64746,-0.259766 0.92969,0 1.51074,0.21875 0.58105,0.21875 0.85449,0.553711 0.27344,0.328125 0.38281,0.833985 0.0615,0.314453 0.0615,1.134765 v 1.640625 q 0,1.71582 0.0752,2.173828 0.082,0.451172 0.31446,0.868164 h -1.28516 q -0.19141,-0.382812 -0.24609,-0.895507 z m -0.10254,-2.748047 q -0.66992,0.273437 -2.00977,0.464843 -0.75879,0.109375 -1.07324,0.246094 -0.31445,0.136719 -0.48535,0.40332 -0.1709,0.259766 -0.1709,0.581055 0,0.492188 0.36914,0.820313 0.37598,0.328125 1.09375,0.328125 0.71094,0 1.26465,-0.307618 0.55371,-0.314453 0.81348,-0.854492 0.19824,-0.416992 0.19824,-1.230468 z m 3.15136,3.643554 v -7.259765 h 1.10743 v 1.032226 q 0.7998,-1.196289 2.31054,-1.196289 0.65625,0 1.20313,0.239258 0.55371,0.232422 0.82715,0.615234 0.27343,0.382813 0.38281,0.90918 0.0684,0.341797 0.0684,1.196289 V 66.8535 h -1.23047 v -4.416015 q 0,-0.751953 -0.14355,-1.121094 -0.14356,-0.375977 -0.5127,-0.594727 -0.3623,-0.225586 -0.85449,-0.225586 -0.78613,0 -1.36035,0.499024 -0.56739,0.499023 -0.56739,1.893555 V 66.8535 Z m 12.75586,-2.33789 1.27149,0.157226 q -0.30078,1.114258 -1.11426,1.729492 -0.81348,0.615235 -2.07812,0.615235 -1.59278,0 -2.5293,-0.977539 -0.92969,-0.984375 -0.92969,-2.754883 0,-1.832031 0.94336,-2.84375 0.94336,-1.011719 2.44727,-1.011719 1.45605,0 2.3789,0.991211 0.92285,0.991211 0.92285,2.789063 0,0.109375 -0.007,0.328125 h -5.41406 q 0.0684,1.196289 0.67675,1.832031 0.6084,0.635742 1.51758,0.635742 0.67676,0 1.15528,-0.355469 0.47851,-0.355468 0.75878,-1.134765 z m -4.04003,-1.989258 h 4.05371 q -0.082,-0.916016 -0.46485,-1.374024 -0.58789,-0.710937 -1.52441,-0.710937 -0.84766,0 -1.42871,0.567383 -0.57422,0.567383 -0.63574,1.517578 z m 6.8291,4.327148 V 56.832016 h 1.23047 V 66.8535 Z m 2.21484,0.170899 2.90527,-10.363281 h 0.98438 l -2.89844,10.363281 z m 6.71973,-0.170899 -2.65918,-10.021484 h 1.36035 l 1.52441,6.569336 q 0.2461,1.032226 0.42383,2.050781 0.38281,-1.606445 0.45117,-1.852539 l 1.90723,-6.767578 h 1.59961 l 1.43555,5.072266 q 0.54003,1.886718 0.77929,3.547851 0.19141,-0.950195 0.49903,-2.180664 l 1.57226,-6.439453 h 1.33301 L 758.00488,66.8535 h -1.27832 l -2.1123,-7.635742 q -0.2666,-0.957031 -0.31446,-1.175781 -0.15722,0.69043 -0.29394,1.175781 l -2.12598,7.635742 z m 11.31347,-8.606445 v -1.415039 h 1.23047 v 1.415039 z m 0,8.606445 v -7.259765 h 1.23047 V 66.8535 Z m 3.10352,0 v -7.259765 h 1.10742 v 1.032226 q 0.79981,-1.196289 2.31055,-1.196289 0.65625,0 1.20312,0.239258 0.55371,0.232422 0.82715,0.615234 0.27344,0.382813 0.38281,0.90918 0.0684,0.341797 0.0684,1.196289 V 66.8535 h -1.23047 v -4.416015 q 0,-0.751953 -0.14355,-1.121094 -0.14355,-0.375977 -0.5127,-0.594727 -0.3623,-0.225586 -0.85449,-0.225586 -0.78613,0 -1.36035,0.499024 -0.56738,0.499023 -0.56738,1.893555 V 66.8535 Z m 12.49609,0 v -0.916015 q -0.69043,1.080078 -2.03027,1.080078 -0.86816,0 -1.59961,-0.478516 -0.72461,-0.478515 -1.12793,-1.333008 -0.39648,-0.861328 -0.39648,-1.975586 0,-1.086914 0.3623,-1.96875 0.36231,-0.888671 1.08691,-1.360351 0.72461,-0.47168 1.62012,-0.47168 0.65625,0 1.16895,0.280274 0.51269,0.273437 0.83398,0.717773 v -3.595703 h 1.22363 V 66.8535 Z m -3.88965,-3.623047 q 0,1.394532 0.5879,2.084961 0.58789,0.69043 1.38769,0.69043 0.80664,0 1.36719,-0.65625 0.56738,-0.663086 0.56738,-2.016601 0,-1.490235 -0.57422,-2.1875 -0.57422,-0.697266 -1.41504,-0.697266 -0.82031,0 -1.37402,0.669922 -0.54688,0.669922 -0.54688,2.112304 z m 6.50782,-0.0068 q 0,-2.016602 1.12109,-2.987305 0.93652,-0.806641 2.2832,-0.806641 1.49707,0 2.44727,0.984375 0.95019,0.977539 0.95019,2.707031 0,1.401368 -0.42382,2.208008 -0.417,0.799805 -1.22364,1.244141 -0.7998,0.444336 -1.75,0.444336 -1.52441,0 -2.46777,-0.977539 -0.93652,-0.977539 -0.93652,-2.816406 z m 1.26465,0 q 0,1.394531 0.60839,2.091796 0.6084,0.69043 1.53125,0.69043 0.91602,0 1.52442,-0.697266 0.6084,-0.697265 0.6084,-2.125976 0,-1.34668 -0.61524,-2.037109 -0.6084,-0.697266 -1.51758,-0.697266 -0.92285,0 -1.53125,0.69043 -0.60839,0.690429 -0.60839,2.084961 z m 8.31933,3.629882 -2.22168,-7.259765 h 1.27149 l 1.15527,4.190429 0.43066,1.558594 q 0.0274,-0.116211 0.37598,-1.49707 l 1.15527,-4.251953 h 1.26465 l 1.08692,4.210937 0.3623,1.387696 0.41699,-1.401368 1.24414,-4.197265 h 1.19629 l -2.26953,7.259765 h -1.27832 l -1.15527,-4.347656 -0.28028,-1.237305 -1.46972,5.584961 z m 7.84766,0.170899 2.90527,-10.363281 h 0.98438 l -2.89844,10.363281 z M 802.41797,66.8535 V 56.832016 h 1.99609 l 2.37207,7.095703 q 0.32813,0.991211 0.47852,1.483399 0.1709,-0.546875 0.5332,-1.606446 l 2.39942,-6.972656 h 1.78418 V 66.8535 h -1.27833 v -8.387695 l -2.9121,8.387695 h -1.19629 l -2.89844,-8.53125 v 8.53125 z m 16.51562,-2.33789 1.27149,0.157226 q -0.30078,1.114258 -1.11426,1.729492 -0.81348,0.615235 -2.07812,0.615235 -1.59278,0 -2.5293,-0.977539 -0.92969,-0.984375 -0.92969,-2.754883 0,-1.832031 0.94336,-2.84375 0.94336,-1.011719 2.44727,-1.011719 1.45605,0 2.3789,0.991211 0.92285,0.991211 0.92285,2.789063 0,0.109375 -0.007,0.328125 h -5.41406 q 0.0684,1.196289 0.67675,1.832031 0.6084,0.635742 1.51758,0.635742 0.67676,0 1.15527,-0.355469 0.47852,-0.355468 0.75879,-1.134765 z m -4.04004,-1.989258 h 4.05372 q -0.082,-0.916016 -0.46485,-1.374024 -0.58789,-0.710937 -1.52441,-0.710937 -0.84766,0 -1.42871,0.567383 -0.57422,0.567383 -0.63575,1.517578 z m 11.56641,4.327148 v -0.916015 q -0.69043,1.080078 -2.03027,1.080078 -0.86817,0 -1.59961,-0.478516 -0.72461,-0.478515 -1.12793,-1.333008 -0.39649,-0.861328 -0.39649,-1.975586 0,-1.086914 0.36231,-1.96875 0.3623,-0.888671 1.08691,-1.360351 0.72461,-0.47168 1.62012,-0.47168 0.65625,0 1.16895,0.280274 0.51269,0.273437 0.83398,0.717773 v -3.595703 h 1.22363 V 66.8535 Z m -3.88965,-3.623047 q 0,1.394532 0.58789,2.084961 0.58789,0.69043 1.3877,0.69043 0.80664,0 1.36719,-0.65625 0.56738,-0.663086 0.56738,-2.016601 0,-1.490235 -0.57422,-2.1875 -0.57422,-0.697266 -1.41504,-0.697266 -0.82031,0 -1.37402,0.669922 -0.54688,0.669922 -0.54688,2.112304 z m 6.97266,-4.983398 v -1.415039 h 1.23047 v 1.415039 z m 0,8.606445 v -7.259765 h 1.23047 V 66.8535 Z m 7.86133,0 v -1.066406 q -0.84766,1.230469 -2.30371,1.230469 -0.64258,0 -1.20313,-0.246094 -0.55371,-0.246094 -0.82715,-0.615234 -0.2666,-0.375977 -0.37597,-0.916016 -0.0752,-0.362305 -0.0752,-1.148437 v -4.498047 h 1.23047 v 4.026367 q 0,0.963867 0.0752,1.298828 0.11622,0.485352 0.49219,0.765625 0.37598,0.273438 0.92969,0.273438 0.55371,0 1.03906,-0.280274 0.48535,-0.287109 0.6836,-0.772461 0.20507,-0.492187 0.20507,-1.421875 v -3.889648 h 1.23047 V 66.8535 Z m 3.02832,0 v -7.259765 h 1.10058 v 1.018554 q 0.3418,-0.533203 0.90918,-0.854492 0.56739,-0.328125 1.29199,-0.328125 0.80665,0 1.31934,0.334961 0.51953,0.334961 0.73145,0.936524 0.86132,-1.271485 2.24218,-1.271485 1.08008,0 1.66114,0.601563 0.58105,0.594726 0.58105,1.838867 V 66.8535 h -1.22363 v -4.573242 q 0,-0.738281 -0.12305,-1.05957 -0.11621,-0.328125 -0.43066,-0.526367 -0.31446,-0.198243 -0.73828,-0.198243 -0.76563,0 -1.27149,0.512696 -0.50586,0.505859 -0.50586,1.626953 V 66.8535 h -1.23047 v -4.716797 q 0,-0.820312 -0.30078,-1.230468 -0.30078,-0.410157 -0.98437,-0.410157 -0.51953,0 -0.96387,0.273438 -0.4375,0.273437 -0.63574,0.799805 -0.19824,0.526367 -0.19824,1.517578 V 66.8535 Z"
           id="MessageText_4"
           style="font-size:14px;font-family:Arial;letter-spacing:0em;white-space:pre;fill:#212121"
           aria-label="Panel/Window/Medium" />
      </g>
      <g
         id="Panel/Window/Medium">
        <g
           id="Panel/Body/Headed_2"
           filter="url(#filter2_d_2_905)">
          <path
             id="WindowContent_2"
             d="M700 179H1300V323C1300 331.837 1292.84 339 1284 339H716C707.163 339 700 331.837 700 323V179Z"
             fill="#323741" />
        </g>
        <g
           id="Panel/Header/Example">
          <g
             id="Panel/Header_2">
            <path
               id="Background_2"
               d="M700 115C700 106.163 707.163 99 716 99H1284C1292.84 99 1300 106.163 1300 115V179H700V115Z"
               fill="#2A2E37" />
          </g>
        </g>
      </g>
      <g
         id="Title_5">
        <rect
           x="700"
           y="364"
           width="146"
           height="24"
           rx="4"
           fill="#FED70A"
           id="rect6" />
        <path
           d="m 709.08008,380.854 v -10.02148 h 3.78027 q 0.99805,0 1.52442,0.0957 0.73828,0.12305 1.2373,0.47168 0.49902,0.3418 0.7998,0.96387 0.30762,0.62207 0.30762,1.36719 0,1.27832 -0.81347,2.16699 -0.81348,0.88184 -2.93946,0.88184 h -2.57031 v 4.07421 z m 1.32617,-5.25683 h 2.59082 q 1.28516,0 1.8252,-0.47852 0.54003,-0.47851 0.54003,-1.34668 0,-0.6289 -0.32128,-1.07324 -0.31446,-0.45117 -0.83399,-0.59473 -0.33496,-0.0889 -1.2373,-0.0889 h -2.56348 z m 12.5918,4.36133 q -0.6836,0.58105 -1.31934,0.82031 -0.62891,0.23926 -1.35351,0.23926 -1.19629,0 -1.83887,-0.58106 -0.64258,-0.58789 -0.64258,-1.49707 0,-0.5332 0.23926,-0.9707 0.24609,-0.44434 0.63574,-0.71094 0.39648,-0.2666 0.88867,-0.40332 0.36231,-0.0957 1.09375,-0.18457 1.49024,-0.17773 2.19434,-0.42383 0.007,-0.25293 0.007,-0.32129 0,-0.75195 -0.34863,-1.05957 -0.47168,-0.41699 -1.40137,-0.41699 -0.86816,0 -1.28515,0.30762 -0.41016,0.30078 -0.6084,1.07324 l -1.20313,-0.16406 q 0.16407,-0.77246 0.54004,-1.24414 0.37598,-0.47852 1.08692,-0.73145 0.71093,-0.25976 1.64746,-0.25976 0.92969,0 1.51074,0.21875 0.58105,0.21875 0.85449,0.55371 0.27344,0.32812 0.38281,0.83398 0.0615,0.31445 0.0615,1.13477 v 1.64062 q 0,1.71582 0.0752,2.17383 0.082,0.45117 0.31446,0.86816 h -1.28516 q -0.19141,-0.38281 -0.24609,-0.8955 z m -0.10254,-2.74805 q -0.66992,0.27344 -2.00977,0.46484 -0.75879,0.10938 -1.07324,0.2461 -0.31445,0.13672 -0.48535,0.40332 -0.1709,0.25976 -0.1709,0.58105 0,0.49219 0.36914,0.82031 0.37598,0.32813 1.09375,0.32813 0.71094,0 1.26465,-0.30762 0.55371,-0.31445 0.81348,-0.85449 0.19824,-0.41699 0.19824,-1.23047 z m 3.15136,3.64355 v -7.25976 h 1.10743 v 1.03222 q 0.7998,-1.19628 2.31054,-1.19628 0.65625,0 1.20313,0.23925 0.55371,0.23243 0.82715,0.61524 0.27343,0.38281 0.38281,0.90918 0.0684,0.34179 0.0684,1.19629 v 4.46386 h -1.23047 v -4.41601 q 0,-0.75195 -0.14355,-1.1211 -0.14356,-0.37597 -0.5127,-0.59472 -0.3623,-0.22559 -0.85449,-0.22559 -0.78613,0 -1.36035,0.49903 -0.56739,0.49902 -0.56739,1.89355 v 3.96484 z m 12.75586,-2.33789 1.27149,0.15723 q -0.30078,1.11426 -1.11426,1.72949 -0.81348,0.61524 -2.07812,0.61524 -1.59278,0 -2.5293,-0.97754 -0.92969,-0.98438 -0.92969,-2.75489 0,-1.83203 0.94336,-2.84375 0.94336,-1.01171 2.44727,-1.01171 1.45605,0 2.3789,0.99121 0.92285,0.99121 0.92285,2.78906 0,0.10937 -0.007,0.32812 h -5.41406 q 0.0684,1.19629 0.67675,1.83204 0.6084,0.63574 1.51758,0.63574 0.67676,0 1.15528,-0.35547 0.47851,-0.35547 0.75878,-1.13477 z m -4.04003,-1.98925 h 4.05371 q -0.082,-0.91602 -0.46485,-1.37403 -0.58789,-0.71094 -1.52441,-0.71094 -0.84766,0 -1.42871,0.56739 -0.57422,0.56738 -0.63574,1.51758 z m 6.8291,4.32714 v -10.02148 h 1.23047 V 380.854 Z m 2.21484,0.1709 2.90527,-10.36328 h 0.98438 l -2.89844,10.36328 z m 6.71973,-0.1709 -2.65918,-10.02148 h 1.36035 l 1.52441,6.56934 q 0.2461,1.03222 0.42383,2.05078 0.38281,-1.60645 0.45117,-1.85254 l 1.90723,-6.76758 h 1.59961 l 1.43555,5.07227 q 0.54003,1.88671 0.77929,3.54785 0.19141,-0.9502 0.49903,-2.18067 l 1.57226,-6.43945 h 1.33301 l -2.74805,10.02148 h -1.27832 l -2.1123,-7.63574 q -0.2666,-0.95703 -0.31446,-1.17578 -0.15722,0.69043 -0.29394,1.17578 l -2.12598,7.63574 z m 11.31347,-8.60644 v -1.41504 h 1.23047 v 1.41504 z m 0,8.60644 v -7.25976 h 1.23047 v 7.25976 z m 3.10352,0 v -7.25976 h 1.10742 v 1.03222 q 0.79981,-1.19628 2.31055,-1.19628 0.65625,0 1.20312,0.23925 0.55371,0.23243 0.82715,0.61524 0.27344,0.38281 0.38281,0.90918 0.0684,0.34179 0.0684,1.19629 v 4.46386 h -1.23047 v -4.41601 q 0,-0.75195 -0.14355,-1.1211 -0.14355,-0.37597 -0.5127,-0.59472 -0.3623,-0.22559 -0.85449,-0.22559 -0.78613,0 -1.36035,0.49903 -0.56738,0.49902 -0.56738,1.89355 v 3.96484 z m 12.49609,0 v -0.91601 q -0.69043,1.08008 -2.03027,1.08008 -0.86816,0 -1.59961,-0.47852 -0.72461,-0.47851 -1.12793,-1.33301 -0.39648,-0.86133 -0.39648,-1.97558 0,-1.08692 0.3623,-1.96875 0.36231,-0.88867 1.08691,-1.36035 0.72461,-0.47168 1.62012,-0.47168 0.65625,0 1.16895,0.28027 0.51269,0.27344 0.83398,0.71777 v -3.5957 h 1.22363 V 380.854 Z m -3.88965,-3.62304 q 0,1.39453 0.5879,2.08496 0.58789,0.69043 1.38769,0.69043 0.80664,0 1.36719,-0.65625 0.56738,-0.66309 0.56738,-2.0166 0,-1.49024 -0.57422,-2.1875 -0.57422,-0.69727 -1.41504,-0.69727 -0.82031,0 -1.37402,0.66992 -0.54688,0.66992 -0.54688,2.11231 z m 6.50782,-0.007 q 0,-2.0166 1.12109,-2.9873 0.93652,-0.80664 2.2832,-0.80664 1.49707,0 2.44727,0.98437 0.95019,0.97754 0.95019,2.70703 0,1.40137 -0.42382,2.20801 -0.417,0.7998 -1.22364,1.24414 -0.7998,0.44434 -1.75,0.44434 -1.52441,0 -2.46777,-0.97754 -0.93652,-0.97754 -0.93652,-2.81641 z m 1.26465,0 q 0,1.39453 0.60839,2.0918 0.6084,0.69043 1.53125,0.69043 0.91602,0 1.52442,-0.69727 0.6084,-0.69726 0.6084,-2.12597 0,-1.34668 -0.61524,-2.03711 -0.6084,-0.69727 -1.51758,-0.69727 -0.92285,0 -1.53125,0.69043 -0.60839,0.69043 -0.60839,2.08496 z m 8.31933,3.62988 -2.22168,-7.25976 h 1.27149 l 1.15527,4.19043 0.43066,1.55859 q 0.0274,-0.11621 0.37598,-1.49707 l 1.15527,-4.25195 h 1.26465 l 1.08692,4.21094 0.3623,1.38769 0.41699,-1.40137 1.24414,-4.19726 h 1.19629 l -2.26953,7.25976 h -1.27832 l -1.15527,-4.34765 -0.28028,-1.23731 -1.46972,5.58496 z m 7.84766,0.1709 2.90527,-10.36328 h 0.98438 l -2.89844,10.36328 z m 4.91504,-0.1709 v -10.02148 h 1.32617 v 8.83887 h 4.93555 v 1.18261 z m 12.4209,-0.8955 q -0.6836,0.58105 -1.31934,0.82031 -0.62891,0.23926 -1.35352,0.23926 -1.19629,0 -1.83886,-0.58106 -0.64258,-0.58789 -0.64258,-1.49707 0,-0.5332 0.23926,-0.9707 0.24609,-0.44434 0.63574,-0.71094 0.39648,-0.2666 0.88867,-0.40332 0.3623,-0.0957 1.09375,-0.18457 1.49023,-0.17773 2.19434,-0.42383 0.007,-0.25293 0.007,-0.32129 0,-0.75195 -0.34863,-1.05957 -0.47168,-0.41699 -1.40137,-0.41699 -0.86816,0 -1.28515,0.30762 -0.41016,0.30078 -0.6084,1.07324 l -1.20313,-0.16406 q 0.16406,-0.77246 0.54004,-1.24414 0.37598,-0.47852 1.08692,-0.73145 0.71093,-0.25976 1.64746,-0.25976 0.92968,0 1.51074,0.21875 0.58105,0.21875 0.85449,0.55371 0.27344,0.32812 0.38281,0.83398 0.0615,0.31445 0.0615,1.13477 v 1.64062 q 0,1.71582 0.0752,2.17383 0.082,0.45117 0.31446,0.86816 h -1.28516 q -0.19141,-0.38281 -0.24609,-0.8955 z m -0.10254,-2.74805 q -0.66993,0.27344 -2.00977,0.46484 -0.75879,0.10938 -1.07324,0.2461 -0.31445,0.13672 -0.48535,0.40332 -0.1709,0.25976 -0.1709,0.58105 0,0.49219 0.36914,0.82031 0.37598,0.32813 1.09375,0.32813 0.71094,0 1.26465,-0.30762 0.55371,-0.31445 0.81347,-0.85449 0.19825,-0.41699 0.19825,-1.23047 z m 3.13769,3.64355 v -7.25976 h 1.10742 v 1.10058 q 0.42383,-0.77246 0.7793,-1.01855 0.3623,-0.24609 0.79297,-0.24609 0.62207,0 1.26465,0.39648 l -0.42383,1.1416 q -0.45117,-0.2666 -0.90234,-0.2666 -0.40332,0 -0.72461,0.24609 -0.32129,0.23926 -0.45801,0.66993 -0.20508,0.65625 -0.20508,1.43554 v 3.80078 z m 4.4502,0.60157 1.19629,0.17773 q 0.0752,0.55371 0.41699,0.80664 0.45801,0.3418 1.25097,0.3418 0.8545,0 1.31934,-0.3418 0.46484,-0.3418 0.62891,-0.95703 0.0957,-0.37598 0.0889,-1.5791 -0.80664,0.95019 -2.00976,0.95019 -1.49707,0 -2.31738,-1.08007 -0.82032,-1.08008 -0.82032,-2.59082 0,-1.03907 0.37598,-1.91407 0.37598,-0.88183 1.08691,-1.36035 0.71778,-0.47851 1.68164,-0.47851 1.28516,0 2.11914,1.03906 v -0.875 h 1.13477 v 6.27539 q 0,1.69531 -0.34863,2.39941 -0.3418,0.71094 -1.09375,1.1211 -0.74512,0.41015 -1.83887,0.41015 -1.29883,0 -2.09863,-0.58789 -0.79981,-0.58105 -0.77246,-1.75683 z m 1.01855,-4.36133 q 0,1.42871 0.56738,2.08496 0.56739,0.65625 1.42188,0.65625 0.84766,0 1.42187,-0.64941 0.57422,-0.65625 0.57422,-2.05079 0,-1.333 -0.59472,-2.00976 -0.58789,-0.67676 -1.42188,-0.67676 -0.82031,0 -1.39453,0.66992 -0.57422,0.66309 -0.57422,1.97559 z m 11.96289,1.42187 1.27149,0.15723 q -0.30078,1.11426 -1.11426,1.72949 -0.81348,0.61524 -2.07813,0.61524 -1.59277,0 -2.52929,-0.97754 -0.92969,-0.98438 -0.92969,-2.75489 0,-1.83203 0.94336,-2.84375 0.94336,-1.01171 2.44726,-1.01171 1.45606,0 2.37891,0.99121 0.92285,0.99121 0.92285,2.78906 0,0.10937 -0.007,0.32812 h -5.41407 q 0.0684,1.19629 0.67676,1.83204 0.6084,0.63574 1.51758,0.63574 0.67676,0 1.15527,-0.35547 0.47852,-0.35547 0.75879,-1.13477 z m -4.04004,-1.98925 h 4.05371 q -0.082,-0.91602 -0.46484,-1.37403 -0.58789,-0.71094 -1.52441,-0.71094 -0.84766,0 -1.42871,0.56739 -0.57422,0.56738 -0.63575,1.51758 z"
           id="MessageText_5"
           style="font-size:14px;font-family:Arial;letter-spacing:0em;white-space:pre;fill:#212121"
           aria-label="Panel/Window/Large" />
      </g>
      <g
         id="Panel/Window/Big">
        <g
           id="Panel/Body/Headed_3"
           filter="url(#filter3_d_2_905)">
          <path
             id="WindowContent_3"
             d="M700 493H1300V797C1300 805.837 1292.84 813 1284 813H716C707.163 813 700 805.837 700 797V493Z"
             fill="#323741" />
        </g>
        <g
           id="Panel/Header/Example_2">
          <g
             id="Panel/Header_3">
            <path
               id="Background_3"
               d="M700 429C700 420.163 707.163 413 716 413H1284C1292.84 413 1300 420.163 1300 429V493H700V429Z"
               fill="#2A2E37" />
          </g>
        </g>
      </g>
    </g>
  </g>
  <defs
     id="defs14">
    <filter
       id="filter0_d_2_905"
       x="46"
       y="253"
       width="608"
       height="168"
       filterUnits="userSpaceOnUse"
       color-interpolation-filters="sRGB">
      <feFlood
         flood-opacity="0"
         result="BackgroundImageFix"
         id="feFlood6" />
      <feColorMatrix
         in="SourceAlpha"
         type="matrix"
         values="0 0 0 0 0 0 0 0 0 0 0 0 0 0 0 0 0 0 127 0"
         result="hardAlpha"
         id="feColorMatrix6" />
      <feOffset
         dy="4"
         id="feOffset6" />
      <feGaussianBlur
         stdDeviation="2"
         id="feGaussianBlur6" />
      <feComposite
         in2="hardAlpha"
         operator="out"
         id="feComposite6" />
      <feColorMatrix
         type="matrix"
         values="0 0 0 0 0 0 0 0 0 0 0 0 0 0 0 0 0 0 0.2 0"
         id="feColorMatrix7" />
      <feBlend
         mode="normal"
         in2="BackgroundImageFix"
         result="effect1_dropShadow_2_905"
         id="feBlend7" />
      <feBlend
         mode="normal"
         in="SourceGraphic"
         in2="effect1_dropShadow_2_905"
         result="shape"
         id="feBlend8" />
    </filter>
    <filter
       id="filter1_d_2_905"
       x="46"
       y="487"
       width="608"
       height="208"
       filterUnits="userSpaceOnUse"
       color-interpolation-filters="sRGB">
      <feFlood
         flood-opacity="0"
         result="BackgroundImageFix"
         id="feFlood8" />
      <feColorMatrix
         in="SourceAlpha"
         type="matrix"
         values="0 0 0 0 0 0 0 0 0 0 0 0 0 0 0 0 0 0 127 0"
         result="hardAlpha"
         id="feColorMatrix8" />
      <feOffset
         dy="4"
         id="feOffset8" />
      <feGaussianBlur
         stdDeviation="2"
         id="feGaussianBlur8" />
      <feComposite
         in2="hardAlpha"
         operator="out"
         id="feComposite8" />
      <feColorMatrix
         type="matrix"
         values="0 0 0 0 0 0 0 0 0 0 0 0 0 0 0 0 0 0 0.2 0"
         id="feColorMatrix9" />
      <feBlend
         mode="normal"
         in2="BackgroundImageFix"
         result="effect1_dropShadow_2_905"
         id="feBlend9" />
      <feBlend
         mode="normal"
         in="SourceGraphic"
         in2="effect1_dropShadow_2_905"
         result="shape"
         id="feBlend10" />
    </filter>
    <filter
       id="filter2_d_2_905"
       x="696"
       y="179"
       width="608"
       height="168"
       filterUnits="userSpaceOnUse"
       color-interpolation-filters="sRGB">
      <feFlood
         flood-opacity="0"
         result="BackgroundImageFix"
         id="feFlood10" />
      <feColorMatrix
         in="SourceAlpha"
         type="matrix"
         values="0 0 0 0 0 0 0 0 0 0 0 0 0 0 0 0 0 0 127 0"
         result="hardAlpha"
         id="feColorMatrix10" />
      <feOffset
         dy="4"
         id="feOffset10" />
      <feGaussianBlur
         stdDeviation="2"
         id="feGaussianBlur10" />
      <feComposite
         in2="hardAlpha"
         operator="out"
         id="feComposite10" />
      <feColorMatrix
         type="matrix"
         values="0 0 0 0 0 0 0 0 0 0 0 0 0 0 0 0 0 0 0.2 0"
         id="feColorMatrix11" />
      <feBlend
         mode="normal"
         in2="BackgroundImageFix"
         result="effect1_dropShadow_2_905"
         id="feBlend11" />
      <feBlend
         mode="normal"
         in="SourceGraphic"
         in2="effect1_dropShadow_2_905"
         result="shape"
         id="feBlend12" />
    </filter>
    <filter
       id="filter3_d_2_905"
       x="696"
       y="493"
       width="608"
       height="328"
       filterUnits="userSpaceOnUse"
       color-interpolation-filters="sRGB">
      <feFlood
         flood-opacity="0"
         result="BackgroundImageFix"
         id="feFlood12" />
      <feColorMatrix
         in="SourceAlpha"
         type="matrix"
         values="0 0 0 0 0 0 0 0 0 0 0 0 0 0 0 0 0 0 127 0"
         result="hardAlpha"
         id="feColorMatrix12" />
      <feOffset
         dy="4"
         id="feOffset12" />
      <feGaussianBlur
         stdDeviation="2"
         id="feGaussianBlur12" />
      <feComposite
         in2="hardAlpha"
         operator="out"
         id="feComposite12" />
      <feColorMatrix
         type="matrix"
         values="0 0 0 0 0 0 0 0 0 0 0 0 0 0 0 0 0 0 0.2 0"
         id="feColorMatrix13" />
      <feBlend
         mode="normal"
         in2="BackgroundImageFix"
         result="effect1_dropShadow_2_905"
         id="feBlend13" />
      <feBlend
         mode="normal"
         in="SourceGraphic"
         in2="effect1_dropShadow_2_905"
         result="shape"
         id="feBlend14" />
    </filter>
  </defs>
</svg>
