<?xml version="1.0" encoding="UTF-8" standalone="no"?>
<svg
   version="1.1"
   id="svg441"
   xml:space="preserve"
   width="169.27026"
   height="235.45401"
   sodipodi:docname="body-1.svg"
   xmlns:inkscape="http://www.inkscape.org/namespaces/inkscape"
   xmlns:sodipodi="http://sodipodi.sourceforge.net/DTD/sodipodi-0.dtd"
   xmlns="http://www.w3.org/2000/svg"
   xmlns:svg="http://www.w3.org/2000/svg"><sodipodi:namedview
     id="namedview1"
     pagecolor="#ffffff"
     bordercolor="#000000"
     borderopacity="0.25"
     inkscape:showpageshadow="2"
     inkscape:pageopacity="0.0"
     inkscape:pagecheckerboard="0"
     inkscape:deskcolor="#d1d1d1" /><defs
     id="defs1" /><g
     id="layer1"
     transform="translate(-2157.2825,420.85172)"><g
       id="g443"
       transform="translate(-54.464703,-481.3977)"><path
         stroke="none"
         fill="#ffffff"
         d="m 2363.6,143.25 q -0.15,-4.9 -0.95,-9.55 l -1.3,-5.7 q -4.45,-16.55 -17.65,-29.55 -6.1,-5.95 -12.9,-10.05 l -5.25,-2.85 q -2.65,-1.3 -5.4,-2.3 l -5.25,-1.75 q -9.15,-2.55 -19.35,-2.55 -14.2,0 -26.3,4.95 -7,2.8 -14,7.85 -4.1,3 -7.9,6.7 l -0.6,0.6 -4.1,4.5 Q 2228,120.95 2227.4,144 v -8.15 q 0,-24.2 15.25,-42.3 -1.95,-1.3 -3.2,-2.8 -1.45,-1.85 -0.75,-2.9 0.55,-1.15 2.85,-0.85 2.4,0.35 5,1.95 l 0.2,0.1 0.6,-0.6 q 3.8,-3.7 7.9,-6.7 l -1.15,-0.8 q -3.45,-2.5 -5.15,-5.5 -1.65,-2.95 -0.45,-4.4 1.1,-1.5 4.3,-0.8 1.9,0.55 3.95,1.6 -0.3,-4.05 0.65,-7.15 1.35,-3.7 3.75,-4.1 2.6,-0.45 4.85,2.85 2.35,3.25 3.05,8.05 l 0.2,2.4 q 12.1,-4.95 26.3,-4.95 10.2,0 19.35,2.55 l 0.55,-2.8 q 0.8,-2.95 2.15,-4.8 1.45,-1.95 2.6,-1.55 1.25,0.25 1.6,2.55 0.2,2.45 -0.6,5.3 l -1.05,3.05 q 2.75,1 5.4,2.3 1.65,-1.5 3.35,-2.25 l 3,-0.05 q 0.95,0.9 0.1,3.05 l -1.2,2.1 q 6.8,4.1 12.9,10.05 13.2,13 17.65,29.55 l 1.7,-0.4 q 2.3,-0.35 2.9,0.75 0.65,1.05 -0.75,2.95 l -2.55,2.4 q 1,5.85 1,12.15 l -0.05,7.4"
         id="path248" /><path
         stroke="none"
         fill="#eeecec"
         d="m 2363.6,143.25 v 1 h 0.05 l 1.3,-0.9 q 3.75,-2.2 7.1,-2.6 3.4,-0.4 4.3,1.25 0.95,1.65 -1.05,4.35 l -2.95,2.95 q 3.85,1.3 6.25,3.45 2.95,2.7 2.3,5.1 -0.65,2.5 -4.5,3.25 h -0.05 l -8.55,-0.4 q -2.3,-0.65 -4.15,-1.55 V 231 q -0.3,11 -3.8,20.75 h 0.85 l 1.85,0.05 q 3.15,0.2 5.6,1.25 3.1,1.35 3.05,3.25 0,1.85 -3.05,3.2 -1.85,0.75 -4.05,1.1 l 1.3,1.6 q 1.6,2.25 2.4,4.5 0.5,1.55 0.5,2.75 0,1.8 -1.05,2.8 l -1.25,0.85 -4.3,-0.25 q -3.8,-1.15 -7.25,-4.65 l -1.95,-2.2 q -3.55,5.1 -8.2,9.8 l 1.25,1.95 q 1.5,2.55 1.85,4.75 v 0.15 q 0.3,2.35 -0.75,3 -0.8,0.45 -2,-0.2 l -0.95,-0.65 q -1.8,-1.4 -3.35,-4.05 l -0.45,-0.85 q -18.8,16.1 -44.35,16.1 -28.25,0 -48.2,-19.6 -13.9,-13.65 -18.1,-31.25 -2.3,1.9 -4.6,2.85 l -4.45,-0.15 q -1.3,-1.3 -0.1,-4.4 0.75,-1.8 2.05,-3.6 -3,-0.25 -5.35,-1.1 l -1.55,-0.65 q -3.55,-1.85 -3.5,-4.3 -0.1,-2.6 3.45,-4.35 1.85,-1 4.15,-1.4 l 4.3,-0.45 3.75,0.35 v -9.3 l -0.3,0.05 -5.2,0.5 q -2.4,-0.3 -2.7,-1.5 -0.3,-1.2 1.55,-2.65 1.8,-1.35 4.75,-2.15 l 1.9,-0.35 V 144 q 0.6,-23.05 15.25,-40.45 l 4.1,-4.5 0.6,-0.6 q 3.8,-3.7 7.9,-6.7 7,-5.05 14,-7.85 12.1,-4.95 26.3,-4.95 10.2,0 19.35,2.55 l 5.25,1.75 q 2.75,1 5.4,2.3 l 5.25,2.85 q 6.8,4.1 12.9,10.05 13.2,13 17.65,29.55 l 1.3,5.7 q 0.8,4.65 0.95,9.55"
         id="path249" /></g></g></svg>
