<?xml version="1.0" encoding="UTF-8" standalone="no"?>
<svg
   version="1.1"
   id="svg441"
   xml:space="preserve"
   width="131.63623"
   height="249.89999"
   sodipodi:docname="body-2.svg"
   xmlns:inkscape="http://www.inkscape.org/namespaces/inkscape"
   xmlns:sodipodi="http://sodipodi.sourceforge.net/DTD/sodipodi-0.dtd"
   xmlns="http://www.w3.org/2000/svg"
   xmlns:svg="http://www.w3.org/2000/svg"><sodipodi:namedview
     id="namedview1"
     pagecolor="#ffffff"
     bordercolor="#000000"
     borderopacity="0.25"
     inkscape:showpageshadow="2"
     inkscape:pageopacity="0.0"
     inkscape:pagecheckerboard="0"
     inkscape:deskcolor="#d1d1d1" /><defs
     id="defs1" /><g
     id="layer1"
     transform="translate(-2052.52,-46.099998)"><g
       id="g442"><path
         stroke="none"
         fill="#ffffff"
         d="m 2052.7,239.25 q -0.3,-3.85 -0.1,-7.8 l 6.3,-136.65 q 0.9,-20.6 18.45,-34.8 17.25,-13.9 40.95,-13.9 23.8,0 40.95,13.9 17.6,14.2 18.6,34.8 l 6.25,136.65 q 0.15,3.9 -0.1,7.65 l -6.15,-134.3 q -1,-20.6 -18.6,-34.8 -17.15,-13.9 -40.95,-13.9 -23.7,0 -40.95,13.9 -17.55,14.2 -18.45,34.8 l -6.2,134.45"
         id="path246" /><path
         stroke="none"
         fill="#eeecec"
         d="m 2052.7,239.25 6.2,-134.45 q 0.9,-20.6 18.45,-34.8 17.25,-13.9 40.95,-13.9 23.8,0 40.95,13.9 17.6,14.2 18.6,34.8 l 6.15,134.3 q -1.6,21.2 -17.75,37.35 -19.4,19.55 -47.95,19.55 -28.45,0 -47.95,-19.55 -16.05,-16.1 -17.65,-37.2"
         id="path247" /></g></g></svg>
