<?xml version="1.0" encoding="UTF-8" standalone="no"?>
<svg
   version="1.1"
   id="svg441"
   xml:space="preserve"
   width="349.21899"
   height="184.94946"
   sodipodi:docname="hands-1.svg"
   xmlns:inkscape="http://www.inkscape.org/namespaces/inkscape"
   xmlns:sodipodi="http://sodipodi.sourceforge.net/DTD/sodipodi-0.dtd"
   xmlns="http://www.w3.org/2000/svg"
   xmlns:svg="http://www.w3.org/2000/svg"><sodipodi:namedview
     id="namedview1"
     pagecolor="#ffffff"
     bordercolor="#000000"
     borderopacity="0.25"
     inkscape:showpageshadow="2"
     inkscape:pageopacity="0.0"
     inkscape:pagecheckerboard="0"
     inkscape:deskcolor="#d1d1d1" /><defs
     id="defs1" /><g
     id="layer2"
     transform="translate(-2719.9063,-84.232353)"><g
       id="g486"><g
         id="g481"
         transform="translate(160.5948,-14.869888)"><g
           id="g467-1-4"
           transform="rotate(20,3167.3116,7720.0015)"><path
             stroke="none"
             fill="#dbdbdb"
             d="m 299.7,724.85 q -6,3.15 -13.35,3.2 -12,0 -20.45,-8.55 -8.5,-8.5 -8.5,-20.5 0,-11.95 8.55,-20.5 8.4,-8.5 20.45,-8.5 12,0 20.5,8.5 6.85,6.95 8.15,16.05 0.35,2.2 0.3,4.45 0,12 -8.5,20.5 -3.3,3.35 -7.15,5.35"
             id="path436-3-4" /><path
             stroke="none"
             fill="#eeecec"
             d="m 299.7,724.85 q 3.85,-2 7.15,-5.35 8.5,-8.5 8.5,-20.5 0.05,-2.25 -0.3,-4.45 18.05,10.25 29.1,29.6 h 0.05 q 16.7,28.9 8.1,61.15 -5.05,18.45 -16.6,31.9 -5.45,6.3 -12.4,11.4 -4.9,13.4 -21.75,21.25 -3.45,1.55 -6.9,0.3 -3.45,-1.3 -5.1,-4.65 -1,-2.25 -0.75,-4.5 -4.5,2.25 -9.8,4.1 -3.5,1.2 -6.85,-0.35 -3.35,-1.65 -4.6,-5.2 -1.25,-3.5 0.4,-6.8 1.6,-3.4 5.1,-4.6 17.75,-6.25 22,-18.35 l 0.25,-0.7 q -5.65,-3.9 -9.85,-3.65 -3.6,0.75 -6.7,-1.35 -3.15,-2.1 -3.9,-5.65 -0.75,-3.65 1.3,-6.75 2.05,-3.1 5.7,-3.85 11.6,-3.25 26.8,8.8 L 310.1,795 v 0.05 q 6.7,-7.8 9.5,-18.5 5.05,-18.75 -4.75,-35.5 L 314.9,741 q -5.95,-10.3 -15.2,-16.15"
             id="path437-8-6" /></g><g
           id="g467-1-4-52"
           transform="matrix(-0.93969261,0.34202015,0.34202015,0.93969261,2636.4336,-626.60728)"><path
             stroke="none"
             fill="#dbdbdb"
             d="m 299.7,724.85 q -6,3.15 -13.35,3.2 -12,0 -20.45,-8.55 -8.5,-8.5 -8.5,-20.5 0,-11.95 8.55,-20.5 8.4,-8.5 20.45,-8.5 12,0 20.5,8.5 6.85,6.95 8.15,16.05 0.35,2.2 0.3,4.45 0,12 -8.5,20.5 -3.3,3.35 -7.15,5.35"
             id="path436-3-4-7" /><path
             stroke="none"
             fill="#eeecec"
             d="m 299.7,724.85 q 3.85,-2 7.15,-5.35 8.5,-8.5 8.5,-20.5 0.05,-2.25 -0.3,-4.45 18.05,10.25 29.1,29.6 h 0.05 q 16.7,28.9 8.1,61.15 -5.05,18.45 -16.6,31.9 -5.45,6.3 -12.4,11.4 -4.9,13.4 -21.75,21.25 -3.45,1.55 -6.9,0.3 -3.45,-1.3 -5.1,-4.65 -1,-2.25 -0.75,-4.5 -4.5,2.25 -9.8,4.1 -3.5,1.2 -6.85,-0.35 -3.35,-1.65 -4.6,-5.2 -1.25,-3.5 0.4,-6.8 1.6,-3.4 5.1,-4.6 17.75,-6.25 22,-18.35 l 0.25,-0.7 q -5.65,-3.9 -9.85,-3.65 -3.6,0.75 -6.7,-1.35 -3.15,-2.1 -3.9,-5.65 -0.75,-3.65 1.3,-6.75 2.05,-3.1 5.7,-3.85 11.6,-3.25 26.8,8.8 L 310.1,795 v 0.05 q 6.7,-7.8 9.5,-18.5 5.05,-18.75 -4.75,-35.5 L 314.9,741 q -5.95,-10.3 -15.2,-16.15"
             id="path437-8-6-6" /></g></g></g></g></svg>
