<?xml version="1.0" encoding="UTF-8" standalone="no"?>
<svg
   width="168"
   height="88"
   viewBox="0 0 168 88"
   fill="none"
   version="1.1"
   id="svg5"
   sodipodi:docname="Default.svg"
   xmlns:inkscape="http://www.inkscape.org/namespaces/inkscape"
   xmlns:sodipodi="http://sodipodi.sourceforge.net/DTD/sodipodi-0.dtd"
   xmlns="http://www.w3.org/2000/svg"
   xmlns:svg="http://www.w3.org/2000/svg">
  <sodipodi:namedview
     id="namedview5"
     pagecolor="#ffffff"
     bordercolor="#000000"
     borderopacity="0.25"
     inkscape:showpageshadow="2"
     inkscape:pageopacity="0.0"
     inkscape:pagecheckerboard="0"
     inkscape:deskcolor="#d1d1d1" />
  <g
     id="Buttons/Rect-Medium/PlayText/Default">
    <g
       id="Button/Rect-Medium/Fill"
       filter="url(#filter0_d_2_973)">
      <rect
         id="Background"
         x="6"
         y="2"
         width="156"
         height="76"
         rx="11"
         fill="#2A2E37"
         stroke="#E52554"
         stroke-width="4" />
    </g>
    <g
       id="Text/Style/Button/Medium">
      <g
         id="Button/Medium"
         filter="url(#filter1_d_2_973)">
        <path
           d="m 55.852801,21.56 q 3.64,0 6.16,1.24 2.52,1.2 3.84,3.44 1.32,2.2 1.32,5.24 0,1.8 -0.56,3.64 -0.52,1.8 -1.72,3.28 -1.16,1.48 -3.16,2.4 -1.96,0.88 -4.84,0.88 h -4.16 V 51 h -5.8 V 21.56 Z m 1,14.48 q 1.32,0 2.2,-0.44 0.88,-0.48 1.36,-1.16 0.52,-0.72 0.72,-1.48 0.24,-0.76 0.24,-1.32 0,-0.44 -0.16,-1.16 -0.12,-0.76 -0.56,-1.52 -0.44,-0.76 -1.36,-1.28 -0.88,-0.52 -2.4,-0.52 h -4.16 v 8.88 z m 14.599987,-16.6 h 5.6 V 51 h -5.6 z m 18.720016,32.04 q -2.44,0 -4.44,-0.96 -1.96,-1 -3.12,-3.04 -1.16,-2.04 -1.16,-5.2 0,-2.96 1.2,-5.12 1.2,-2.16 3.16,-3.32 1.96,-1.2 4.16,-1.2 2.6,0 3.92,0.88 1.36,0.84 2.24,1.88 l -0.24,0.68 0.52,-2.56 H 101.6128 V 51 h -5.599996 v -3.8 l 0.44,1.2 q -0.08,0 -0.48,0.48 -0.4,0.44 -1.2,1.08 -0.76,0.6 -1.92,1.04 -1.12,0.48 -2.68,0.48 z m 1.6,-4.56 q 1,0 1.8,-0.28 0.8,-0.32 1.4,-0.88 0.6,-0.6 1.04,-1.48 V 40 q -0.32,-0.88 -0.96,-1.48 -0.64,-0.64 -1.52,-0.96 -0.88,-0.36 -1.96,-0.36 -1.2,0 -2.24,0.64 -1,0.6 -1.6,1.68 -0.6,1.08 -0.6,2.48 0,1.4 0.64,2.52 0.64,1.12 1.68,1.76 1.08,0.64 2.32,0.64 z m 17.000016,12.48 11.64,-25.88 h 5.04 l -11.28,25.88 z m 4.68,-8.32 -8.56,-17.56 h 6.28 l 6.6,14.76 z"
           id="text1"
           style="font-weight:bold;font-size:40px;font-family:'Josefin Sans';letter-spacing:0em;white-space:pre;fill:#e52554"
           aria-label="Play" />
      </g>
    </g>
  </g>
  <defs
     id="defs5">
    <filter
       id="filter0_d_2_973"
       x="0"
       y="0"
       width="168"
       height="88"
       filterUnits="userSpaceOnUse"
       color-interpolation-filters="sRGB">
      <feFlood
         flood-opacity="0"
         result="BackgroundImageFix"
         id="feFlood1" />
      <feColorMatrix
         in="SourceAlpha"
         type="matrix"
         values="0 0 0 0 0 0 0 0 0 0 0 0 0 0 0 0 0 0 127 0"
         result="hardAlpha"
         id="feColorMatrix1" />
      <feOffset
         dy="4"
         id="feOffset1" />
      <feGaussianBlur
         stdDeviation="2"
         id="feGaussianBlur1" />
      <feComposite
         in2="hardAlpha"
         operator="out"
         id="feComposite1" />
      <feColorMatrix
         type="matrix"
         values="0 0 0 0 0 0 0 0 0 0 0 0 0 0 0 0 0 0 0.2 0"
         id="feColorMatrix2" />
      <feBlend
         mode="normal"
         in2="BackgroundImageFix"
         result="effect1_dropShadow_2_973"
         id="feBlend2" />
      <feBlend
         mode="normal"
         in="SourceGraphic"
         in2="effect1_dropShadow_2_973"
         result="shape"
         id="feBlend3" />
    </filter>
    <filter
       id="filter1_d_2_973"
       x="42.9326"
       y="19.4399"
       width="86.5273"
       height="47.96"
       filterUnits="userSpaceOnUse"
       color-interpolation-filters="sRGB">
      <feFlood
         flood-opacity="0"
         result="BackgroundImageFix"
         id="feFlood3" />
      <feColorMatrix
         in="SourceAlpha"
         type="matrix"
         values="0 0 0 0 0 0 0 0 0 0 0 0 0 0 0 0 0 0 127 0"
         result="hardAlpha"
         id="feColorMatrix3" />
      <feOffset
         dy="4"
         id="feOffset3" />
      <feGaussianBlur
         stdDeviation="2"
         id="feGaussianBlur3" />
      <feComposite
         in2="hardAlpha"
         operator="out"
         id="feComposite3" />
      <feColorMatrix
         type="matrix"
         values="0 0 0 0 0 0 0 0 0 0 0 0 0 0 0 0 0 0 0.2 0"
         id="feColorMatrix4" />
      <feBlend
         mode="normal"
         in2="BackgroundImageFix"
         result="effect1_dropShadow_2_973"
         id="feBlend4" />
      <feBlend
         mode="normal"
         in="SourceGraphic"
         in2="effect1_dropShadow_2_973"
         result="shape"
         id="feBlend5" />
    </filter>
  </defs>
</svg>
